<svg id="Layer_1" data-name="Layer 1" xmlns="http://www.w3.org/2000/svg" viewBox="0 0 39.17 45.23"><defs><style>.cls-1{fill:#fff;}.cls-1,.cls-2{stroke:#231f20;stroke-miterlimit:10;}.cls-2{fill:none;}</style></defs><polygon class="cls-1" points="0.5 11.6 0.5 33.64 19.59 44.66 38.67 33.64 38.67 11.6 19.59 0.58 0.5 11.6"/><polyline class="cls-2" points="38.67 33.64 19.59 36.35 0.5 33.64"/><polyline class="cls-2" points="19.59 0.58 31.48 15.75 38.67 33.64"/><line class="cls-2" x1="19.59" y1="44.66" x2="19.59" y2="36.35"/><line class="cls-2" x1="31.48" y1="15.75" x2="38.67" y2="11.6"/><path class="cls-2" d="M15.46,19.49" transform="translate(-5.41 -2.38)"/><path class="cls-2" d="M15.46,19.49" transform="translate(-5.41 -2.38)"/><path class="cls-2" d="M21.49,31.27" transform="translate(-5.41 -2.38)"/><polyline class="cls-2" points="19.59 0.58 31.48 15.75 38.67 33.64"/><line class="cls-2" x1="31.48" y1="15.75" x2="38.67" y2="11.6"/><polyline class="cls-2" points="19.59 0.58 7.69 15.75 0.5 33.64"/><line class="cls-2" x1="7.69" y1="15.75" x2="0.5" y2="11.6"/><line class="cls-2" x1="19.59" y1="36.35" x2="31.48" y2="15.75"/><line class="cls-2" x1="7.69" y1="15.75" x2="31.48" y2="15.75"/><line class="cls-2" x1="19.59" y1="36.35" x2="7.69" y2="15.75"/></svg>