<svg id="Arrows" xmlns="http://www.w3.org/2000/svg" viewBox="0 0 50 50"><defs><style>.cls-1{fill:#fff;stroke:#231f20;stroke-linecap:round;stroke-miterlimit:10;stroke-width:2px;}.cls-2{fill:#231f20;}</style></defs><line class="cls-1" x1="38.09" y1="38.16" x2="12.34" y2="12.41"/><polygon class="cls-2" points="7.07 7.15 10.28 14.47 14.39 10.35 7.07 7.15"/><polygon class="cls-2" points="33.32 33.39 33.32 37.7 38.54 42.93 38.54 38.8 33.32 33.39"/><polygon class="cls-2" points="42.85 38.62 38.54 38.62 33.32 33.39 37.45 33.39 42.85 38.62"/><line class="cls-1" x1="43.95" y1="32.3" x2="18.2" y2="6.55"/><polygon class="cls-2" points="12.94 1.28 16.14 8.61 20.26 4.49 12.94 1.28"/><polygon class="cls-2" points="39.18 27.53 39.18 31.84 44.41 37.06 44.41 32.94 39.18 27.53"/><polygon class="cls-2" points="48.72 32.75 44.41 32.75 39.18 27.53 43.31 27.53 48.72 32.75"/><line class="cls-1" x1="32.3" y1="43.95" x2="6.55" y2="18.2"/><polygon class="cls-2" points="1.28 12.94 4.49 20.26 8.61 16.14 1.28 12.94"/><polygon class="cls-2" points="27.53 39.18 27.53 43.49 32.75 48.72 32.75 44.59 27.53 39.18"/><polygon class="cls-2" points="37.06 44.41 32.75 44.41 27.53 39.18 31.66 39.18 37.06 44.41"/></svg>