<svg id="Brigandine" xmlns="http://www.w3.org/2000/svg" viewBox="0 0 50 50"><defs><style>.cls-1{fill:#fff;}.cls-2,.cls-3{fill:none;stroke:#231f20;stroke-linecap:round;stroke-miterlimit:10;}.cls-3{stroke-width:0.5px;}</style></defs><path class="cls-1" d="M21.52,39.7l1.05,0V47h1.24c10.3,0,18.64-1.8,18.64-4l-3.31-18.6V8c0-2.75-1.36-5-3-5H28.94c-1.67,0-3,2.23-3,5a6.23,6.23,0,0,1-1.36,3.81A6.22,6.22,0,0,1,23.37,8c0-2.75-1.36-5-3-5H13.4c-1.3,0-2.34,1.72-2.34,3.84v17.6L7.55,43c0,1.91,4.39,3.5,12.14,3.91v-.06l.73-7.11Z"/><ellipse class="cls-2" cx="36.1" cy="7.95" rx="3.04" ry="4.98"/><line class="cls-2" x1="39.14" y1="24.41" x2="39.14" y2="7.95"/><path class="cls-2" d="M35.9,3h-7c-1.67,0-3,2.23-3,5"/><path class="cls-2" d="M22.57,47h1.24c10.3,0,18.64-1.8,18.64-4l-3.31-18.6"/><path class="cls-2" d="M25.91,8c0,2.75-1.5,5-3.34,5s-3.34-2.23-3.34-5-2-5-3.64-5H13.4c-1.3,0-2.34,1.72-2.34,3.84v17.6L7.55,43c0,1.91,4.39,3.5,12.15,3.91"/><path class="cls-2" d="M24.55,11.76A6.22,6.22,0,0,1,23.37,8c0-2.75-1.36-5-3-5H14.79"/><path class="cls-2" d="M11.06,24.41c0,1.78,4.79,3.22,13.08,3.22s15-1.44,15-3.22"/><path class="cls-2" d="M11.06,21.77c0,1.78,4.79,3.23,13.08,3.23s15-1.45,15-3.23"/><line class="cls-2" x1="22.57" y1="27.63" x2="22.57" y2="46.86"/><line class="cls-2" x1="21.68" y1="27.59" x2="19.7" y2="46.86"/><line class="cls-3" x1="19.68" y1="27.59" x2="17.7" y2="46.92"/><line class="cls-3" x1="15.68" y1="27.59" x2="13.76" y2="46.28"/><line class="cls-3" x1="11.89" y1="25.63" x2="9.87" y2="45.21"/><path class="cls-3" d="M7.78,41.76c1,1.56,5.2,2.8,11.92,3.16"/><path class="cls-3" d="M8.43,38.35c1.75,1.28,6,2.26,11.88,2.57"/><path class="cls-3" d="M9.11,34.74c2.14,1.12,6.33,2,11.6,2.27"/><path class="cls-3" d="M9.8,31a37.45,37.45,0,0,0,11.32,2"/><path class="cls-3" d="M10.52,27.26a42.4,42.4,0,0,0,11,1.83"/><line class="cls-3" x1="24.57" y1="27.63" x2="24.57" y2="46.86"/><line class="cls-3" x1="28.57" y1="27.63" x2="29.28" y2="46.86"/><path class="cls-3" d="M34.6,46.29,32.67,27.17"/><line class="cls-3" x1="36.56" y1="26.21" x2="39.95" y2="45.02"/><path class="cls-3" d="M22.57,45h1.24c9.27,0,17-1.46,18.4-3.37"/><path class="cls-3" d="M22.57,41h1.24c8.35,0,15.41-1.18,17.79-2.81"/><path class="cls-3" d="M22.57,37h1.24c7.77,0,14.28-1.36,17.08-2.81"/><path class="cls-3" d="M22.57,33h1.24c7.15,0,13.36-.87,16.48-2.14"/><path class="cls-3" d="M22.57,29h1.24c6.67,0,12.52-.76,15.82-1.89"/><line class="cls-3" x1="15.06" y1="24.05" x2="15.06" y2="2.88"/><line class="cls-3" x1="19.06" y1="24.41" x2="19.06" y2="6"/><line class="cls-3" x1="23.06" y1="24.95" x2="23.06" y2="12.87"/><line class="cls-3" x1="27.06" y1="24.95" x2="27.06" y2="4.05"/><line class="cls-3" x1="31.06" y1="24.41" x2="31.06" y2="2.88"/><line class="cls-3" x1="35.06" y1="24.05" x2="35.06" y2="12.62"/><path class="cls-3" d="M11.06,17.77c0,1.78,4.79,3.23,13.08,3.23s15-1.45,15-3.23"/><path class="cls-3" d="M11.06,13.77c0,1.78,4.79,3.23,13.08,3.23s15-1.45,15-3.23"/><path class="cls-3" d="M11.06,9.77c0,1.78,4.79,3.23,13.08,3.23a54.58,54.58,0,0,0,10.3-.88"/><path class="cls-3" d="M25.83,9a54.54,54.54,0,0,0,7.25-.62"/><path class="cls-3" d="M11.06,5.77c0,1.4,2.95,2.59,8.22,3"/><path class="cls-3" d="M26.5,5a51.12,51.12,0,0,0,7.62-.78"/><path class="cls-3" d="M12.29,3.24a17.14,17.14,0,0,0,5.95,1.47"/><path class="cls-2" d="M22.57,39.67l-2.14.08"/></svg>