<svg id="Chain" xmlns="http://www.w3.org/2000/svg" viewBox="0 0 50 50"><defs><style>.cls-1,.cls-5{fill:#fff;}.cls-2,.cls-3,.cls-4{fill:none;}.cls-2,.cls-3,.cls-4,.cls-5{stroke:#231f20;stroke-linecap:round;}.cls-2{stroke-miterlimit:10;}.cls-3,.cls-4,.cls-5{stroke-linejoin:round;}.cls-3{stroke-width:0.5px;}</style></defs><path class="cls-1" d="M11.63,34.22V19c0-2.07,1.22-3.75,2.72-3.75s2.73,1.68,2.73,3.75V36.26c0,.55-1.22,1-2.73,1s-2.72-.45-2.72-1Z"/><path class="cls-2" d="M11.63,34.22V19c0-2.07,1.22-3.75,2.72-3.75s2.73,1.68,2.73,3.75V36.26c0,.55-1.22,1-2.73,1s-2.72-.45-2.72-1Z"/><path class="cls-1" d="M35.65,31.36V19c0-2.07-1-3.75-2.29-3.75H28c-1.27,0-2.29,1.68-2.29,3.75a4.72,4.72,0,0,1-1,2.88,4.67,4.67,0,0,1-.9-2.88c0-2.07-1-3.75-2.29-3.75H16.23c-1,0-1.76,1.3-1.76,2.89V31.36l.11,15.29L18,47.77l5.2.64L28,48.3l3.52-.44,4.15-1.7Z"/><line class="cls-2" x1="35.65" y1="31.36" x2="35.65" y2="18.95"/><path class="cls-2" d="M25.67,19c0-2.07,1-3.75,2.29-3.75h7.69"/><path class="cls-2" d="M24.65,21.83a4.67,4.67,0,0,1-.9-2.88c0-2.07-1-3.75-2.29-3.75H17.28"/><path class="cls-2" d="M14.47,37.49c0,1.34,3.62,2.43,9.86,2.43s11.32-1.09,11.32-2.43"/><path class="cls-2" d="M14.47,34.59c0,1.34,3.62,2.43,9.86,2.43s11.32-1.09,11.32-2.43"/><line class="cls-2" x1="14.35" y1="15.2" x2="16.64" y2="15.2"/><line class="cls-3" x1="20.02" y1="36.77" x2="20.02" y2="39.65"/><line class="cls-3" x1="25.06" y1="37.02" x2="25.06" y2="39.92"/><path class="cls-4" d="M25.67,19c0,2.08-1.13,3.76-2.52,3.76S20.63,21,20.63,19s-1.48-3.75-2.74-3.75H16.23c-1,0-1.76,1.3-1.76,2.89V46c0,1.34,3.62,2.43,9.86,2.43S35.65,47.32,35.65,46V33.58"/><path class="cls-1" d="M32.92,34.22V19c0-2.07,1.22-3.75,2.73-3.75s2.72,1.68,2.72,3.75V36.26c0,.55-1.22,1-2.72,1s-2.73-.45-2.73-1Z"/><path class="cls-2" d="M32.92,34.22V19c0-2.07,1.22-3.75,2.73-3.75s2.72,1.68,2.72,3.75V36.26c0,.55-1.22,1-2.72,1s-2.73-.45-2.73-1Z"/><path class="cls-5" d="M31.47,15.84c0,4.05-3.57,7.33-8,7.33s-8-3.28-8-7.33"/><path class="cls-5" d="M15.53,15.84c0-.7,1.33-1.28,3-1.28H34.43c-1.63,0-3,.58-3,1.28"/><path class="cls-5" d="M23.36,1.58c4.83,0,8.75,3.19,8.75,7.13s-3.92,7.13-8.75,7.13"/><ellipse class="cls-5" cx="23.12" cy="8.71" rx="5.93" ry="7.13"/><ellipse class="cls-3" cx="23.12" cy="8.71" rx="3.82" ry="5.45"/></svg>