<svg xmlns="http://www.w3.org/2000/svg" viewBox="0 0 50 50"><defs><style>.cls-1,.cls-4,.cls-5{fill:#fff;}.cls-2,.cls-3,.cls-6,.cls-7{fill:none;}.cls-2,.cls-3,.cls-4,.cls-5{stroke:#231f20;}.cls-2,.cls-3,.cls-4,.cls-5,.cls-7{stroke-linecap:round;}.cls-2,.cls-3,.cls-5,.cls-6,.cls-7{stroke-miterlimit:10;}.cls-3,.cls-7{stroke-width:0.5px;}.cls-4{stroke-linejoin:round;}.cls-6,.cls-7{stroke:#000;}</style></defs><g id="Full_Plate" data-name="Full Plate"><polygon class="cls-1" points="10.04 24.8 8.44 29.39 14.28 32.04 16.95 26.38 10.04 24.8"/><path class="cls-1" d="M10.24,24.48l.71-2V11.25a7.73,7.73,0,0,1,1.27-4.47,2.89,2.89,0,0,1,2.29-1.37c2,0,3.57,2.61,3.57,5.84V23.74L17.26,26"/><path class="cls-2" d="M11,11.25C11,8,12.54,5.41,14.51,5.41S18.08,8,18.08,11.25"/><line class="cls-2" x1="18.08" y1="11.25" x2="18.08" y2="23.74"/><line class="cls-2" x1="10.95" y1="11.25" x2="10.95" y2="22.5"/><line class="cls-2" x1="10.64" y1="23.34" x2="10.95" y2="22.5"/><path class="cls-3" d="M11,12.55s.35,5,7.13,3.92"/><path class="cls-3" d="M11,9.53s.35,5,7.13,3.92"/><path class="cls-3" d="M11.42,8.27c.7,1.37,2.42,3.06,6.66,2.41"/><path class="cls-3" d="M12.19,6.58c.92.94,2.51,1.71,5.28,1.41"/><path class="cls-3" d="M11,16s.35,5,7.13,3.92"/><path class="cls-4" d="M18.68,23.75v-5H10.4v3.75L9.22,25.39l0,.09h.05L17,28l1.71-4.21"/><polyline class="cls-5" points="6.06 38.12 5 39.7 4.14 41.31 4.75 42.17 7.64 44.23 8.26 42.29 9.99 38.76 11.23 37.56 15.3 31.22 12.69 27.96 8.03 29 6.26 35.78 3.69 37.23 3.39 39.45 5 39.7"/><line class="cls-6" x1="8.54" y1="28.89" x2="9.75" y2="25.66"/><line class="cls-6" x1="14.97" y1="30.81" x2="16.26" y2="27.74"/><line class="cls-7" x1="10.24" y1="28.51" x2="8.09" y2="35.1"/><line class="cls-7" x1="14.26" y1="29.7" x2="10.24" y2="36.5"/><line class="cls-7" x1="12.69" y1="27.96" x2="10.01" y2="33.1"/><path class="cls-1" d="M22.69,4.24s-7.07-.94-8,2.92A85.15,85.15,0,0,0,13.56,20,85.15,85.15,0,0,0,14.7,32.8l-2.88,7.08c0,2.12,6.52,3.84,14.56,3.84S41,42,41,39.88L38.1,32.8c0-2.54.54-9.53,0-25.64,0,0,.4-2.64-9.39-2.64Z"/><path class="cls-2" d="M38.36,33.4a.25.25,0,0,0-.45,0c-1,1.6-6.16,2.82-12.33,2.82C19,36.17,15.06,34.78,14.69,33a.07.07,0,0,0-.13,0l-2.74,6.81v0c0,2.11,6.54,3.82,14.56,3.82S40.9,42,41,39.85v0Z"/><path class="cls-2" d="M25.27,36a134.36,134.36,0,0,1-.91-14.45c0-7.14.49-13.84.49-13.84"/><path class="cls-2" d="M38.1,32.75c0-2.54.54-9.53,0-25.64,0,0,.4-2.64-9.39-2.64"/><path class="cls-2" d="M22.69,4.19s-7.07-.94-8,2.92a85.15,85.15,0,0,0-1.14,12.82A85.15,85.15,0,0,0,14.7,32.75"/><path class="cls-2" d="M38.55,33.88a.56.56,0,0,0-.9-.22c-1.46,1.45-6.31,2.51-12.07,2.51-5.53,0-9.2-1-10.44-2.34a.58.58,0,0,0-1,.14l-2.3,5.73a.53.53,0,0,0,0,.28c.29,2.05,6.69,3.69,14.55,3.69S40.64,42,40.94,40a.54.54,0,0,0,0-.28Z"/><polygon class="cls-1" points="36.99 27.46 35.39 32.05 41.23 34.7 43.9 29.04 36.99 27.46"/><path class="cls-1" d="M37.43,26.8l.71-2V13.57a7.7,7.7,0,0,1,1.27-4.46,2.91,2.91,0,0,1,2.3-1.38c2,0,3.56,2.62,3.56,5.84V26.06l-.81,2.26"/><path class="cls-2" d="M38.14,13.57c0-3.22,1.6-5.84,3.57-5.84s3.56,2.62,3.56,5.84"/><line class="cls-2" x1="45.27" y1="13.57" x2="45.27" y2="26.06"/><line class="cls-2" x1="38.14" y1="13.57" x2="38.14" y2="24.82"/><line class="cls-2" x1="37.84" y1="25.67" x2="38.14" y2="24.82"/><path class="cls-3" d="M45.27,14.87s-.36,5-7.13,3.93"/><path class="cls-3" d="M45.27,11.85s-.36,5-7.13,3.93"/><path class="cls-3" d="M44.8,10.6C44.1,12,42.37,13.66,38.14,13"/><path class="cls-3" d="M44,8.9c-.92.94-2.52,1.71-5.28,1.42"/><path class="cls-3" d="M45.27,18.31s-.36,5-7.13,3.93"/><path class="cls-4" d="M45.88,26.07V21H37.6v3.75l-1.19,2.93,0,.08,0,0,7.74,2.47,1.71-4.22"/><polyline class="cls-5" points="32.69 40.55 32.2 42.25 31.33 43.63 28.98 45.26 31.57 48.08 35.85 45.87 37.19 41.08 38.42 39.89 42.49 33.55 39.88 30.29 35.23 31.33 33.46 38.1 30.89 39.56 30.58 41.78 32.2 42.25"/><line class="cls-6" x1="35.74" y1="31.21" x2="36.95" y2="27.99"/><line class="cls-6" x1="42.16" y1="33.14" x2="43.46" y2="30.06"/><line class="cls-7" x1="37.43" y1="30.83" x2="35.29" y2="37.42"/><line class="cls-7" x1="41.45" y1="32.02" x2="37.43" y2="38.82"/><line class="cls-7" x1="39.88" y1="30.29" x2="37.21" y2="35.42"/><ellipse class="cls-4" cx="25.77" cy="5.99" rx="7.64" ry="2.29"/><path id="Right_Pauldron" data-name="Right Pauldron" class="cls-4" d="M46.43,12c0,1-3.13,1.79-7,1.79s-7-.8-7-1.79V6.94A2.76,2.76,0,0,1,34.85,4.2C38.85,3.66,46.43,3.73,46.43,12Z"/><g id="Left_Pauldron" data-name="Left Pauldron"><path class="cls-4" d="M20.29,3.9s-11.57-1.27-11.57,7c0,.92,2.26,1.67,5,1.67s5-.75,5-1.67V7.57c0-2,.66-3.67,1.48-3.67"/></g></g></svg>