<svg id="Gambeson" xmlns="http://www.w3.org/2000/svg" viewBox="0 0 50 50"><defs><style>.cls-1{fill:#fff;}.cls-2,.cls-3{fill:none;stroke:#231f20;stroke-linecap:round;stroke-miterlimit:10;}.cls-3{stroke-width:0.5px;}</style></defs><path class="cls-1" d="M11,4.19A2.46,2.46,0,0,1,12.94,3c1.68,0,3,2.23,3,5V18.64L11.25,31.81c-.21.57-1.65.57-3.23,0s-2.69-1.49-2.49-2.06L9.91,17.58V8A6.61,6.61,0,0,1,11,4.19Z"/><path class="cls-2" d="M9.91,8c0-2.75,1.36-5,3-5"/><line class="cls-2" x1="15.98" y1="8" x2="15.98" y2="18.64"/><line class="cls-2" x1="9.91" y1="8" x2="9.91" y2="17.58"/><path class="cls-2" d="M11.25,31.81c-.21.57-1.65.57-3.23,0s-2.69-1.49-2.49-2.06"/><path class="cls-2" d="M5.53,29.75c.21-.56,1.65-.57,3.23,0s2.69,1.49,2.49,2.06"/><line class="cls-2" x1="5.53" y1="29.75" x2="9.91" y2="17.58"/><line class="cls-2" x1="11.25" y1="31.81" x2="15.98" y2="18.64"/><polyline class="cls-3" points="11.91 3.32 11.91 17.93 10.98 20.51 7.75 29.46"/><polyline class="cls-3" points="13.91 3.27 13.91 18.28 13.53 19.3 9.64 30.13"/><path class="cls-1" d="M23.56,39.75l1.05,0v7.35h1.24c10.3,0,18.64-1.79,18.64-4L41.18,24.45V8c0-2.75-1.36-5-3-5H31c-1.67,0-3,2.23-3,5a6.26,6.26,0,0,1-1.36,3.81A6.24,6.24,0,0,1,25.41,8c0-2.75-1.36-5-3-5H15.44c-1.3,0-2.34,1.72-2.34,3.84V24.45L9.59,43.06C9.59,45,14,46.55,21.73,47v-.05l.73-7.11Z"/><line class="cls-2" x1="41.18" y1="24.45" x2="41.18" y2="8"/><path class="cls-2" d="M28,8c0-2.75,1.36-5,3-5h10.2"/><path class="cls-2" d="M24.61,47.06h1.24c10.3,0,18.64-1.79,18.64-4L41.18,24.45"/><path class="cls-2" d="M28,8c0,2.75-1.5,5-3.34,5s-3.34-2.23-3.34-5-2-5-3.64-5H15.44c-1.3,0-2.34,1.72-2.34,3.84V24.45L9.59,43.06C9.59,45,14,46.55,21.74,47"/><path class="cls-2" d="M26.59,11.81A6.24,6.24,0,0,1,25.41,8c0-2.75-1.36-5-3-5H16.83"/><path class="cls-2" d="M13.1,24.45c0,1.78,4.79,3.23,13.08,3.23s15-1.45,15-3.23"/><path class="cls-2" d="M13.1,21.82c0,1.78,4.79,3.23,13.08,3.23s15-1.45,15-3.23"/><line class="cls-2" x1="24.61" y1="27.68" x2="24.61" y2="46.91"/><line class="cls-2" x1="23.72" y1="27.63" x2="21.74" y2="46.91"/><line class="cls-3" x1="21.72" y1="27.63" x2="19.74" y2="46.97"/><line class="cls-3" x1="17.72" y1="27.63" x2="15.8" y2="46.32"/><line class="cls-3" x1="13.93" y1="25.67" x2="11.91" y2="45.26"/><line class="cls-3" x1="26.61" y1="27.68" x2="26.61" y2="46.91"/><line class="cls-3" x1="30.61" y1="27.68" x2="31.32" y2="46.91"/><path class="cls-3" d="M36.64,46.33,34.71,27.21"/><line class="cls-3" x1="38.61" y1="26.26" x2="41.99" y2="45.07"/><line class="cls-3" x1="17.1" y1="24.09" x2="17.1" y2="2.93"/><line class="cls-3" x1="21.1" y1="24.45" x2="21.1" y2="6.05"/><line class="cls-3" x1="25.1" y1="24.99" x2="25.1" y2="12.92"/><line class="cls-3" x1="29.1" y1="24.99" x2="29.1" y2="4.1"/><line class="cls-3" x1="33.1" y1="24.45" x2="33.1" y2="2.93"/><line class="cls-3" x1="37.1" y1="24.09" x2="37.1" y2="3.02"/><path class="cls-2" d="M24.61,39.71c-.73,0-1.44,0-2.14.09"/><path class="cls-1" d="M39.22,4.19a2.48,2.48,0,0,1,2-1.17c1.68,0,3,2.23,3,5V18.64L39.48,31.81c-.2.57-1.65.57-3.23,0s-2.69-1.49-2.48-2.06l4.37-12.17V8A6.61,6.61,0,0,1,39.22,4.19Z"/><path class="cls-2" d="M38.14,8c0-2.75,1.36-5,3-5s3,2.23,3,5"/><line class="cls-2" x1="44.22" y1="8" x2="44.22" y2="18.64"/><line class="cls-2" x1="38.14" y1="8" x2="38.14" y2="17.58"/><path class="cls-2" d="M39.48,31.81c-.2.57-1.65.57-3.23,0s-2.69-1.49-2.48-2.06"/><path class="cls-2" d="M33.77,29.75c.2-.56,1.65-.57,3.23,0s2.69,1.49,2.48,2.06"/><line class="cls-2" x1="33.77" y1="29.75" x2="38.14" y2="17.58"/><line class="cls-2" x1="39.48" y1="31.81" x2="44.22" y2="18.64"/><polyline class="cls-3" points="40.14 3.32 40.14 17.93 39.21 20.51 35.99 29.46"/><polyline class="cls-3" points="42.14 3.27 42.14 18.28 41.77 19.3 37.88 30.13"/><line class="cls-2" x1="12.94" y1="3.02" x2="15.98" y2="3.02"/></svg>