<svg id="Half_Plate" data-name="Half Plate" xmlns="http://www.w3.org/2000/svg" viewBox="0 0 50 50"><defs><style>.cls-1,.cls-3{fill:#fff;}.cls-2,.cls-4,.cls-5{fill:none;stroke-miterlimit:10;}.cls-2,.cls-3,.cls-5{stroke:#231f20;stroke-linecap:round;}.cls-3{stroke-linejoin:round;}.cls-4{stroke:#000;}.cls-5{stroke-width:0.5px;}</style></defs><polygon class="cls-1" points="5.96 24.93 2.13 35.88 2.34 37.21 4.77 38.56 8.24 38.87 13.45 26.65 5.96 24.93"/><path class="cls-1" d="M6.44,24.22l.77-2.15V9.86A8.41,8.41,0,0,1,8.58,5a3.19,3.19,0,0,1,2.5-1.5c2.13,0,3.86,2.84,3.86,6.34V23.41l-.88,2.46"/><path class="cls-2" d="M7.21,9.86c0-3.5,1.73-6.34,3.87-6.34s3.86,2.84,3.86,6.34"/><line class="cls-2" x1="14.94" y1="9.86" x2="14.94" y2="23.41"/><line class="cls-2" x1="7.21" y1="9.86" x2="7.21" y2="22.07"/><line class="cls-2" x1="6.88" y1="22.98" x2="7.21" y2="22.07"/><path class="cls-3" d="M15.6,23.42V18h-9V22L5.33,25.21l0,.09.06,0L13.74,28l1.86-4.58"/><line class="cls-4" x1="1.89" y1="36.27" x2="5.91" y2="25.5"/><line class="cls-4" x1="8.47" y1="38.47" x2="12.98" y2="27.75"/><ellipse class="cls-2" cx="5.17" cy="37.45" rx="1.19" ry="3.48" transform="translate(-31.82 29.65) rotate(-70.23)"/><line class="cls-5" x1="6.62" y1="21.29" x2="15.6" y2="20.55"/><line class="cls-5" x1="6.31" y1="22.79" x2="14.06" y2="25.87"/><line class="cls-5" x1="7.89" y1="26.13" x2="4.37" y2="35.98"/><line class="cls-5" x1="10.72" y1="27.16" x2="7.04" y2="37"/><line class="cls-5" x1="9.51" y1="17.97" x2="9.51" y2="4.1"/><line class="cls-5" x1="12.39" y1="17.97" x2="12.39" y2="4.1"/><path class="cls-1" d="M42.94,8.67V40.75c0,1.93-7.29,3.5-16.28,3.5s-14.19-1.57-14.19-3.5V7.43c0-2.3,1.14-4.17,2.54-4.17h2.38l3.43.26h2.55l1.41,1.36.6,1.67L25.8,8l.52,1.6L26.19,11l.52,1.15.72.18.61-.85.82-2.33,0-2.63L30.25,4l.92-.79,3-.17,8.25.17"/><path class="cls-2" d="M42.94,8.67V40.75c0,1.93-7.29,3.5-16.28,3.5s-14.19-1.57-14.19-3.5V7.43c0-2.3,1.14-4.17,2.54-4.17h2.38c1.82,0,3.95,2.42,3.95,5.41S23,14.07,25,14.07s3.62-2.42,3.62-5.4"/><path class="cls-2" d="M42.94,3.26H31.88c-1.82,0-3.3,2.42-3.3,5.41"/><path class="cls-2" d="M27.11,12.8a6.78,6.78,0,0,1-1.29-4.13c0-3-1.47-5.41-3.29-5.41h-6"/><path class="cls-2" d="M12.47,34.76c0,1.93,5.2,3.5,14.19,3.5s16.28-1.57,16.28-3.5"/><path class="cls-2" d="M12.47,31.9c0,1.94,5.2,3.51,14.19,3.51s16.28-1.57,16.28-3.51"/><line class="cls-5" x1="16.81" y1="34.43" x2="16.81" y2="3.17"/><line class="cls-5" x1="21.15" y1="35.44" x2="21.15" y2="6.55"/><line class="cls-5" x1="25.49" y1="35.44" x2="25.49" y2="14"/><line class="cls-5" x1="29.83" y1="30.07" x2="29.83" y2="4.44"/><line class="cls-5" x1="29.83" y1="35.6" x2="29.83" y2="30.07"/><line class="cls-5" x1="33.78" y1="35.02" x2="34.17" y2="3.17"/><line class="cls-2" x1="12.3" y1="3.26" x2="15.6" y2="3.26"/><line class="cls-5" x1="16.81" y1="37.57" x2="16.81" y2="43.37"/><line class="cls-5" x1="21.15" y1="38.22" x2="21.15" y2="43.98"/><line class="cls-5" x1="25.38" y1="38.22" x2="25.38" y2="43.98"/><line class="cls-5" x1="29.83" y1="38.45" x2="29.83" y2="44.25"/><line class="cls-5" x1="33.97" y1="38.07" x2="33.97" y2="43.37"/><line class="cls-5" x1="39.08" y1="37.21" x2="39.08" y2="42.66"/><polygon class="cls-1" points="38.16 24.93 34.33 35.88 34.54 37.21 36.97 38.56 40.44 38.87 45.65 26.65 38.16 24.93"/><path class="cls-1" d="M38.63,24.22l.78-2.15V9.86A8.41,8.41,0,0,1,40.78,5a3.16,3.16,0,0,1,2.49-1.5c2.14,0,3.87,2.84,3.87,6.34V23.41l-.88,2.46"/><path class="cls-2" d="M39.41,9.86c0-3.5,1.73-6.34,3.86-6.34s3.87,2.84,3.87,6.34"/><line class="cls-2" x1="47.14" y1="9.86" x2="47.14" y2="23.41"/><line class="cls-2" x1="39.41" y1="9.86" x2="39.41" y2="22.07"/><line class="cls-2" x1="39.08" y1="22.98" x2="39.41" y2="22.07"/><path class="cls-3" d="M47.8,23.42V18h-9V22l-1.28,3.18,0,.09,0,0L45.94,28l1.86-4.58"/><line class="cls-4" x1="34.09" y1="36.27" x2="38.11" y2="25.5"/><line class="cls-4" x1="40.67" y1="38.47" x2="45.17" y2="27.75"/><ellipse class="cls-2" cx="37.37" cy="37.45" rx="1.19" ry="3.48" transform="translate(-10.51 59.95) rotate(-70.23)"/><line class="cls-5" x1="38.81" y1="21.29" x2="47.8" y2="20.55"/><line class="cls-5" x1="38.51" y1="22.79" x2="46.26" y2="25.87"/><line class="cls-5" x1="40.09" y1="26.13" x2="36.57" y2="35.98"/><line class="cls-5" x1="42.92" y1="27.16" x2="39.24" y2="37"/><line class="cls-5" x1="41.71" y1="17.97" x2="41.71" y2="4.1"/><line class="cls-5" x1="44.59" y1="17.97" x2="44.59" y2="4.1"/><polyline class="cls-3" points="25 27.65 19.63 22.36 19.63 13.86 12.07 10.1 13.23 6.55 22.69 9.03 25 11.34"/><polyline class="cls-3" points="25 27.65 30.37 22.36 30.37 13.86 37.93 10.1 36.77 6.55 27.31 9.03 25 11.34"/><g id="Left_Pauldron" data-name="Left Pauldron"><path class="cls-3" d="M18.26,2.47S5.72,1.08,5.72,10.1c0,1,2.44,1.81,5.47,1.81s5.47-.81,5.47-1.81V6.44c0-2.19.72-4,1.6-4"/></g><path id="Right_Pauldron" data-name="Right Pauldron" class="cls-3" d="M48.13,10.85c0,1.08-3.39,2-7.58,2s-7.58-.87-7.58-2V5.36a3,3,0,0,1,2.6-3C39.91,1.81,48.13,1.88,48.13,10.85Z"/></svg>