<svg xmlns="http://www.w3.org/2000/svg" viewBox="0 0 50 50"><defs><style>.cls-1{fill:#fff;}.cls-1,.cls-3{stroke:#231f20;stroke-miterlimit:10;}.cls-2{fill:#231f20;}.cls-3{fill:none;stroke-width:2px;}</style></defs><g id="Helmet"><path class="cls-1" d="M40.11,48.17S37.72,42.38,35.53,41s-.75-4,2-5.27A13.88,13.88,0,1,0,17.59,23.19a15,15,0,0,0,.8,4.66c1.16,3.6,5,8.14-.27,17.56C18.12,45.41,31.07,45.14,40.11,48.17Z"/><polygon class="cls-1" points="27.88 22.03 44.1 15.79 47.99 22.89 42.81 32.73 27.88 22.03"/><circle class="cls-2" cx="28.09" cy="22.34" r="1.92"/><polyline class="cls-1" points="44.1 15.79 47.99 22.89 42.81 32.73"/><polyline class="cls-3" points="41.1 16.94 44.31 22.82 40.11 30.8"/><polyline class="cls-3" points="36.89 18.34 39.33 22.82 36.48 28.25"/><polyline class="cls-3" points="32.94 20.25 34.35 22.82 32.88 25.61"/><path class="cls-2" d="M25.35,10.34s-1.2-8.51-11.27-8.51a11.54,11.54,0,0,0-11.76,9c-1.83,5.5,5,13.75,5,19.37C7.33,37.58,4,36,3,35a4.8,4.8,0,0,0,4.65,3.7c1.57,0,5.14-2.17,5.14-11.22,0-5.44-1.36-11.65-1.47-13.74-.11-1.92,2.28-4.84,5.11-4.84A10.11,10.11,0,0,1,23.26,12Z"/></g></svg>