<svg id="d20" xmlns="http://www.w3.org/2000/svg" viewBox="0 0 50 50"><defs><style>.cls-1{fill:#fff;}.cls-1,.cls-2{stroke:#231f20;stroke-miterlimit:10;}.cls-2{fill:none;}</style></defs><polygon class="cls-1" points="5.61 14.54 5.61 37.56 25.54 49.06 45.46 37.56 45.46 14.54 25.54 3.04 5.61 14.54"/><polyline class="cls-2" points="45.46 37.56 25.54 40.38 5.61 37.56"/><polyline class="cls-2" points="25.54 3.04 37.95 18.88 45.46 37.56"/><line class="cls-2" x1="25.54" y1="49.06" x2="25.54" y2="40.39"/><line class="cls-2" x1="37.95" y1="18.88" x2="45.46" y2="14.54"/><polyline class="cls-2" points="25.54 3.04 37.95 18.88 45.46 37.56"/><line class="cls-2" x1="37.95" y1="18.88" x2="45.46" y2="14.54"/><polyline class="cls-2" points="25.54 3.04 13.12 18.88 5.61 37.56"/><line class="cls-2" x1="13.12" y1="18.88" x2="5.61" y2="14.54"/><line class="cls-2" x1="25.54" y1="40.39" x2="37.95" y2="18.88"/><line class="cls-2" x1="13.12" y1="18.88" x2="37.95" y2="18.88"/><line class="cls-2" x1="25.54" y1="40.39" x2="13.12" y2="18.88"/></svg>