<svg id="Sling" xmlns="http://www.w3.org/2000/svg" viewBox="0 0 50 50"><defs><style>.cls-1,.cls-2,.cls-4{fill:none;}.cls-1{stroke:#000;stroke-linecap:round;}.cls-1,.cls-4{stroke-miterlimit:10;}.cls-3{fill:#231f20;}.cls-4{stroke:#231f20;}</style></defs><path class="cls-1" d="M9.65,31s7.07-13.19,9.53-15.73,9.5-9.92,13.75-10.79,5.7,1.19,6,2-1.82,5-1.82,5S35.23,13.8,35.62,15s2,1.27,3.33.35.76-2.24,2-2.67,1.42.28,1.56.7a1.12,1.12,0,0,1-.84,1.42c-.85.29-2.38.43-2.75.55"/><line class="cls-2" x1="6.64" y1="37.49" x2="2.54" y2="37.84"/><path class="cls-3" d="M11.71,27.25s-3.17,4.13-4,4.41-.86-.58-2.22-.13-3.88,3.63-3,6.09L3.85,41.7s1.31,4,3.35,4,7.7-4.78,7.47-5.46-1-2.73-1-2.73-1.26-2.46-2.94-1.7-.76,1.06-2,1.47a3.94,3.94,0,0,1-2.1.19s2.25-3.12,2.62-3.86S11.66,28.16,11.71,27.25Z"/><path class="cls-3" d="M14.67,40.26s-.56-2.64,1.13-4.13,3.6-1.06,3.75-3.52a9.63,9.63,0,0,1,1.28-4.23,48.23,48.23,0,0,1-3.78,5.31c-.61.64-.65.22-1.36.46s-.9,1-2.32,1.44a4,4,0,0,1-2.38.15"/><path class="cls-4" d="M18.14,33.61l5.24-11.49s2.49-5.5,6-6.68,1.42,4.19,1.42,4.19S29,25,33.32,25.49s7.48-5,10-5.87a6.76,6.76,0,0,1,1.92.18l.61,1.78s.42,1.06,1.27.61.5-1.33.34-1.81-2.73-.88-3.64-.79"/><circle cx="29.42" cy="36.11" r="2.07"/><circle cx="34.45" cy="34.04" r="2.07"/><circle cx="34.45" cy="39.35" r="2.07"/></svg>