<svg id="Travel_Rations_1_day_" data-name="Travel Rations (1 day)" xmlns="http://www.w3.org/2000/svg" viewBox="0 0 50 50"><defs><style>.cls-1{fill:#fff;stroke:#000;stroke-linejoin:round;}</style></defs><path class="cls-1" d="M44.38,13.1a2.95,2.95,0,0,0-2.46-5,3,3,0,1,0-5.28,1.41L28.18,18l3.87,3.87,8.46-8.46A3,3,0,0,0,44.38,13.1Z"/><path class="cls-1" d="M22.54,46.72a16.91,16.91,0,0,0,2.81-2.25C30,39.77,32.78,30.33,30.41,25c1.91-4.21,3.83-4.3,3.83-4.3H31.83l-.06-2.56H29.3V15.76s-.09,1.92-4.3,3.83c-5.33-2.37-14.77.37-19.47,5.06a16.91,16.91,0,0,0-2.25,2.81"/><ellipse class="cls-1" cx="12.91" cy="37.09" rx="1.79" ry="13.62" transform="translate(-22.45 19.99) rotate(-45)"/><ellipse cx="12.91" cy="37.09" rx="0.41" ry="3.14" transform="translate(-22.45 19.99) rotate(-45)"/></svg>