<?xml version="1.0" encoding="utf-8"?>
<!-- Generator: Adobe Illustrator 24.1.1, SVG Export Plug-In . SVG Version: 6.00 Build 0)  -->
<svg version="1.1" id="d10" xmlns="http://www.w3.org/2000/svg" xmlns:xlink="http://www.w3.org/1999/xlink" x="0px" y="0px"
	 viewBox="0 0 42.6 41.2" style="enable-background:new 0 0 42.6 41.2;" xml:space="preserve">
<style type="text/css">
	.st0{fill:none;stroke:#FFFFFF;stroke-width:2;stroke-miterlimit:10;}
</style>
<polyline class="st0" points="0.5,19.8 0.5,24.8 21.3,40.6 42.1,24.8 42.1,19.8 "/>
<polyline class="st0" points="42.1,24.3 42.1,19.3 21.3,0.7 0.5,19.3 0.5,24.3 "/>
<path class="st0" d="M24.2,6.2"/>
<path class="st0" d="M24.2,6.2"/>
<path class="st0" d="M24.2,40.6"/>
<path class="st0" d="M21.3,27.4"/>
<path class="st0" d="M24.2,6.2"/>
<path class="st0" d="M31.7,1.3"/>
<path class="st0" d="M31.7,1.3"/>
<path class="st0" d="M34.7,41.2"/>
<path class="st0" d="M31.7,1.3"/>
<polyline class="st0" points="0.5,24.8 8.3,22.3 21.3,27.4 "/>
<line class="st0" x1="21.3" y1="27.4" x2="21.3" y2="40.6"/>
<polyline class="st0" points="42.1,24.8 34.3,22.3 21.3,27.4 "/>
<line class="st0" x1="21.3" y1="0.7" x2="8.3" y2="22.3"/>
<line class="st0" x1="21.3" y1="0.7" x2="34.3" y2="22.3"/>
</svg>
