<?xml version="1.0" encoding="utf-8"?>
<!-- Generator: Adobe Illustrator 24.1.1, SVG Export Plug-In . SVG Version: 6.00 Build 0)  -->
<svg version="1.1" id="Layer_1" xmlns="http://www.w3.org/2000/svg" xmlns:xlink="http://www.w3.org/1999/xlink" x="0px" y="0px"
	 viewBox="0 0 39.2 45.2" style="enable-background:new 0 0 39.2 45.2;" xml:space="preserve">
<style type="text/css">
	.st0{fill:none;stroke:#FFFFFF;stroke-width:2;stroke-miterlimit:10;}
	.st1{fill:#CC0000;}
	.st2{fill:none;stroke:#CC0000;stroke-width:3;stroke-linecap:round;stroke-miterlimit:10;}
</style>
<polygon class="st0" points="0.5,11.6 0.5,33.6 19.6,44.7 38.7,33.6 38.7,11.6 19.6,0.6 "/>
<polyline class="st0" points="38.7,33.6 19.6,36.3 0.5,33.6 "/>
<polyline class="st0" points="19.6,0.6 31.5,15.8 38.7,33.6 "/>
<line class="st0" x1="19.6" y1="44.7" x2="19.6" y2="36.3"/>
<line class="st0" x1="31.5" y1="15.8" x2="38.7" y2="11.6"/>
<path class="st0" d="M10.1,17.1"/>
<path class="st0" d="M10.1,17.1"/>
<path class="st0" d="M16.1,28.9"/>
<polyline class="st0" points="19.6,0.6 31.5,15.8 38.7,33.6 "/>
<line class="st0" x1="31.5" y1="15.8" x2="38.7" y2="11.6"/>
<polyline class="st0" points="19.6,0.6 7.7,15.8 0.5,33.6 "/>
<line class="st0" x1="7.7" y1="15.8" x2="0.5" y2="11.6"/>
<line class="st0" x1="19.6" y1="36.3" x2="31.5" y2="15.8"/>
<line class="st0" x1="7.7" y1="15.8" x2="31.5" y2="15.8"/>
<line class="st0" x1="19.6" y1="36.3" x2="7.7" y2="15.8"/>
<g>
	<polygon class="st1" points="14.1,33.9 10.1,36.7 11,31.8 23.9,11.9 27,14 	"/>
	<path class="st1" d="M28.8,13.8l-5.5-3.5c-0.3-0.2-0.7-0.1-0.9,0.2l-0.5,0.8c-0.2,0.3-0.1,0.7,0.2,0.9l5.5,3.5
		c0.3,0.2,0.7,0.1,0.9-0.2l0.5-0.8C29.2,14.4,29.1,14,28.8,13.8z"/>
	<line class="st2" x1="23.9" y1="15.4" x2="28.3" y2="8.5"/>
</g>
<g>
	<polygon class="st1" points="25,33.9 29.1,36.7 28.2,31.8 15.3,11.9 12.1,14 	"/>
	<path class="st1" d="M10.4,13.8l5.5-3.5c0.3-0.2,0.7-0.1,0.9,0.2l0.5,0.8c0.2,0.3,0.1,0.7-0.2,0.9l-5.5,3.5
		c-0.3,0.2-0.7,0.1-0.9-0.2l-0.5-0.8C10,14.4,10.1,14,10.4,13.8z"/>
	<line class="st2" x1="15.3" y1="15.4" x2="10.8" y2="8.5"/>
</g>
</svg>
