<svg id="Air_Bladder" data-name="Air Bladder" xmlns="http://www.w3.org/2000/svg" viewBox="0 0 50 50"><defs><style>.cls-1{fill:#fff;}.cls-1,.cls-3{stroke:#231f20;stroke-linejoin:round;}.cls-2{fill:#231f20;}.cls-3{fill:none;stroke-width:0.5px;}</style></defs><path class="cls-1" d="M26.46,22.81c6-6,6.65-15.08,1.45-20.28-.4-.4-1.8.36-3.14,1.69S22.68,7,23.08,7.36c1.83,5.06.35,11.39-4.2,16"/><path class="cls-1" d="M25,29.46A16.63,16.63,0,0,1,43.27,25.9l5.23-5.24a16.64,16.64,0,0,0-23.52,0"/><path class="cls-1" d="M28,21c7.61,7.62,8,11.07,8,11.18L25.92,42.21s-10.36,11.24-20.4,1.2S6.72,23,6.72,23L16.78,13S20.22,13.23,28,21Z"/><path class="cls-2" d="M33.72,27.66,25.19,36.2S14.83,47.44,4.79,37.4a14.86,14.86,0,0,1-3.32-4.78l0,3.25,1.64,4.48,2.07,2.7L8,45.46l3.25,1.6,3.18.52,3.25-.4,3.74-1.53,4.16-3.08,4.37-4.36L36,32l-.89-2.19Z"/><ellipse class="cls-1" cx="45.88" cy="23.28" rx="3.7" ry="1.28" transform="translate(-3.02 39.26) rotate(-45)"/><path class="cls-3" d="M44.66,17.8a10,10,0,0,0-3.5,2.65,11.54,11.54,0,0,0-1.24,4.36"/><path class="cls-3" d="M37.88,16a10.49,10.49,0,0,0-2.22,4,11.86,11.86,0,0,0,.64,4.62"/><path class="cls-3" d="M30.44,16.85a10.49,10.49,0,0,0,0,4.56,11.94,11.94,0,0,0,2.82,3.73"/><path class="cls-3" d="M27.53,18.56a4.46,4.46,0,0,0-.74-.76A8.92,8.92,0,0,0,23,16.56"/><path class="cls-3" d="M31.23,14.52a8.91,8.91,0,0,0-3.44-2.22,8.93,8.93,0,0,0-4,.64"/><path class="cls-3" d="M30.82,7.08a7.83,7.83,0,0,0-3.93,0,10.6,10.6,0,0,0-3.21,2.82"/></svg>