<svg id="Bear_Trap" data-name="Bear Trap" xmlns="http://www.w3.org/2000/svg" viewBox="0 0 50 50"><defs><style>.cls-1,.cls-3{fill:none;}.cls-1,.cls-2,.cls-3,.cls-5{stroke:#231f20;stroke-linejoin:round;}.cls-1{stroke-linecap:round;stroke-width:3px;}.cls-4{fill:#231f20;}.cls-5{fill:#fff;}</style></defs><line class="cls-1" x1="29.83" y1="24.31" x2="6.45" y2="34.36"/><path class="cls-2" d="M28.73,23.14S37.28,1.31,25,1.31C6.55.74,5.15,33.58,5.15,33.58l3.22,2S9.76,2.76,28.21,3.33c12.29,0,3.73,21.82,3.73,21.82"/><line class="cls-3" x1="32.15" y1="4.44" x2="28.34" y2="2.05"/><path class="cls-2" d="M29,24.05s29.68,9.31,12.1,18.1S6.45,34,6.45,34v4S23.51,55,41.1,46.17,28.57,27.34,28.57,27.34"/><polyline class="cls-4" points="43.99 40.48 41.88 36.24 40.52 42.43"/><polyline class="cls-4" points="36.78 43.81 34.97 38.57 33.36 44.31"/><polyline class="cls-4" points="28.01 44.31 26.26 38.57 24.51 43.99"/><polyline class="cls-4" points="19.54 42.43 19.17 35.94 16.94 41.26"/><polyline class="cls-4" points="13.26 38.81 13.26 34.03 11.72 38.21"/><polyline class="cls-4" points="41.82 29.69 41.45 23.2 39.21 28.52"/><polyline class="cls-4" points="35.33 26.44 35.33 21.66 33.79 25.84"/><polyline class="cls-4" points="45.01 32.21 45.84 26.47 46.07 34.03"/><polyline class="cls-4" points="45.54 38.57 45.54 30.74 46.66 35.94 46.67 40.48"/><ellipse class="cls-5" cx="6.19" cy="34.87" rx="2.74" ry="3.65" transform="translate(-11.21 4.02) rotate(-19.36)"/><line class="cls-3" x1="46.66" y1="35.94" x2="46.66" y2="39.84"/><polyline class="cls-4" points="20.96 5.38 23.93 9.07 17.74 7.72"/><polyline class="cls-4" points="15.13 11.56 19.14 15.4 13.26 14.46"/><polyline class="cls-4" points="11.39 20.06 15.87 24.05 10.21 23.38"/><polyline class="cls-4" points="29.83 3.55 30.59 5.31 25.44 3.66"/><polyline class="cls-4" points="9.24 28.34 12.08 30.83 9.14 29.99"/><polyline class="cls-4" points="34.87 10.43 40.61 13.48 34.84 13.29"/><polyline class="cls-4" points="34.13 17.46 38.47 19.46 34.03 19.11"/><polyline class="cls-4" points="34.61 7.26 38.38 8.24 33.4 5.54"/><ellipse class="cls-5" cx="29.83" cy="24.31" rx="2.95" ry="3.65" transform="translate(-6.37 11.27) rotate(-19.36)"/><line class="cls-1" x1="29.83" y1="24.31" x2="16.51" y2="30.04"/></svg>