<svg id="Bedroll" xmlns="http://www.w3.org/2000/svg" viewBox="0 0 50 50"><defs><style>.cls-1{fill:#fff;}.cls-1,.cls-2,.cls-3{stroke:#231f20;stroke-miterlimit:10;}.cls-3{fill:none;stroke-linecap:round;stroke-width:0.5px;}</style></defs><path class="cls-1" d="M46.48,18.59A45.7,45.7,0,0,1,39,24.83l-2.09,2.09a75,75,0,0,1-5.74,7,22.45,22.45,0,0,1-5,3.73L24,39.77s-.2,1.48-5.42,6.71c-2.11,2.11-7.19.44-11.35-3.72S1.41,33.52,3.52,31.41A40.78,40.78,0,0,1,10.23,26l2.09-2.09a22.45,22.45,0,0,1,3.73-5,75,75,0,0,1,7-5.74l2.09-2.09s1-2.33,6.24-7.53"/><path class="cls-2" d="M39,24.83c-1.93,1.93-6.58.41-10.38-3.4S23.24,13,25.17,11.05l-2.09,2.09c-1.93,1.93-.41,6.58,3.39,10.39s8.46,5.32,10.39,3.39Z"/><ellipse class="cls-1" cx="38.94" cy="11.06" rx="5.4" ry="10.65" transform="translate(3.59 30.78) rotate(-45)"/><path class="cls-2" d="M26.1,37.68c-1.93,1.93-6.58.41-10.38-3.4s-5.33-8.45-3.4-10.38L10.23,26c-1.93,1.93-.41,6.58,3.39,10.39S22.08,41.7,24,39.77Z"/><path class="cls-3" d="M38.61,11.81c-.92-.92-1.33-2-.91-2.44s1.52,0,2.44.91c1.84,1.85,2.65,4,1.81,4.87s-3,0-4.87-1.81c-2.77-2.77-4-6-2.72-7.31s4.54,0,7.31,2.72c3.68,3.69,5.31,8.05,3.62,9.74s-6,.06-9.74-3.63"/></svg>