<svg id="Bellows" xmlns="http://www.w3.org/2000/svg" viewBox="0 0 50 50"><defs><style>.cls-1,.cls-3{fill:#fff;}.cls-1,.cls-2,.cls-3,.cls-4{stroke:#231f20;}.cls-1,.cls-2{stroke-miterlimit:10;}.cls-1{stroke-width:0.75px;}.cls-2,.cls-4{fill:none;}.cls-2{stroke-linecap:round;stroke-width:0.5px;}.cls-3,.cls-4{stroke-linejoin:round;}</style></defs><polyline class="cls-1" points="37.08 7.56 10.71 22.2 16.94 22.76 15.84 27.39 19.77 27.23 19.35 30.69 22.8 30.27 22.65 34.2 27.28 33.1 27.84 39.32 42.35 12.82"/><line class="cls-2" x1="16.94" y1="22.76" x2="27.4" y2="16.34"/><line class="cls-2" x1="19.77" y1="27.23" x2="29.25" y2="18.26"/><line class="cls-2" x1="22.81" y1="30.27" x2="31.56" y2="20.37"/><line class="cls-2" x1="27.28" y1="33.1" x2="33.52" y2="22.29"/><polyline class="cls-3" points="39.78 10.26 42.82 13.3 44.56 9.96 43.79 9.19 48.95 2.93 47.11 1.09 40.85 6.24 40.08 5.47 36.74 7.22 39.78 10.26"/><polygon points="2.12 23.58 6.56 21.14 8.62 21.27 10.57 22.12 2.89 26.54 1.05 24.17 2.12 23.58"/><path class="cls-4" d="M37.08,7.56,2.75,26.62l-1.7-2.45,5.1-2.85c2.58-1.36,3,1.72,6.14,0"/><polygon points="26.35 47.81 28.79 43.37 28.66 41.31 27.81 39.35 23.39 47.03 25.75 48.87 26.35 47.81"/><path class="cls-4" d="M42.41,12.88,23.34,47.22l2.45,1.69,2.85-5.1c1.36-2.58-1.72-3,0-6.14"/></svg>