<svg id="Black_Grease" data-name="Black Grease" xmlns="http://www.w3.org/2000/svg" viewBox="0 0 50 50"><defs><style>.cls-1{fill:#fff;stroke:#231f20;stroke-miterlimit:10;stroke-width:0.75px;}.cls-2{fill:#231f20;}</style></defs><ellipse class="cls-1" cx="28.08" cy="21.48" rx="16.38" ry="19.44" transform="translate(3.27 46.67) rotate(-82.84)"/><ellipse class="cls-1" cx="27.77" cy="24.52" rx="16.38" ry="19.44" transform="translate(-0.02 49.01) rotate(-82.84)"/><ellipse class="cls-1" cx="23.41" cy="21.98" rx="20.89" ry="5.16"/><path class="cls-1" d="M44.3,22c0,2.85-9.35,5.16-20.89,5.16S2.52,24.83,2.52,22V39.79c0,2.85,9.35,5.16,20.89,5.16S44.3,42.64,44.3,39.79Z"/><path class="cls-2" d="M43.16,23.45c0-.19-.1-.45-.68-.2s-.33-1-1.69-2.33-1.66,1.87-3.26,1.87S35.06,19.92,34,19.42s-2.31,1.87-4.19,2.24S27.57,18.71,25.62,18s-2.25,1.57-3.42,1.57-.84,1.7-3.09,2.37S16,18.55,13.87,18.55s-3.35,2.54-4.29,2.54-2.15-.79-3.78-.17a4.78,4.78,0,0,0-2.38,2.33l2.71,1.49,8.29,1.87,10.18.53,8-.57,5-.9L42.22,24Z"/><path class="cls-2" d="M33.38,26.44s-1.51,3.78.64,3.78,3.25-1.49,3.84,0-.13,5.72,1.36,5a2,2,0,0,1,2.87,1.65c0,1-.07,2.82,1.07,2s1.14-1.33,1.14-2-.1-14.46-.1-14.46l-4.52,2.87Z"/><path class="cls-2" d="M2.52,34.38s2.73-1.1,2.73-3.29.65-4.16,1.82-3.76,2.86,1.9,3,.47,5.94,4.67,4.59.26c-.42-1.38,2.22-1.29,2.87-.51s1.23,2,2,1.14,1.3,1.18,2.48.64.42-2.19.42-2.19l-8.2-.64L8,25.59,3.78,24.15,2.52,23Z"/><path class="cls-2" d="M8.65,32.14c-.83.15-1.56-.79-1.37-1.77.1-.54.41-.92,1.19-.5,1.76.94.8,1.75.49,2.13A.5.5,0,0,1,8.65,32.14Z"/><path class="cls-2" d="M10.66,30.55c-.42.07-.78-.4-.69-.89,0-.27.21-.45.6-.24.88.47.4.87.24,1.06A.24.24,0,0,1,10.66,30.55Z"/><path class="cls-2" d="M36.39,30.91c-.72-.29-1.35,1.67-1.19,3.72.09,1.14.36,1.92,1,1a4.12,4.12,0,0,0,.43-4.44A.52.52,0,0,0,36.39,30.91Z"/></svg>