<svg id="Block_and_Tackle" data-name="Block and Tackle" xmlns="http://www.w3.org/2000/svg" viewBox="0 0 50 50"><defs><style>.cls-1,.cls-3,.cls-4,.cls-5,.cls-6{fill:none;}.cls-1,.cls-2,.cls-3{stroke:#231f20;}.cls-1,.cls-6{stroke-linecap:round;}.cls-1,.cls-2,.cls-3,.cls-4,.cls-5,.cls-6{stroke-miterlimit:10;}.cls-1,.cls-4,.cls-6{stroke-width:2px;}.cls-2{fill:#fff;}.cls-4,.cls-5,.cls-6{stroke:#000;}.cls-7{fill:#231f20;}</style></defs><line class="cls-1" x1="3.42" y1="12.72" x2="3.42" y2="23.54"/><ellipse class="cls-2" cx="9.25" cy="11.01" rx="4.72" ry="7.04"/><ellipse class="cls-2" cx="6.95" cy="11.01" rx="4.72" ry="7.04"/><line class="cls-3" x1="6.95" y1="3.96" x2="9.25" y2="3.96"/><line class="cls-3" x1="6.95" y1="18.05" x2="9.25" y2="18.05"/><path class="cls-4" d="M34.9,22.74c-.41,2.63-6.69,14.17-10,13-2.82-1-.11-5.67.88-8.81,1.15-3.67,5.58-10.25.63-12.91-3-1.6-4.95,4.45-8.14,10.65C15.59,29.9,10.42,38.24,7,34.77,5.38,33.2,5.5,24.46,9.25,19.48S12.75,11,12.75,11a10.93,10.93,0,0,0-.4-3.15"/><path d="M12.75,10.39c-.44-.68-.82-1.21-1.2-1.77L10.5,7c-.34-.53-.68-1-1-1.55A6.57,6.57,0,0,0,8.1,4a2.68,2.68,0,0,1,2.39.3,5,5,0,0,1,1.69,1.66A6,6,0,0,1,13,8.07,3.67,3.67,0,0,1,12.75,10.39Z"/><ellipse class="cls-2" cx="41.03" cy="20.83" rx="4.72" ry="7.04"/><ellipse class="cls-2" cx="38.73" cy="20.83" rx="4.72" ry="7.04"/><line class="cls-5" x1="38.73" y1="13.79" x2="41.03" y2="13.79"/><line class="cls-5" x1="38.73" y1="27.88" x2="41.03" y2="27.88"/><path d="M39.88,13.79a4.14,4.14,0,0,1,2.94.78,5.59,5.59,0,0,1,2,2.53,9.56,9.56,0,0,1,.7,3.07c.1,1.06.07,2,.09,2.95,0,1.94-.08,3.88-.22,5.82a45,45,0,0,1-.78,5.83,41.8,41.8,0,0,1-.78-5.83c-.15-1.94-.23-3.88-.22-5.82a23.46,23.46,0,0,0-.26-5.51A5,5,0,0,0,39.88,13.79Z"/><line class="cls-6" x1="44.56" y1="23.3" x2="44.56" y2="33.82"/><path d="M44.4,32.42a2.73,2.73,0,0,0-1.3,2.1c0,1.33,1.37.66,1,3.65-.28,2-.17,3-1.53,3.85C40.36,43.4,40.2,40.21,41,38.24c-.52-1.08-5.94,7.27,1.45,7.78,5.33.36,6.19-4.2,4.54-7.36a6.9,6.9,0,0,1-1-4.49C46,33.19,45.29,31.57,44.4,32.42Z"/><ellipse class="cls-7" cx="6.95" cy="11.01" rx="1.15" ry="1.72"/><ellipse class="cls-7" cx="38.63" cy="20.83" rx="1.15" ry="1.72"/></svg>