<svg id="Book_Reading_" data-name="Book (Reading)" xmlns="http://www.w3.org/2000/svg" viewBox="0 0 50 50"><defs><style>.cls-1{fill:#fff;}.cls-1,.cls-2{stroke:#231f20;stroke-miterlimit:10;}.cls-2{fill:none;}.cls-3{fill:#231f20;}</style></defs><rect class="cls-1" x="6.37" y="2.48" width="37.26" height="45.04" rx="1.91"/><path class="cls-2" d="M6.37,38.21V4.32A1.84,1.84,0,0,1,8.2,2.48H41.8a1.84,1.84,0,0,1,1.83,1.84V38.21a1.84,1.84,0,0,1-1.83,1.85H8.2"/><path class="cls-2" d="M43.63,45c0,1.38-.82,2.51-1.83,2.51H8.2c-1,0-1.83-1.13-1.83-2.51V42.57c0-1.38.82-2.51,1.83-2.51H41.8"/><rect class="cls-3" x="10.91" y="7.37" width="28.17" height="2.93"/><rect class="cls-3" x="10.91" y="13.92" width="28.17" height="2.93"/><rect class="cls-3" x="10.91" y="20.48" width="28.17" height="2.93"/></svg>