<svg id="Bottle_Vial" data-name="Bottle / Vial" xmlns="http://www.w3.org/2000/svg" viewBox="0 0 50 50"><defs><style>.cls-1{fill:#231f20;}.cls-2{fill:#fff;stroke:#231f20;stroke-miterlimit:10;}</style></defs><rect class="cls-1" x="15.19" y="4.59" width="7.1" height="5.44" transform="translate(-0.92 3.06) rotate(-9.1)"/><path class="cls-2" d="M37.26,37.77,24.38,18.3,22.64,7.4,15.07,8.61l1.75,10.9L10.67,42a3.08,3.08,0,0,0,3.47,3.86l21-3.36A3.1,3.1,0,0,0,37.26,37.77Z"/><g id="Vial"><rect class="cls-1" x="33.32" y="8.57" width="5.49" height="4.21" transform="translate(2.25 -5.79) rotate(9.47)"/><path class="cls-2" d="M30.25,11h6.9a0,0,0,0,1,0,0v25a3.45,3.45,0,0,1-3.45,3.45h0a3.45,3.45,0,0,1-3.45-3.45V11a0,0,0,0,1,0,0Z" transform="translate(4.62 -5.2) rotate(9.47)"/></g></svg>