<svg id="Bucket" xmlns="http://www.w3.org/2000/svg" viewBox="0 0 50 50"><defs><style>.cls-1,.cls-3{fill:none;}.cls-1,.cls-2,.cls-3{stroke:#231f20;stroke-miterlimit:10;}.cls-1{stroke-linecap:round;stroke-width:2px;}.cls-2{fill:#fff;}.cls-4{fill:#231f20;}</style></defs><path class="cls-1" d="M45.23,9.29c0,10.36-9.06,18.76-20.23,18.76S4.77,19.65,4.77,9.29"/><path class="cls-2" d="M45.23,9.29,40.84,42c0,2.64-7.09,4.77-15.84,4.77S9.16,44.67,9.16,42L4.77,9.29"/><ellipse class="cls-2" cx="25" cy="9.29" rx="20.23" ry="6.09"/><line class="cls-3" x1="25" y1="15.38" x2="25" y2="46.8"/><line class="cls-3" x1="15.84" y1="45.92" x2="12.25" y2="14.02"/><line class="cls-3" x1="34.16" y1="45.92" x2="37.75" y2="14.02"/><path class="cls-4" d="M43.61,21.09c0,3.37-8.33,6.09-18.61,6.09S6.39,24.46,6.39,21.09l-.88-6.28c0,3.36,8.72,6.09,19.49,6.09s19.49-2.73,19.49-6.09Z"/><path class="cls-4" d="M42.1,33.19c0,3.36-7.66,6.09-17.1,6.09S7.9,36.55,7.9,33.19L7.1,26.9c0,3.37,8,6.1,17.9,6.1s17.9-2.73,17.9-6.1Z"/></svg>