<svg id="Caltrops_Bag_" data-name="Caltrops (Bag)" xmlns="http://www.w3.org/2000/svg" viewBox="0 0 50 50"><defs><style>.cls-1{fill:none;}.cls-1,.cls-2{stroke:#231f20;stroke-miterlimit:10;}.cls-2{fill:#fff;}.cls-3{fill:#231f20;}</style></defs><line class="cls-1" x1="27.6" y1="37.25" x2="30.24" y2="38"/><line class="cls-1" x1="27.6" y1="37.25" x2="27.6" y2="34.25"/><line class="cls-1" x1="27.6" y1="37.25" x2="26.35" y2="39.93"/><line class="cls-1" x1="27.6" y1="37.25" x2="25.1" y2="37.5"/><line class="cls-1" x1="24.8" y1="44.78" x2="27.44" y2="45.53"/><line class="cls-1" x1="24.8" y1="44.78" x2="24.8" y2="41.78"/><line class="cls-1" x1="24.8" y1="44.78" x2="23.55" y2="47.45"/><line class="cls-1" x1="24.8" y1="44.78" x2="22.3" y2="45.02"/><line class="cls-1" x1="35.01" y1="43.62" x2="37.65" y2="44.37"/><line class="cls-1" x1="35.01" y1="43.62" x2="35.01" y2="40.62"/><line class="cls-1" x1="35.01" y1="43.62" x2="33.76" y2="46.3"/><line class="cls-1" x1="35.01" y1="43.62" x2="32.51" y2="43.87"/><line class="cls-1" x1="37.76" y1="35.61" x2="40.4" y2="36.36"/><line class="cls-1" x1="37.76" y1="35.61" x2="37.76" y2="32.61"/><line class="cls-1" x1="37.76" y1="35.61" x2="36.51" y2="38.28"/><line class="cls-1" x1="37.76" y1="35.61" x2="35.26" y2="35.85"/><line class="cls-1" x1="45.69" y1="37.11" x2="48.33" y2="37.86"/><line class="cls-1" x1="45.69" y1="37.11" x2="45.69" y2="34.11"/><line class="cls-1" x1="45.69" y1="37.11" x2="44.44" y2="39.78"/><line class="cls-1" x1="45.69" y1="37.11" x2="43.19" y2="37.35"/><line class="cls-1" x1="20.53" y1="34.7" x2="23.17" y2="35.45"/><line class="cls-1" x1="20.53" y1="34.7" x2="20.53" y2="31.7"/><line class="cls-1" x1="20.53" y1="34.7" x2="19.28" y2="37.38"/><line class="cls-1" x1="20.53" y1="34.7" x2="18.03" y2="34.95"/><line class="cls-1" x1="42.1" y1="44.28" x2="44.75" y2="45.03"/><line class="cls-1" x1="42.1" y1="44.28" x2="42.1" y2="41.28"/><line class="cls-1" x1="42.1" y1="44.28" x2="40.85" y2="46.96"/><line class="cls-1" x1="42.1" y1="44.28" x2="39.6" y2="44.53"/><path class="cls-2" d="M19.17,27s-14.5-.71-16.11-3.47-1-8.37,7.58-13.13c1.43-5.15,4.83-4,9-6.91s10.89,3.05,13.19,4,6.38,6.8,6.61,11.8c.14,3.18-1.3,6-5.84,6.94C31,26.78,23.58,28.49,19.17,27Z"/><path class="cls-2" d="M38.16,19.5a8.73,8.73,0,0,1-4.33-3.82A4.7,4.7,0,0,0,29,13.07c-5.15.59-5,4.86-6.78,6.66s-5,2.28-5,5.41S25,29,26.51,28.2a28.73,28.73,0,0,1,7.81-1.56c1.78,0,7.58-2,7.19-3.52A5.38,5.38,0,0,0,38.16,19.5Z"/><line class="cls-1" x1="31.75" y1="31.54" x2="34.39" y2="32.29"/><line class="cls-1" x1="31.75" y1="31.54" x2="31.75" y2="28.54"/><line class="cls-1" x1="31.75" y1="31.54" x2="30.5" y2="34.21"/><line class="cls-1" x1="31.75" y1="31.54" x2="29.25" y2="31.78"/><path class="cls-3" d="M19.56,27.47c1.05-.06,1.91.81,3,.76.93-.05,1.83,0,2.78-.14,8.6-1,17.7-2.17,15.56-6.45l-1.36-1.5L36.41,18.4l-2.36-2.5-1.72-2.12-2.08-.88-3,.44-2.49,1.89L23,18.53l-1.82,1.91-2.93,2.09-1,2.85Z"/><path class="cls-3" d="M10.64,10.43,7,12.87,3.39,17l-1,2.87.34,2.86,2.11,2C2.75,14,13.68,13.82,13.68,13.82a7,7,0,0,1,4.53-6.05c1.13-.85,2-.32,2.64-1s1.5-2.9,5.75-2.9L24.54,2.55H21.79l-1.56.93-2.38,1.1L15,5.76l-2,1L11.19,8.94Z"/><line class="cls-1" x1="43.43" y1="27.19" x2="46.07" y2="27.94"/><line class="cls-1" x1="43.43" y1="27.19" x2="43.43" y2="24.19"/><line class="cls-1" x1="43.43" y1="27.19" x2="42.18" y2="29.87"/><line class="cls-1" x1="43.43" y1="27.19" x2="40.93" y2="27.44"/></svg>