<svg id="Candles_5" data-name="Candles, 5" xmlns="http://www.w3.org/2000/svg" viewBox="0 0 50 50"><defs><style>.cls-1,.cls-3{fill:none;}.cls-1,.cls-2,.cls-3{stroke:#231f20;stroke-linecap:round;stroke-miterlimit:10;}.cls-2{fill:#fff;}.cls-3{stroke-width:0.5px;}</style></defs><line class="cls-1" x1="32.56" y1="24.99" x2="32.56" y2="23.33"/><path class="cls-2" d="M36.31,35.79V46.3c0,1.16-.71,2.11-1.59,2.11H30.61A1.92,1.92,0,0,1,29,46.3V27.1A1.92,1.92,0,0,1,30.61,25h4.11c.88,0,1.59,1,1.59,2.11l.6,6.62s.18,2.07-.6,2.07c0,0-1.12.54-1.12-2.43"/><path class="cls-3" d="M30.85,39.07c.16,0-.81,5,.38,5.22.67.13.71-1.89.91-1.91"/><path class="cls-2" d="M32.77,24.16c-7.08,0,0-8.33,0-8.33S38.9,24.16,32.77,24.16Z"/><line class="cls-1" x1="26.02" y1="20.59" x2="26.02" y2="18.63"/><path class="cls-2" d="M30.48,33.42V45.9c0,1.38-.86,2.51-1.9,2.51H23.7c-1,0-1.89-1.13-1.89-2.51V23.1c0-1.38.85-2.51,1.89-2.51h4.88c1,0,1.9,1.13,1.9,2.51l.7,7.87s.22,2.45-.7,2.45c0,0-1.34.65-1.34-2.88"/><path class="cls-3" d="M24,37.32c.19,0-1,5.93.45,6.2.79.16.83-2.25,1.08-2.27"/><path class="cls-2" d="M26.27,19.61c-8.42,0,0-9.89,0-9.89S33.55,19.61,26.27,19.61Z"/><line class="cls-1" x1="18.08" y1="15.29" x2="18.08" y2="12.95"/><path class="cls-2" d="M23.39,30.57V45.42c0,1.65-1,3-2.25,3H15.33c-1.24,0-2.26-1.34-2.26-3V18.28c0-1.64,1-3,2.26-3h5.81c1.24,0,2.25,1.35,2.25,3l.84,9.37s.26,2.92-.84,2.92c0,0-1.58.77-1.58-3.44"/><path class="cls-3" d="M15.67,35.21c.23,0-1.15,7,.54,7.38.93.19,1-2.68,1.28-2.7"/><path class="cls-2" d="M18.38,14.12c-10,0,0-11.77,0-11.77S27.05,14.12,18.38,14.12Z"/></svg>