<svg id="Layer_11" data-name="Layer 11" xmlns="http://www.w3.org/2000/svg" viewBox="0 0 50 50"><defs><style>.cls-1,.cls-4{fill:#fff;}.cls-1,.cls-2{stroke:#231f20;stroke-miterlimit:10;}.cls-2{fill:none;}.cls-3{fill:#231f20;}</style></defs><path class="cls-1" d="M26.32,47.1l3.53-3.53a2.33,2.33,0,0,0,.73-1.69V16.28a2.36,2.36,0,0,0-2.34-2.34H10.64A2.29,2.29,0,0,0,9,14.67L5.43,18.2"/><path class="cls-2" d="M26.32,47.1l3.53-3.53a2.33,2.33,0,0,0,.73-1.69V16.28a2.36,2.36,0,0,0-2.34-2.34H10.64A2.29,2.29,0,0,0,9,14.67L5.43,18.2"/><rect class="cls-1" x="19.62" y="4.23" width="22.27" height="30.27" rx="2.34" transform="translate(7.04 -8.17) rotate(17.06)"/><path class="cls-3" d="M38.23,16.83a2.42,2.42,0,0,1-.63.46,1.77,1.77,0,0,0-.79,1c-.19.61-.44,1.53-.75,2.77s-.56,2.17-.74,2.78a1,1,0,0,0,.12.67,1.06,1.06,0,0,1,.08.77q-.14.45-1.41,1.38c-.86.62-1.42.89-1.7.8a2.65,2.65,0,0,1-1.34-1.14,1.91,1.91,0,0,1-.4-1.61,12,12,0,0,1,.6-1.48c.29-.65.49-1.15.6-1.48l-.06-.25c-.73-.36-1.07-.54-1-.52a.77.77,0,0,0-1,.32,6.77,6.77,0,0,0-.38,1.07,1.18,1.18,0,0,0,0,.87,1.78,1.78,0,0,0,.38.39A.37.37,0,0,1,30,24c-.11.36-.63.72-1.54,1.09a3.39,3.39,0,0,1-2,.38,11.11,11.11,0,0,1-2-1.17C23.41,23.61,22.9,23.17,23,23s.27-.26.68-.35a7.92,7.92,0,0,0,1.14-.3,1.21,1.21,0,0,0,.81-.76,6.41,6.41,0,0,0,.22-2.15,19.11,19.11,0,0,0-.22-2,4.59,4.59,0,0,1-.11-1.09,6.59,6.59,0,0,1,2-.64l2.3-.58c.05-.16-.23-.43-.82-.8a5.51,5.51,0,0,0-1.16-.61,1.49,1.49,0,0,0-.49,0,1.36,1.36,0,0,1-.5,0l-.33-.47c.11-.25.92-.54,2.44-.88a7.78,7.78,0,0,1,2.79-.34,3.26,3.26,0,0,1,1.16.7c.54.45.89.73,1,.83L38,16.12l.33.31Zm-7.33-.91a.25.25,0,0,0-.2-.34c-.25-.08-.51.34-.79,1.25-.78,2.54-1.25,4-1.43,4.49a1.43,1.43,0,0,1-.83.67,2.64,2.64,0,0,0-.69.34c0,.14.11.26.46.37.82.25,1.28.2,1.39-.15l.87-2.83.58-1.91Zm2.56,1.8c0-.07,0-.18.09-.35L33.33,17l-1.28-.61a.43.43,0,0,0-.23-.14c-.24-.08-.59.61-1,2.07a.65.65,0,0,0,.24.78,3.19,3.19,0,0,0,.84.36l.46.12C32.72,19.53,33.09,18.92,33.46,17.72Z"/><rect class="cls-4" x="13.81" y="15.7" width="15.01" height="26.89" rx="1.81"/><rect class="cls-1" x="4.74" y="17.51" width="22.27" height="30.27" rx="2.34"/><path class="cls-3" d="M22.27,28a2.2,2.2,0,0,1-.46.62,1.76,1.76,0,0,0-.47,1.19c0,.63,0,1.59.1,2.87s.1,2.24.1,2.87a1,1,0,0,0,.31.6,1.05,1.05,0,0,1,.31.72,4,4,0,0,1-.95,1.73c-.63.84-1.09,1.27-1.39,1.27a2.68,2.68,0,0,1-1.61-.7,1.9,1.9,0,0,1-.85-1.43,13.65,13.65,0,0,1,.13-1.59,13.83,13.83,0,0,0,.14-1.59l-.13-.22c-.8-.13-1.17-.2-1.11-.2a.77.77,0,0,0-.83.59,7.41,7.41,0,0,0-.05,1.13,1.19,1.19,0,0,0,.25.84,2,2,0,0,0,.48.26.37.37,0,0,1,.26.34c0,.38-.39.88-1.16,1.5a3.32,3.32,0,0,1-1.75.94,11,11,0,0,1-2.27-.53c-1.23-.38-1.84-.66-1.84-.83s.18-.32.54-.53a9.13,9.13,0,0,0,1-.62,1.25,1.25,0,0,0,.55-1,6.45,6.45,0,0,0-.42-2.12c-.17-.47-.44-1.08-.79-1.81a4.66,4.66,0,0,1-.42-1,6.21,6.21,0,0,1,1.68-1.19l2-1.23c0-.17-.34-.34-1-.53a5.68,5.68,0,0,0-1.28-.23,1.33,1.33,0,0,0-.48.13,1.3,1.3,0,0,1-.47.14L10,28.1c0-.27.73-.78,2.08-1.55a7.89,7.89,0,0,1,2.56-1.15,3.35,3.35,0,0,1,1.32.33,13.16,13.16,0,0,0,1.24.49l4.67,1.21.4.2ZM15,29.31c0-.18-.1-.28-.3-.28s-.38.48-.38,1.43c0,2.66,0,4.23-.05,4.72a1.45,1.45,0,0,1-.6.88,3.12,3.12,0,0,0-.56.53c0,.14.19.21.55.21.85,0,1.28-.18,1.28-.54v-5Zm3,1c0-.08,0-.2,0-.37l-.33-.33-1.41-.2a.37.37,0,0,0-.25-.07q-.39,0-.39,2.28a.65.65,0,0,0,.46.68,3.24,3.24,0,0,0,.91.09,3.7,3.7,0,0,0,.48,0C17.79,32.22,18,31.53,18,30.28Z"/></svg>