<svg id="Chain_10_ft_" data-name="Chain (10 ft)" xmlns="http://www.w3.org/2000/svg" viewBox="0 0 50 50"><defs><style>.cls-1,.cls-2{fill:none;stroke:#231f20;stroke-miterlimit:10;}.cls-2{stroke-linecap:round;}</style></defs><path class="cls-1" d="M23.49,26.51l-1.11-1.05a1.74,1.74,0,0,1-.13-2.38h0a1.68,1.68,0,0,1,2.43-.1l1.2,1.14"/><path class="cls-2" d="M22.94,23.68a35.69,35.69,0,0,0-5.29-3.95"/><path class="cls-1" d="M14.93,20.17c.45.2.88.47,1.32.71a1.75,1.75,0,0,0,2.3-.57h0a1.67,1.67,0,0,0-.62-2.37c-.49-.27-1-.56-1.48-.8"/><path class="cls-1" d="M14.93,20.17a13.52,13.52,0,0,0-1.34-.62,1.79,1.79,0,0,1-.95-2.16h0a1.64,1.64,0,0,1,2.26-1c.54.2,1,.47,1.55.71"/><path class="cls-2" d="M13.51,17.69a15.5,15.5,0,0,0-3.19-.85A7.56,7.56,0,0,0,7,17"/><path class="cls-1" d="M6.32,19.27c.13-.09.25-.19.37-.29a2.93,2.93,0,0,1,.43-.23A1.44,1.44,0,0,0,7.81,18a2,2,0,0,0,.29-1.23h0a1.49,1.49,0,0,0-.72-1.12,1.94,1.94,0,0,0-1.62,0,7.44,7.44,0,0,0-1,.52c-.3.22-.59.46-.88.7"/><path class="cls-1" d="M6.32,19.27a3.51,3.51,0,0,1-.29.36,3.68,3.68,0,0,0-.23.44,1.48,1.48,0,0,1-.74.69A2,2,0,0,1,3.83,21h0a1.44,1.44,0,0,1-1.12-.72,1.91,1.91,0,0,1,0-1.61,9,9,0,0,1,.52-1l.7-.87"/><path class="cls-2" d="M4,20.14a7.72,7.72,0,0,0-.07,3.28A15,15,0,0,0,4.26,25c.18.52.33,1.05.54,1.56"/><path class="cls-1" d="M7.22,27.88C7,27.44,6.77,27,6.6,26.54a1.78,1.78,0,0,0-2.16-.95h0a1.65,1.65,0,0,0-1,2.26c.21.54.47,1,.71,1.55"/><path class="cls-1" d="M7.22,27.88c.2.45.47.88.71,1.31a1.75,1.75,0,0,1-.57,2.31h0A1.66,1.66,0,0,1,5,30.88c-.28-.49-.57-1-.81-1.48"/><path class="cls-2" d="M6.87,30.73a35.73,35.73,0,0,0,4,5.28"/><path class="cls-1" d="M13.57,36.43l-1.06-1.1a1.73,1.73,0,0,0-2.38-.13h0a1.68,1.68,0,0,0-.1,2.43l1.14,1.2"/><path class="cls-1" d="M13.57,36.43l1.1,1.06a1.73,1.73,0,0,1,.13,2.38h0a1.68,1.68,0,0,1-2.43.1l-1.2-1.14"/><path class="cls-2" d="M14.11,39.27a35.26,35.26,0,0,0,5.3,3.95"/><path class="cls-1" d="M22.12,42.78c-.45-.2-.88-.47-1.31-.71a1.75,1.75,0,0,0-2.31.57h0A1.66,1.66,0,0,0,19.12,45c.49.28,1,.57,1.48.81"/><path class="cls-1" d="M22.12,42.78c.44.21.88.45,1.34.62a1.78,1.78,0,0,1,.95,2.16h0a1.65,1.65,0,0,1-2.26,1c-.54-.21-1-.47-1.55-.71"/><path class="cls-2" d="M23.54,45.26a15.5,15.5,0,0,0,3.19.85A7.41,7.41,0,0,0,30,46"/><path class="cls-1" d="M30.73,43.68a3.51,3.51,0,0,0-.36.29,3.68,3.68,0,0,1-.44.23,1.48,1.48,0,0,0-.69.74A2,2,0,0,0,29,46.17h0a1.44,1.44,0,0,0,.72,1.12,1.91,1.91,0,0,0,1.61,0,9,9,0,0,0,1-.52l.87-.7"/><path class="cls-1" d="M30.73,43.68c.09-.13.19-.25.29-.37a2.93,2.93,0,0,0,.23-.43,1.44,1.44,0,0,1,.74-.69,2,2,0,0,1,1.23-.29h0a1.49,1.49,0,0,1,1.12.72,1.94,1.94,0,0,1,0,1.62,7.44,7.44,0,0,1-.52,1c-.22.3-.46.59-.7.88"/><path class="cls-2" d="M33.06,42.8a7.83,7.83,0,0,0,.08-3.27c-.06-.55-.24-1.08-.35-1.62s-.33-1.06-.54-1.57"/><path class="cls-1" d="M29.83,35.07a13.52,13.52,0,0,1,.62,1.34,1.79,1.79,0,0,0,2.16,1h0a1.64,1.64,0,0,0,1-2.26c-.2-.54-.47-1-.71-1.55"/><path class="cls-1" d="M29.83,35.07c-.2-.45-.47-.88-.71-1.32a1.75,1.75,0,0,1,.57-2.3h0a1.67,1.67,0,0,1,2.37.62c.27.49.56,1,.8,1.48"/><path class="cls-2" d="M30.18,32.22a35.21,35.21,0,0,0-4-5.28"/><path class="cls-1" d="M23.49,26.51l1.05,1.11a1.74,1.74,0,0,0,2.38.13h0a1.68,1.68,0,0,0,.1-2.43l-1.14-1.2"/><path class="cls-1" d="M25.64,24.36l-1.1-1.06a1.73,1.73,0,0,1-.13-2.38h0a1.68,1.68,0,0,1,2.43-.1L28,22"/><path class="cls-2" d="M25.1,21.52a35.26,35.26,0,0,0-5.3-3.95"/><path class="cls-1" d="M17.09,18c.45.2.88.47,1.31.71a1.75,1.75,0,0,0,2.31-.57h0a1.66,1.66,0,0,0-.62-2.36c-.49-.28-1-.57-1.48-.81"/><path class="cls-1" d="M17.09,18c-.44-.21-.88-.45-1.34-.62a1.78,1.78,0,0,1-.95-2.16h0a1.65,1.65,0,0,1,2.26-1c.54.21,1,.47,1.55.71"/><path class="cls-2" d="M15.67,15.53a15.5,15.5,0,0,0-3.19-.85,7.41,7.41,0,0,0-3.28.15"/><path class="cls-1" d="M8.48,17.11a3.51,3.51,0,0,0,.36-.29,3.68,3.68,0,0,1,.44-.23,1.48,1.48,0,0,0,.69-.74,2,2,0,0,0,.28-1.23h0a1.44,1.44,0,0,0-.72-1.12,1.91,1.91,0,0,0-1.61,0A9,9,0,0,0,7,14l-.87.7"/><path class="cls-1" d="M8.48,17.11c-.09.13-.19.25-.29.37a2.93,2.93,0,0,0-.23.43,1.44,1.44,0,0,1-.74.69A2,2,0,0,1,6,18.89H6a1.49,1.49,0,0,1-1.12-.72,1.94,1.94,0,0,1,0-1.62,7.44,7.44,0,0,1,.52-1c.22-.3.46-.59.7-.88"/><path class="cls-2" d="M6.15,18a7.83,7.83,0,0,0-.08,3.27c.06.55.24,1.08.35,1.62s.33,1.05.54,1.57"/><path class="cls-1" d="M9.38,25.72c-.21-.44-.45-.88-.62-1.34a1.79,1.79,0,0,0-2.16-.95h0a1.64,1.64,0,0,0-1,2.26c.2.54.47,1,.71,1.55"/><path class="cls-1" d="M9.38,25.72c.2.45.47.88.71,1.32a1.75,1.75,0,0,1-.57,2.3h0a1.67,1.67,0,0,1-2.37-.62c-.27-.49-.56-1-.8-1.48"/><path class="cls-2" d="M9,28.57a35.21,35.21,0,0,0,4,5.28"/><path class="cls-1" d="M15.72,34.28l-1.05-1.11A1.74,1.74,0,0,0,12.29,33h0a1.68,1.68,0,0,0-.1,2.43l1.14,1.2"/><path class="cls-1" d="M15.72,34.28l1.11,1A1.74,1.74,0,0,1,17,37.71h0a1.68,1.68,0,0,1-2.43.1l-1.2-1.14"/><path class="cls-2" d="M16.27,37.11a35.69,35.69,0,0,0,5.29,4"/><path class="cls-1" d="M24.28,40.62c-.45-.2-.88-.47-1.32-.71a1.75,1.75,0,0,0-2.3.57h0a1.67,1.67,0,0,0,.62,2.37c.49.27,1,.56,1.48.8"/><path class="cls-1" d="M24.28,40.62c.44.21.88.45,1.34.62a1.79,1.79,0,0,1,.95,2.16h0a1.64,1.64,0,0,1-2.26,1c-.54-.2-1-.47-1.55-.71"/><path class="cls-2" d="M25.7,43.1a15.5,15.5,0,0,0,3.19.85,7.41,7.41,0,0,0,3.28-.15"/><path class="cls-1" d="M32.89,41.52c-.13.09-.25.19-.37.29a2.93,2.93,0,0,1-.43.23,1.44,1.44,0,0,0-.69.74A2,2,0,0,0,31.11,44h0a1.49,1.49,0,0,0,.72,1.12,1.94,1.94,0,0,0,1.62,0,7.44,7.44,0,0,0,1-.52c.3-.22.59-.46.88-.7"/><path class="cls-1" d="M32.89,41.52a3.51,3.51,0,0,1,.29-.36,3.68,3.68,0,0,0,.23-.44,1.48,1.48,0,0,1,.74-.69,2,2,0,0,1,1.23-.28h0a1.44,1.44,0,0,1,1.12.72,1.91,1.91,0,0,1,0,1.61,9,9,0,0,1-.52,1l-.7.87"/><path class="cls-2" d="M35.22,40.65a7.72,7.72,0,0,0,.07-3.28A15,15,0,0,0,35,35.75c-.18-.52-.33-1-.54-1.56"/><path class="cls-1" d="M32,32.91c.21.44.45.88.62,1.34a1.78,1.78,0,0,0,2.16,1h0a1.65,1.65,0,0,0,1-2.26c-.21-.54-.47-1-.71-1.55"/><path class="cls-1" d="M32,32.91c-.2-.45-.47-.88-.71-1.31a1.75,1.75,0,0,1,.57-2.31h0a1.66,1.66,0,0,1,2.36.62c.28.49.57,1,.81,1.48"/><path class="cls-2" d="M32.34,30.06a35.73,35.73,0,0,0-4-5.28"/><path class="cls-1" d="M25.64,24.36l1.06,1.1a1.73,1.73,0,0,0,2.38.13h0a1.68,1.68,0,0,0,.1-2.43L28,22"/><path class="cls-1" d="M27.8,22.2l-1.1-1.06a1.74,1.74,0,0,1-.14-2.38h0a1.7,1.7,0,0,1,2.44-.1l1.2,1.14"/><path class="cls-2" d="M27.26,19.37a36.55,36.55,0,0,0-5.3-4"/><path class="cls-1" d="M19.25,15.85c.45.21.87.47,1.31.71A1.75,1.75,0,0,0,22.87,16h0a1.67,1.67,0,0,0-.62-2.36c-.49-.27-1-.57-1.48-.8"/><path class="cls-1" d="M19.25,15.85c-.45-.21-.89-.45-1.34-.62A1.78,1.78,0,0,1,17,13.07h0a1.65,1.65,0,0,1,2.26-1c.54.21,1,.47,1.55.72"/><path class="cls-2" d="M17.82,13.37a15.14,15.14,0,0,0-3.19-.84,7.37,7.37,0,0,0-3.27.14"/><path class="cls-1" d="M10.63,15a2.63,2.63,0,0,0,.37-.29c.13-.1.3-.14.44-.23a1.49,1.49,0,0,0,.69-.73,2,2,0,0,0,.28-1.24h0a1.49,1.49,0,0,0-.72-1.12,1.91,1.91,0,0,0-1.61,0,8.18,8.18,0,0,0-1,.52c-.29.23-.59.46-.87.71"/><path class="cls-1" d="M10.63,15a3.37,3.37,0,0,1-.29.37c-.09.12-.14.29-.23.43a1.47,1.47,0,0,1-.73.7,2.06,2.06,0,0,1-1.23.28h0A1.47,1.47,0,0,1,7,16a1.9,1.9,0,0,1,0-1.62,6.39,6.39,0,0,1,.52-1c.22-.3.46-.59.7-.87"/><path class="cls-2" d="M8.31,15.83a7.88,7.88,0,0,0-.08,3.28c.06.55.24,1.07.35,1.61s.32,1.06.53,1.57"/><path class="cls-1" d="M11.54,23.56a13.52,13.52,0,0,1-.62-1.34,1.79,1.79,0,0,0-2.16-.95h0a1.65,1.65,0,0,0-1,2.27c.2.53.46,1,.71,1.54"/><path class="cls-1" d="M11.54,23.56c.2.45.47.88.71,1.32a1.77,1.77,0,0,1-.57,2.31h0a1.69,1.69,0,0,1-2.37-.62c-.27-.5-.56-1-.8-1.49"/><path class="cls-2" d="M11.18,26.41a35.9,35.9,0,0,0,4,5.28"/><path class="cls-1" d="M17.88,32.12,16.83,31a1.74,1.74,0,0,0-2.38-.13h0a1.69,1.69,0,0,0-.1,2.44l1.14,1.19"/><path class="cls-1" d="M17.88,32.12,19,33.17a1.74,1.74,0,0,1,.13,2.38h0a1.69,1.69,0,0,1-2.44.1l-1.19-1.14"/><path class="cls-2" d="M18.43,35a35.17,35.17,0,0,0,5.29,3.95"/><path class="cls-1" d="M26.44,38.46c-.45-.2-.88-.47-1.32-.71a1.77,1.77,0,0,0-2.31.57h0a1.69,1.69,0,0,0,.62,2.37c.5.27,1,.56,1.49.8"/><path class="cls-1" d="M26.44,38.46a13.52,13.52,0,0,0,1.34.62,1.79,1.79,0,0,1,.95,2.16h0a1.65,1.65,0,0,1-2.27,1c-.53-.2-1-.46-1.54-.71"/><path class="cls-2" d="M27.86,41a15.3,15.3,0,0,0,3.19.84,7.42,7.42,0,0,0,3.28-.14"/><path class="cls-1" d="M35.05,39.37a3.37,3.37,0,0,0-.37.29c-.12.09-.29.14-.43.23a1.47,1.47,0,0,0-.7.73,2.06,2.06,0,0,0-.28,1.23h0A1.47,1.47,0,0,0,34,43a1.9,1.9,0,0,0,1.62,0,6.39,6.39,0,0,0,1-.52c.3-.22.59-.46.87-.7"/><path class="cls-1" d="M35.05,39.37a2.63,2.63,0,0,1,.29-.37c.1-.13.14-.3.23-.44a1.49,1.49,0,0,1,.73-.69,2,2,0,0,1,1.24-.28h0a1.49,1.49,0,0,1,1.12.72,1.91,1.91,0,0,1,0,1.61,8.18,8.18,0,0,1-.52,1c-.23.29-.46.59-.71.87"/><path class="cls-2" d="M37.37,38.49a7.72,7.72,0,0,0,.08-3.28,13,13,0,0,0-.35-1.62c-.17-.52-.32-1.05-.53-1.56"/><path class="cls-1" d="M34.15,30.75c.21.45.45.89.62,1.34a1.78,1.78,0,0,0,2.16.95h0a1.65,1.65,0,0,0,1-2.26c-.21-.54-.47-1-.72-1.55"/><path class="cls-1" d="M34.15,30.75c-.21-.45-.47-.87-.71-1.31A1.75,1.75,0,0,1,34,27.13h0a1.67,1.67,0,0,1,2.36.62c.27.49.57,1,.8,1.48"/><path class="cls-2" d="M34.5,27.91a35.82,35.82,0,0,0-4-5.29"/><path class="cls-1" d="M27.8,22.2l1.06,1.1a1.74,1.74,0,0,0,2.38.14h0a1.7,1.7,0,0,0,.1-2.44L30.2,19.8"/><path class="cls-1" d="M30,20,28.86,19a1.74,1.74,0,0,1-.14-2.38h0a1.69,1.69,0,0,1,2.44-.11l1.19,1.15"/><path class="cls-2" d="M29.41,17.21a35.17,35.17,0,0,0-5.29-4"/><path class="cls-1" d="M21.41,13.69c.45.21.87.47,1.31.71A1.76,1.76,0,0,0,25,13.84h0a1.68,1.68,0,0,0-.62-2.37c-.49-.27-1-.56-1.49-.8"/><path class="cls-1" d="M21.41,13.69c-.45-.21-.89-.44-1.34-.61a1.79,1.79,0,0,1-1-2.16h0a1.65,1.65,0,0,1,2.27-1,16.55,16.55,0,0,1,1.54.71"/><path class="cls-2" d="M20,11.21a15.14,15.14,0,0,0-3.19-.84,7.37,7.37,0,0,0-3.27.14"/><path class="cls-1" d="M12.79,12.79a3.37,3.37,0,0,0,.37-.29c.13-.09.3-.14.44-.23a1.49,1.49,0,0,0,.69-.73,2,2,0,0,0,.28-1.23h0a1.45,1.45,0,0,0-.72-1.12,1.93,1.93,0,0,0-1.62,0,8.9,8.9,0,0,0-1,.52c-.3.23-.59.47-.87.71"/><path class="cls-1" d="M12.79,12.79a3.37,3.37,0,0,1-.29.37c-.09.13-.14.3-.23.44a1.49,1.49,0,0,1-.73.69,2,2,0,0,1-1.23.28h0a1.45,1.45,0,0,1-1.12-.72,1.93,1.93,0,0,1,0-1.62,8.9,8.9,0,0,1,.52-1c.23-.3.47-.59.71-.87"/><path class="cls-2" d="M10.47,13.67A7.89,7.89,0,0,0,10.39,17c.06.55.24,1.08.35,1.61s.32,1.06.53,1.57"/><path class="cls-1" d="M13.69,21.41c-.21-.45-.44-.89-.61-1.34a1.79,1.79,0,0,0-2.16-1h0a1.65,1.65,0,0,0-1,2.27,16.55,16.55,0,0,0,.71,1.54"/><path class="cls-1" d="M13.69,21.41c.21.45.47.87.71,1.31A1.76,1.76,0,0,1,13.84,25h0a1.68,1.68,0,0,1-2.37-.62c-.27-.49-.56-1-.8-1.49"/><path class="cls-2" d="M13.34,24.25a35.9,35.9,0,0,0,4,5.28"/><path class="cls-1" d="M20,30,19,28.86a1.74,1.74,0,0,0-2.38-.14h0a1.69,1.69,0,0,0-.11,2.44l1.15,1.19"/><path class="cls-1" d="M20,30,21.14,31a1.74,1.74,0,0,1,.14,2.38h0a1.69,1.69,0,0,1-2.44.11l-1.19-1.15"/><path class="cls-2" d="M20.59,32.79a35.17,35.17,0,0,0,5.29,4"/><path class="cls-1" d="M28.59,36.31c-.45-.21-.87-.47-1.31-.71a1.76,1.76,0,0,0-2.31.56h0a1.68,1.68,0,0,0,.62,2.37c.49.27,1,.56,1.49.8"/><path class="cls-1" d="M28.59,36.31c.45.21.89.44,1.34.61a1.79,1.79,0,0,1,1,2.16h0a1.65,1.65,0,0,1-2.27,1,16.55,16.55,0,0,1-1.54-.71"/><path class="cls-2" d="M30,38.79a15.14,15.14,0,0,0,3.19.84,7.37,7.37,0,0,0,3.27-.14"/><path class="cls-1" d="M37.21,37.21a3.37,3.37,0,0,0-.37.29c-.13.09-.3.14-.44.23a1.49,1.49,0,0,0-.69.73,2,2,0,0,0-.28,1.23h0a1.45,1.45,0,0,0,.72,1.12,1.93,1.93,0,0,0,1.62,0,8.9,8.9,0,0,0,1-.52c.3-.23.59-.47.87-.71"/><path class="cls-1" d="M37.21,37.21a3.37,3.37,0,0,1,.29-.37c.09-.13.14-.3.23-.44a1.49,1.49,0,0,1,.73-.69,2,2,0,0,1,1.23-.28h0a1.45,1.45,0,0,1,1.12.72,1.93,1.93,0,0,1,0,1.62,8.9,8.9,0,0,1-.52,1c-.23.3-.47.59-.71.87"/><path class="cls-2" d="M39.53,36.33a7.89,7.89,0,0,0,.08-3.28c-.06-.55-.24-1.08-.35-1.61s-.32-1.06-.53-1.57"/><path class="cls-1" d="M36.31,28.59c.21.45.44.89.61,1.34a1.79,1.79,0,0,0,2.16,1h0a1.65,1.65,0,0,0,1-2.27,16.55,16.55,0,0,0-.71-1.54"/><path class="cls-1" d="M36.31,28.59c-.21-.45-.47-.87-.71-1.31A1.76,1.76,0,0,1,36.16,25h0a1.68,1.68,0,0,1,2.37.62c.27.49.56,1,.8,1.49"/><path class="cls-2" d="M36.66,25.75a35.9,35.9,0,0,0-4-5.28"/><path class="cls-1" d="M30,20,31,21.14a1.74,1.74,0,0,0,2.38.14h0a1.69,1.69,0,0,0,.11-2.44l-1.15-1.19"/><path class="cls-1" d="M32.12,17.88,31,16.83a1.74,1.74,0,0,1-.13-2.38h0a1.69,1.69,0,0,1,2.44-.1l1.19,1.14"/><path class="cls-2" d="M31.57,15.05a35.17,35.17,0,0,0-5.29-4"/><path class="cls-1" d="M23.56,11.54c.45.2.88.47,1.32.71a1.77,1.77,0,0,0,2.31-.57h0a1.69,1.69,0,0,0-.62-2.37c-.5-.27-1-.56-1.49-.8"/><path class="cls-1" d="M23.56,11.54a13.52,13.52,0,0,0-1.34-.62,1.79,1.79,0,0,1-.95-2.16h0a1.65,1.65,0,0,1,2.27-1c.53.2,1,.46,1.54.71"/><path class="cls-2" d="M22.14,9.05A15.3,15.3,0,0,0,19,8.21a7.42,7.42,0,0,0-3.28.14"/><path class="cls-1" d="M15,10.63a3.37,3.37,0,0,0,.37-.29c.12-.09.29-.14.43-.23a1.47,1.47,0,0,0,.7-.73,2.06,2.06,0,0,0,.28-1.23h0A1.47,1.47,0,0,0,16,7a1.9,1.9,0,0,0-1.62,0,6.39,6.39,0,0,0-1,.52c-.3.22-.59.46-.87.7"/><path class="cls-1" d="M15,10.63a2.63,2.63,0,0,1-.29.37c-.1.13-.14.3-.23.44a1.49,1.49,0,0,1-.73.69,2,2,0,0,1-1.24.28h0a1.49,1.49,0,0,1-1.12-.72,1.91,1.91,0,0,1,0-1.61,8.18,8.18,0,0,1,.52-1c.23-.29.46-.59.71-.87"/><path class="cls-2" d="M12.63,11.51a7.72,7.72,0,0,0-.08,3.28,13,13,0,0,0,.35,1.62c.17.52.32,1.05.53,1.56"/><path class="cls-1" d="M15.85,19.25c-.21-.45-.45-.89-.62-1.34A1.78,1.78,0,0,0,13.07,17h0a1.65,1.65,0,0,0-1,2.26c.21.54.47,1,.72,1.55"/><path class="cls-1" d="M15.85,19.25c.21.45.47.87.71,1.31A1.75,1.75,0,0,1,16,22.87h0a1.67,1.67,0,0,1-2.36-.62c-.27-.49-.57-1-.8-1.48"/><path class="cls-2" d="M15.5,22.09a35.82,35.82,0,0,0,4,5.29"/><path class="cls-1" d="M22.2,27.8l-1.06-1.1a1.74,1.74,0,0,0-2.38-.14h0a1.7,1.7,0,0,0-.1,2.44l1.14,1.2"/><path class="cls-1" d="M22.2,27.8l1.1,1.06a1.74,1.74,0,0,1,.14,2.38h0a1.7,1.7,0,0,1-2.44.1L19.8,30.2"/><path class="cls-2" d="M22.74,30.63a36.55,36.55,0,0,0,5.3,4"/><path class="cls-1" d="M30.75,34.15c-.45-.21-.87-.47-1.31-.71a1.75,1.75,0,0,0-2.31.57h0a1.67,1.67,0,0,0,.62,2.36c.49.27,1,.57,1.48.8"/><path class="cls-1" d="M30.75,34.15c.45.21.89.45,1.34.62A1.78,1.78,0,0,1,33,36.93h0a1.65,1.65,0,0,1-2.26,1c-.54-.21-1-.47-1.55-.72"/><path class="cls-2" d="M32.18,36.63a15.14,15.14,0,0,0,3.19.84,7.37,7.37,0,0,0,3.27-.14"/><path class="cls-1" d="M39.37,35.05a2.63,2.63,0,0,0-.37.29c-.13.1-.3.14-.44.23a1.49,1.49,0,0,0-.69.73,2,2,0,0,0-.28,1.24h0a1.49,1.49,0,0,0,.72,1.12,1.91,1.91,0,0,0,1.61,0,8.18,8.18,0,0,0,1-.52c.29-.23.59-.46.87-.71"/><path class="cls-1" d="M39.37,35.05a3.37,3.37,0,0,1,.29-.37c.09-.12.14-.29.23-.43a1.47,1.47,0,0,1,.73-.7,2.06,2.06,0,0,1,1.23-.28h0A1.47,1.47,0,0,1,43,34a1.9,1.9,0,0,1,0,1.62,6.39,6.39,0,0,1-.52,1c-.22.3-.46.59-.7.87"/><path class="cls-2" d="M41.69,34.17a7.88,7.88,0,0,0,.08-3.28c-.06-.55-.24-1.07-.35-1.61s-.32-1.06-.53-1.57"/><path class="cls-1" d="M38.46,26.44a13.52,13.52,0,0,1,.62,1.34,1.79,1.79,0,0,0,2.16.95h0a1.65,1.65,0,0,0,1-2.27c-.2-.53-.46-1-.71-1.54"/><path class="cls-1" d="M38.46,26.44c-.2-.45-.47-.88-.71-1.32a1.77,1.77,0,0,1,.57-2.31h0a1.69,1.69,0,0,1,2.37.62c.27.5.56,1,.8,1.49"/><path class="cls-2" d="M38.82,23.59a35.9,35.9,0,0,0-4-5.28"/><path class="cls-1" d="M32.12,17.88,33.17,19a1.74,1.74,0,0,0,2.38.13h0a1.69,1.69,0,0,0,.1-2.44l-1.14-1.19"/><path class="cls-1" d="M34.28,15.72l-1.11-1.05A1.74,1.74,0,0,1,33,12.29h0a1.68,1.68,0,0,1,2.43-.1l1.2,1.14"/><path class="cls-2" d="M33.73,12.89a35.69,35.69,0,0,0-5.29-4"/><path class="cls-1" d="M25.72,9.38c.45.2.88.47,1.32.71a1.75,1.75,0,0,0,2.3-.57h0a1.67,1.67,0,0,0-.62-2.37c-.49-.27-1-.56-1.48-.8"/><path class="cls-1" d="M25.72,9.38c-.44-.21-.88-.45-1.34-.62a1.79,1.79,0,0,1-.95-2.16h0a1.64,1.64,0,0,1,2.26-1c.54.2,1,.47,1.55.71"/><path class="cls-2" d="M24.3,6.9a15.5,15.5,0,0,0-3.19-.85,7.41,7.41,0,0,0-3.28.15"/><path class="cls-1" d="M17.11,8.48c.13-.09.25-.19.37-.29A2.93,2.93,0,0,1,17.91,8a1.44,1.44,0,0,0,.69-.74A2,2,0,0,0,18.89,6h0a1.49,1.49,0,0,0-.72-1.12,1.94,1.94,0,0,0-1.62,0,7.44,7.44,0,0,0-1,.52c-.3.22-.59.46-.88.7"/><path class="cls-1" d="M17.11,8.48a3.51,3.51,0,0,1-.29.36,3.68,3.68,0,0,0-.23.44,1.48,1.48,0,0,1-.74.69,2,2,0,0,1-1.23.28h0a1.44,1.44,0,0,1-1.12-.72,1.91,1.91,0,0,1,0-1.61A9,9,0,0,1,14,7l.7-.87"/><path class="cls-2" d="M14.78,9.35a7.72,7.72,0,0,0-.07,3.28,15,15,0,0,0,.34,1.62c.18.52.33,1.05.54,1.56"/><path class="cls-1" d="M18,17.09c-.21-.44-.45-.88-.62-1.34a1.78,1.78,0,0,0-2.16-.95h0a1.65,1.65,0,0,0-1,2.26c.21.54.47,1,.71,1.55"/><path class="cls-1" d="M18,17.09c.2.45.47.88.71,1.31a1.75,1.75,0,0,1-.57,2.31h0a1.66,1.66,0,0,1-2.36-.62c-.28-.49-.57-1-.81-1.48"/><path class="cls-2" d="M17.66,19.94a35.73,35.73,0,0,0,4,5.28"/><path class="cls-1" d="M24.36,25.64l-1.06-1.1a1.73,1.73,0,0,0-2.38-.13h0a1.68,1.68,0,0,0-.1,2.43L22,28"/><path class="cls-1" d="M24.36,25.64l1.1,1.06a1.73,1.73,0,0,1,.13,2.38h0a1.68,1.68,0,0,1-2.43.1L22,28"/><path class="cls-2" d="M24.9,28.48a35.26,35.26,0,0,0,5.3,3.95"/><path class="cls-1" d="M32.91,32c-.45-.2-.88-.47-1.31-.71a1.75,1.75,0,0,0-2.31.57h0a1.66,1.66,0,0,0,.62,2.36c.49.28,1,.57,1.48.81"/><path class="cls-1" d="M32.91,32c.44.21.88.45,1.34.62a1.78,1.78,0,0,1,1,2.16h0a1.65,1.65,0,0,1-2.26,1c-.54-.21-1-.47-1.55-.71"/><path class="cls-2" d="M34.33,34.47a15.5,15.5,0,0,0,3.19.85,7.41,7.41,0,0,0,3.28-.15"/><path class="cls-1" d="M41.52,32.89a3.51,3.51,0,0,0-.36.29,3.68,3.68,0,0,1-.44.23,1.48,1.48,0,0,0-.69.74,2,2,0,0,0-.28,1.23h0a1.44,1.44,0,0,0,.72,1.12,1.91,1.91,0,0,0,1.61,0,9,9,0,0,0,1-.52l.87-.7"/><path class="cls-1" d="M41.52,32.89c.09-.13.19-.25.29-.37a2.93,2.93,0,0,0,.23-.43,1.44,1.44,0,0,1,.74-.69A2,2,0,0,1,44,31.11h0a1.49,1.49,0,0,1,1.12.72,1.94,1.94,0,0,1,0,1.62,7.44,7.44,0,0,1-.52,1c-.22.3-.46.59-.7.88"/><path class="cls-2" d="M43.85,32a7.83,7.83,0,0,0,.08-3.27c-.06-.55-.24-1.08-.35-1.62s-.33-1.05-.54-1.57"/><path class="cls-1" d="M40.62,24.28c.21.44.45.88.62,1.34a1.79,1.79,0,0,0,2.16.95h0a1.64,1.64,0,0,0,1-2.26c-.2-.54-.47-1-.71-1.55"/><path class="cls-1" d="M40.62,24.28c-.2-.45-.47-.88-.71-1.32a1.75,1.75,0,0,1,.57-2.3h0a1.67,1.67,0,0,1,2.37.62c.27.49.56,1,.8,1.48"/><path class="cls-2" d="M41,21.43a35.21,35.21,0,0,0-4-5.28"/><path class="cls-1" d="M34.28,15.72l1,1.11a1.74,1.74,0,0,0,2.38.13h0a1.68,1.68,0,0,0,.1-2.43l-1.14-1.2"/><path class="cls-1" d="M36.43,13.57l-1.1-1.06a1.73,1.73,0,0,1-.13-2.38h0a1.68,1.68,0,0,1,2.43-.1l1.2,1.14"/><path class="cls-2" d="M35.89,10.73a35.26,35.26,0,0,0-5.3-3.95"/><path class="cls-1" d="M27.88,7.22c.45.2.88.47,1.31.71a1.75,1.75,0,0,0,2.31-.57h0A1.66,1.66,0,0,0,30.88,5c-.49-.28-1-.57-1.48-.81"/><path class="cls-1" d="M27.88,7.22C27.44,7,27,6.77,26.54,6.6a1.78,1.78,0,0,1-.95-2.16h0a1.65,1.65,0,0,1,2.26-1c.54.21,1,.47,1.55.71"/><path class="cls-2" d="M26.46,4.74a15.5,15.5,0,0,0-3.19-.85A7.41,7.41,0,0,0,20,4"/><path class="cls-1" d="M19.27,6.32A3.51,3.51,0,0,0,19.63,6a3.68,3.68,0,0,1,.44-.23,1.48,1.48,0,0,0,.69-.74A2,2,0,0,0,21,3.83h0a1.44,1.44,0,0,0-.72-1.12,1.91,1.91,0,0,0-1.61,0,9,9,0,0,0-1,.52l-.87.7"/><path class="cls-1" d="M19.27,6.32c-.09.13-.19.25-.29.37a2.93,2.93,0,0,0-.23.43,1.44,1.44,0,0,1-.74.69,2,2,0,0,1-1.23.29h0a1.49,1.49,0,0,1-1.12-.72,1.94,1.94,0,0,1,0-1.62,7.44,7.44,0,0,1,.52-1c.22-.3.46-.59.7-.88"/><path class="cls-2" d="M16.94,7.2a7.83,7.83,0,0,0-.08,3.27c.06.55.24,1.08.35,1.62s.33,1.06.54,1.57"/><path class="cls-1" d="M20.17,14.93a13.52,13.52,0,0,1-.62-1.34,1.79,1.79,0,0,0-2.16-.95h0a1.64,1.64,0,0,0-1,2.26c.2.54.47,1,.71,1.55"/><path class="cls-1" d="M20.17,14.93c.2.45.47.88.71,1.32a1.75,1.75,0,0,1-.57,2.3h0a1.67,1.67,0,0,1-2.37-.62c-.27-.49-.56-1-.8-1.48"/><path class="cls-2" d="M19.82,17.78a35.21,35.21,0,0,0,4,5.28"/><path class="cls-1" d="M26.51,23.49l-1.05-1.11a1.74,1.74,0,0,0-2.38-.13h0a1.68,1.68,0,0,0-.1,2.43l1.14,1.2"/><path class="cls-1" d="M26.51,23.49l1.11,1.05a1.74,1.74,0,0,1,.13,2.38h0a1.68,1.68,0,0,1-2.43.1l-1.2-1.14"/><path class="cls-2" d="M27.06,26.32a35.69,35.69,0,0,0,5.29,3.95"/><path class="cls-1" d="M35.07,29.83c-.45-.2-.88-.47-1.32-.71a1.75,1.75,0,0,0-2.3.57h0a1.67,1.67,0,0,0,.62,2.37c.49.27,1,.56,1.48.8"/><path class="cls-1" d="M35.07,29.83a13.52,13.52,0,0,0,1.34.62,1.79,1.79,0,0,1,1,2.16h0a1.64,1.64,0,0,1-2.26,1c-.54-.2-1-.47-1.55-.71"/><path class="cls-2" d="M36.49,32.31a15.5,15.5,0,0,0,3.19.85A7.56,7.56,0,0,0,43,33"/><path class="cls-1" d="M43.68,30.73c-.13.09-.25.19-.37.29a2.93,2.93,0,0,1-.43.23,1.44,1.44,0,0,0-.69.74,2,2,0,0,0-.29,1.23h0a1.49,1.49,0,0,0,.72,1.12,1.94,1.94,0,0,0,1.62,0,7.44,7.44,0,0,0,1-.52c.3-.22.59-.46.88-.7"/><path class="cls-1" d="M43.68,30.73a3.51,3.51,0,0,1,.29-.36,3.68,3.68,0,0,0,.23-.44,1.48,1.48,0,0,1,.74-.69A2,2,0,0,1,46.17,29h0a1.44,1.44,0,0,1,1.12.72,1.91,1.91,0,0,1,0,1.61,9,9,0,0,1-.52,1l-.7.87"/><path class="cls-2" d="M46,29.86a7.72,7.72,0,0,0,.07-3.28A15,15,0,0,0,45.74,25c-.18-.52-.33-1.05-.54-1.56"/><path class="cls-1" d="M42.78,22.12c.21.44.45.88.62,1.34a1.78,1.78,0,0,0,2.16.95h0a1.65,1.65,0,0,0,1-2.26c-.21-.54-.47-1-.71-1.55"/><path class="cls-1" d="M42.78,22.12c-.2-.45-.47-.88-.71-1.31a1.75,1.75,0,0,1,.57-2.31h0a1.66,1.66,0,0,1,2.36.62c.28.49.57,1,.81,1.48"/><path class="cls-2" d="M43.13,19.27a35.73,35.73,0,0,0-4-5.28"/><path class="cls-1" d="M36.43,13.57l1.06,1.1a1.73,1.73,0,0,0,2.38.13h0a1.68,1.68,0,0,0,.1-2.43l-1.14-1.2"/></svg>