<svg id="Chalk_10_pieces_" data-name="Chalk (10 pieces)" xmlns="http://www.w3.org/2000/svg" viewBox="0 0 50 50"><defs><style>.cls-1{fill:#231f20;}.cls-2{fill:#fff;stroke:#231f20;stroke-linecap:round;stroke-miterlimit:10;}</style></defs><path class="cls-1" d="M46.6,32.23c.08,0-.07-.28-.09-.34C46.43,32,46.64,32.3,46.6,32.23Z"/><polygon class="cls-1" points="45.67 33.4 45.65 33.27 45.59 33.63 45.67 33.4"/><path class="cls-1" d="M44.52,33.86c.3.45.39-.25.66-.16l.08.1-.07-.43C45,33.53,44.75,33.93,44.52,33.86Z"/><path class="cls-1" d="M43.48,33c.12.18-.07.22.17,0l0,0A.22.22,0,0,1,43.48,33Z"/><path class="cls-1" d="M43.6,33c.12-.06-.14-.13,0,0Z"/><path class="cls-1" d="M43.09,33.31l.09-.24C43.1,33,43,33,43,32.89,42.85,33.05,42.92,33.15,43.09,33.31Z"/><path class="cls-1" d="M43.07,33.73l.06-.11S43.07,33.57,43.07,33.73Z"/><path class="cls-1" d="M43.25,33.4l-.12.22c0,.08.12.24.06-.08C43.23,33.69,43.21,33.54,43.25,33.4Z"/><path class="cls-1" d="M43.38,33.44c.13.08.27.1.17.33C43.83,33.59,43.65,33.25,43.38,33.44Z"/><path class="cls-1" d="M44.66,34.39l.18.1,0-.21C44.86,34.39,44.59,34.24,44.66,34.39Z"/><path class="cls-1" d="M42,33.41a2.21,2.21,0,0,0,.21.4l.08-.16C42.2,33.6,42.06,33.57,42,33.41Z"/><path class="cls-1" d="M42.21,33.81l-.11.25C42.27,34,42.27,33.93,42.21,33.81Z"/><polygon class="cls-1" points="43.25 34.3 43.4 33.8 43.2 34.32 43.25 34.3"/><polygon class="cls-1" points="41.31 33.64 41.33 33.36 41.28 33.79 41.31 33.64"/><path class="cls-1" d="M40.88,33.84c0-.23-.22-.31-.19-.47a.93.93,0,0,0-.19.49C40.57,33.73,40.69,33.72,40.88,33.84Z"/><path class="cls-1" d="M40.42,34.14a.85.85,0,0,0,.08-.28A1,1,0,0,0,40.42,34.14Z"/><path class="cls-1" d="M41.78,34.12c0-.06-.12-.22-.25-.26l.18.28Z"/><path class="cls-1" d="M41.71,34.14h0l-.16,0Z"/><path class="cls-1" d="M41.8,34.11h0S41.81,34.15,41.8,34.11Z"/><path class="cls-1" d="M42.68,34.2c0,.2-.19.47.11.64C42.79,34.61,42.62,34.51,42.68,34.2Z"/><path class="cls-1" d="M42,34.46h.22a.47.47,0,0,1-.09-.28Z"/><polygon class="cls-1" points="41.96 34.59 42.02 34.46 41.94 34.46 41.96 34.59"/><path class="cls-1" d="M40.84,34.32a.32.32,0,0,1-.21.25.62.62,0,0,0,.36,0C41,34.45,41,34.26,40.84,34.32Z"/><path class="cls-1" d="M41.28,34.26l0,0S41.3,34.31,41.28,34.26Z"/><polygon class="cls-1" points="39.62 34.9 39.66 34.95 39.65 34.9 39.62 34.9"/><path class="cls-1" d="M41,34.6c.11,0,.13-.06.14-.17a.48.48,0,0,1-.17.12C41,34.6,41,34.63,41,34.6Z"/><path class="cls-1" d="M40.19,34.38l.2.12C40.32,34.41,40.18,34.29,40.19,34.38Z"/><path class="cls-1" d="M41.21,34.21v0S41.18,34.17,41.21,34.21Z"/><path class="cls-1" d="M41.21,34.21a.71.71,0,0,0-.05.22.4.4,0,0,0,.1-.15Z"/><path class="cls-1" d="M39.94,37c-.07-.29.06-.62.35-.38.12-.27-.31-1.16-.63-1.63a.5.5,0,0,1-.07.47c.12.13.54.22.46.53s-.24,0-.41-.14c.22.32-.16.62.06,1.12l.16-.26C39.89,36.75,39.85,36.91,39.94,37Z"/><path class="cls-1" d="M40,34.86l.06-.06c-.1,0-.2-.11-.39-.3a.6.6,0,0,0-.06.39l.4-.08Z"/><path class="cls-1" d="M40.44,34.69c0,.32-.1.51.12.81.23-.1.08-.31.17-.49-.34.2.05-.2-.27-.29a.47.47,0,0,1,.17-.15,1.09,1.09,0,0,1-.24-.07h0s0,0,0,0h0a.74.74,0,0,1,0,.12c-.13,0,0-.07,0-.12v0h0l-.32.29C40.19,34.82,40.28,34.78,40.44,34.69Z"/><path class="cls-1" d="M42.83,35.57a.09.09,0,0,1,0-.07S42.79,35.58,42.83,35.57Z"/><path class="cls-1" d="M42.61,35.44s0-.18.09-.18.06.15.1.24c0-.1.1-.28-.12-.37v0a1.09,1.09,0,0,1-.5-.41A3.69,3.69,0,0,0,42.61,35.44Z"/><path class="cls-1" d="M41.54,35.15l-.26.26.25.21-.06-.16C41.66,35.46,41.56,35.28,41.54,35.15Z"/><polygon class="cls-1" points="39.54 34.76 39.48 34.42 39.45 34.94 39.54 34.76"/><polygon class="cls-1" points="39.16 34.92 39.08 34.64 39.03 34.84 39.16 34.92"/><path class="cls-1" d="M25.37,35.17l-.2.13Z"/><path class="cls-1" d="M25.59,35.24l.34-.24A2.76,2.76,0,0,0,25.59,35.24Z"/><path class="cls-1" d="M29.42,36.8c-.12-.29-.24-.72-.24-.39l0,.33C29.3,36.68,29.36,36.72,29.42,36.8Z"/><path class="cls-1" d="M28.43,35.66l-.21.07.5-.1Z"/><path class="cls-1" d="M26,36.28l.5-.16Z"/><path class="cls-1" d="M23.69,35.94l-.25.46A3.86,3.86,0,0,0,23.69,35.94Z"/><path class="cls-1" d="M35.09,36.15a.61.61,0,0,0-.33-.13C34.93,36.18,35.11,36.42,35.09,36.15Z"/><path class="cls-1" d="M30.81,31a.66.66,0,0,0-.28.13A.52.52,0,0,0,30.81,31Z"/><path class="cls-1" d="M34.43,36.1l.08.06a.39.39,0,0,1,.25-.14C34.63,35.91,34.49,35.85,34.43,36.1Z"/><path class="cls-1" d="M13.9,41.07l-.05,0S13.88,41.09,13.9,41.07Z"/><path class="cls-1" d="M8.71,40.54a.43.43,0,0,1,.12-.11S8.76,40.45,8.71,40.54Z"/><path class="cls-1" d="M37.51,35.27c.08-.05,0,0,0,0Z"/><path class="cls-1" d="M38.28,36.38a.3.3,0,0,0,0,.16A.48.48,0,0,1,38.28,36.38Z"/><path class="cls-1" d="M34,38.25h0C34,38.31,34,38.3,34,38.25Z"/><path class="cls-1" d="M37.68,35.37a.35.35,0,0,0-.14-.06Z"/><path class="cls-1" d="M37.62,35.23h.08C37.7,35.18,37.68,35.15,37.62,35.23Z"/><path class="cls-1" d="M37.4,35.32a.22.22,0,0,1,.14,0,.05.05,0,0,1,0,0Z"/><path class="cls-1" d="M19.8,36.58l0,0C19.75,36.72,19.77,36.68,19.8,36.58Z"/><path class="cls-1" d="M26.7,39.89h0l0,0Z"/><path class="cls-1" d="M26.22,40c.33-.32.38-.27.48-.17l.1-.93A8.27,8.27,0,0,1,26.22,40Z"/><path class="cls-1" d="M24.59,35.37l-.35.46A14.46,14.46,0,0,0,23.15,37c.71-.81.79-.86.88-.91a9,9,0,0,0,1-.93l-.32.34s-.1.09-.1.07c-.79.8,1.39-1.22,1.33-1a2.74,2.74,0,0,1-.62.58l.64-.41a1.32,1.32,0,0,1-.38.29L26,35l-.06,0c.38-.25,1-.63,1.31-.79-.28.26-.29.17-.56.38l.72-.36a4.81,4.81,0,0,1-1.28.73c-1.14.82-1,.72-.68.54s.78-.43.11.06l-.39.18c-1.41.9-.85.59-1.79,1.14.55-.27,2.27-1.41,3-1.76-.17.13-.24.19.37-.07-1,.53-.69.42-.59.44l-1.33.67c.41-.16,1.09-.49,1.72-.74a12.23,12.23,0,0,1-2.07,1c-.24.17,1.71-.78,1.9-.76-.57.3-.06.11.56,0-.5.21-.75.26-1.13.41l.92-.3-.48.17c.32-.09,1.21-.42,1.42-.45.63-.21.08,0-.43.2s-1,.36-.37.19l-1.06.33,1.43-.33-.78.27a11.17,11.17,0,0,1,2-.46l.9-.28.22.07a7.44,7.44,0,0,1-.83.18l.17,0a8.29,8.29,0,0,1-1.32.31l.65-.19c-.47.09-1,.22-1.59.37a.46.46,0,0,1,.18,0l-.35.08.27,0-1,.27.38-.09-.79.25c.78-.11,1.79-.21,1.62.07a11.42,11.42,0,0,0-1.45.14c.75-.14-.07-.11.18-.2a3.65,3.65,0,0,1-.57.12,1.8,1.8,0,0,1,.43,0,3.77,3.77,0,0,0-.69.13c1-.13.47.07.63.15-.29,0-.57,0-.39-.09-.4.06-.16.07.06.1s.43.09.11.15c0,0,.08,0,0-.06.17.07-.16.25-.34.17v0a.22.22,0,0,0-.08.1l0,.1,0,0s0,.13,0,.2a1.49,1.49,0,0,0,.22.83,2.09,2.09,0,0,0,.24.31l.22.15a.91.91,0,0,0,.67.16.5.5,0,0,0,.35-.28,6.8,6.8,0,0,1-.4.82,7.4,7.4,0,0,0,1.35-1.88c-.19.53-.18,1.85-.62,2.09a.34.34,0,0,0,.48.06c-.06-.09,0-.81.07-.85.16.65.12.36.39.93-.1-.14.15-1,.3-.91a8,8,0,0,1-.16.92,8.92,8.92,0,0,0,.51-.79,1.53,1.53,0,0,0,0,.95c0-.17.37,0,.49,0l-.17-.21c.48.15.52-1.16.95-1.1-.05.17-.14,1.07.1,1.18a9.44,9.44,0,0,1,.77-2.45l.08.24.26-.29a11.69,11.69,0,0,1-.87,2.6c.18.18.05.29.32.25.1.23-.13.36-.21.38l.63.11c0-.5.45-.53.4-.94l-.64.55c0-.5.31-1.45.72-1.38.13.2,0,.9,0,1.07,0-.17.38-.36.42-.25l-.15.29c.26.16.32-.71.65-.27.1,0,.37.61.35.32A10.07,10.07,0,0,1,32,37.49a5,5,0,0,1,.69.75c.22.43-.08,1.1.11,1.47a.92.92,0,0,1,.07-.38c.12.1,0,.43.24.34,0-.51.44,0,0-.45.19-.18.24.07.49,0a1.91,1.91,0,0,1,.2-1.33,1,1,0,0,0,.13.36c.42,0,.7.17,1.09.08.06.11.28.21.25.45,0-.11.05-.29.17-.33.33.38-.26.13,0,.61,0-.29.23-.47.36-.69-.16-.44-.42,0-.55.22a2.09,2.09,0,0,1,.34-1.7c.28-.23.24.36.27.26.63,0,.24-1.2.84-.88.29.34.21.77.33,1-.22.22-.47-.14-.64-.08l.27.13c0,.15-.2.3-.32.21.25.31,1-.2,1.58,0,0-.15.15-.33,0-.47l-.13.1c-.22-.28.15-.51-.08-.61.14-.27.25-.68.57-.59l.18.43c0-.13-.25-.21-.29,0,.06-.23.6.47.55-.14L38.55,36c.12-.28.22-.82.5-.75-.25-.4,0,.06-.37-.39.34.59-.61.15-.18.75-.34-.54-.37-.17-.74-.6.05.14.16.25-.06.24a.66.66,0,0,1,0,.14h0v0s0,0,0,0a.48.48,0,0,1,.16.19c0,.37-.32.45-.38.65-.14,0,0-.18-.11-.32l-.09.3c-.1-.32-.46-.45-.23-.72l-.25,0c-.2-.14-.42-.16-.51,0-.13,0-.2.44-.17.16l-.34.3,0-.08c-.4,0-.68.72-1.25.23-.12.11-.23.25-.47.19l-.1-.28c-.15.13-.55-.19-.56.12-.32-.75-.83,0-1.14-.13l0,.38a1.08,1.08,0,0,0-.61.31l0,.34c-.19.29-.59-.16-.91-.12,0-.13.1-.1.16,0-.44-.74-.82.59-1.21.06-.09.13-.15.08-.21,0h0a1.08,1.08,0,0,0-.11-.18.43.43,0,0,0,.1.18.63.63,0,0,0-.28.12l0-.36h0c-.09-.14-.09.17,0,.44a.8.8,0,0,0-.15.21c-.05-.58-.28.19-.35-.44,0,.15-.18.2-.31.3a.69.69,0,0,0-.34.51c0-.09,0-.13,0-.13s-.2-.18-.33,0l0-.46q-.16.29-.36.57a.77.77,0,0,1,.1-.79c-.47.47-.28.15-.7.6l.12-.28c-.06,0-.09.08-.16.13s-.13.06,0,0,0,0,0,.06a1,1,0,0,1-.14.15l-.1.08,0,0-.1.06c-.07,0,0,0,0,0h0l.79.12h.16c.12,0,.27,0,.38-.06l.24-.18a12.13,12.13,0,0,1,2.26-1.33c-2,.32,1.17-.41-.26-.24A3.69,3.69,0,0,1,31,35.86c-.06-.13.21-.26.36-.37s.2-.2-.32-.15c.45-.12.58-.08.85-.16-.07,0-.3,0,0-.08a.92.92,0,0,1,.48,0c.11-.26-1.15,0-2.3.29.68-.24.64-.28,0-.15.41-.13.85-.29.85-.2.15-.09.91-.56.11-.33.23-.08.16-.11.09-.1.22-.16.29-.19.38-.32l-.16.08c-.77.22,0-.06,0-.16l.08,0c.81-.49-.09,0,.72-.57l-.43.18c-.42.15-.22,0,0-.16s.54-.43.4-.52l-.21.19c-.17,0,.93-.9.89-1.12,0-.06.13,0,.2,0,.14-.63-.45.14-.77-.07.18-.17.64-.25.52-.45.13-.24-1.27,0-1.08-.39a.71.71,0,0,1-.54.34c-.28,0,.12-.78-.69-.38a.41.41,0,0,1,.1-.13,3,3,0,0,0-1.26.36c.51-.54.08-.46-.33-.3s-.8.34-.28-.24c-.21,0-.41,0-.62.08l.11-.12c-.31-.06-.68.25-1,.59,0-.08.12-.21.18-.28-.39-.16-.53-.12-1.38.69l.19-.43c-.14.15-.26,0-.49,0a1,1,0,0,0-1,.32.7.7,0,0,1,.12-.22c-.43.36-.79.24-1.21.25s-.8.14-.86.9l-.39.54c.56-.13,0,.63.29.76-.14.15-.57-.19-.36-.36l.06.05c0-.37-.24-.35-.41-.31s-.35.12-.43-.1a7,7,0,0,1-1.42.51,6.86,6.86,0,0,0-1.3.44l.35.43-.29.12c-.13-.07-.3-.32-.09-.41-.25-.22-.21.41-.15.51-.49,0-.16-.64-.28-.59l-.14.12.06,0c0,.27.09.48-.16.59s-.24-.26-.3-.24,0,0-.1,0l-.36.15.34.3c0,.27-.32.16.07.5-.6-.53-1.38.48-1.64.36a.7.7,0,0,1-.52.62c.1,0,.39.44.14.52-.43-.91-.62-.14-1.16-.66.4.32-.56.48,0,.91-.22,0-.21-.31-.47-.43-.22.59-1.07.36-1.53.81.06.11.26.23.25.46L12.17,38c-.07.12.31.7-.12.44.08.08.21.19.17.27-1.38.11-1.79,1.78-3.49,1.46.28.12.21.21.1.29.11,0,.18.27.3.41l-.71-.13c.2.47-.44.35-.21.77l.08-.17c.14.59,1,.86,1.33,1.47-.16-.66,1.05.43.87-.54.15.07.07.23.2.34-.09-.31,0-.43.24-.44l0,.08c.48-.41.87-.3,1.57-.52l-.24-.27c.15,0,.24,0,.35.07-.15-.54-.38.21-.57-.38.56.5.91-.56,1.46.06.2-.12-.28-.31-.08-.43l.17.15-.1-.27c.15-.05.37.15.47.3s-.06.11-.08.14c.3.12.42-.37.52-.33h-.26c.42-.52,1.23-.67,1.52-1.37l-.13-.12c.24-.51.42,0,.78-.43v0a.4.4,0,0,1,.2-.4c0,.24.41.21.37.48.27-.54.08-.35.06-1.06l.2.2c0-.27-.08-.39.1-.58-.06.31.36.28.31.67.77.26.39-.93,1-.28-.16-.79-.61-.14-.57-.35-.23-.16-.11-.6.07-.62s.74.72,1.11.5c0,0,0,.07-.05.08.23.1.14-.38.47-.2-.13-.46.24-.1,0-.63l-.28.31c.12-.25,0-1,.46-.84a1.24,1.24,0,0,1,0,.43c.17.1.12-.21.31-.1.25.54-.36.34-.36.85.22.17.19-.59.4,0-.24-.8.41-.11.38-.79l.14.32c0-.07,0-.26.1-.29l.08.48c0-.46.56.09.66-.2-.41.23-.29-.33-.59-.47.3-.69.72.68,1.22.23-.06.09-.39,0-.34-.25a.87.87,0,0,1,.49.19c.27-.21-.19-.31-.16-.57.28.35.06-.22.16-.42l.13.33c.41.06-.15-.76.24-.64,0,.18,0,.36,0,.54a.55.55,0,0,0,.08-.18l.1.41c0-.34.07-.29.16-.2,0-.26-.05-.7.08-.77.08.2,0,.39.11.27-.05.27-.06.59-.12.25,0,.13,0,.26,0,.39s.11,0,.15,0a.16.16,0,0,1,0-.08,4.19,4.19,0,0,1,.25-.66,1.57,1.57,0,0,1-.09.43c0-.06.1-.28.17-.34-.09.37-.18.74-.25.92a3.36,3.36,0,0,1,.2-.44,3.53,3.53,0,0,1-.14.56c-.07.22.42-.8.39-.53a1.18,1.18,0,0,1,.14-.22c.07.05-.23.57.28-.06l-.53.78A16.77,16.77,0,0,1,24.68,35c.35-.29-.5.69-.65.91.35-.42,1.26-1.32.75-.65C24.59,35.43,24.68,35.31,24.59,35.37Zm1.79-.26c-.22.1-.86.44-.34.11C27.11,34.59,26.65,34.91,26.38,35.11Zm.43,1.07c-.17,0,0,0,.27-.11C27.09,36.08,27,36.12,26.81,36.18Zm9.85-.38v0C36.48,35.72,36.54,35.76,36.66,35.8Zm.33.08a.19.19,0,0,0,0-.15c0,.09-.06.11-.14.11S36.92,36,37,35.88Zm-19.22-1,.1.05C17.8,35.12,17.79,35,17.77,34.91Z"/><path class="cls-1" d="M26.24,36.2l.39-.1Z"/><polygon class="cls-1" points="23.74 35.85 23.74 35.84 23.69 35.94 23.74 35.85"/><path class="cls-1" d="M33,39.87a.38.38,0,0,1-.15-.16A.15.15,0,0,0,33,39.87Z"/><path class="cls-1" d="M38.34,34.85l-.16.15c.09,0,.14,0,.2.06S38.28,34.87,38.34,34.85Z"/><path class="cls-1" d="M40.62,36.48s.05,0,.07-.07l-.06-.16C40.51,36.3,40.47,36.45,40.62,36.48Z"/><path class="cls-1" d="M38.86,36c.1.29.19.15.3.06h0C39.05,35.6,39,35.78,38.86,36Z"/><path class="cls-1" d="M39.19,36a.21.21,0,0,1,.12,0C39.27,35.78,39.25,35.93,39.19,36Z"/><path class="cls-1" d="M37.3,35.58c.08.06-.07-.38,0-.27C37.27,34.92,37,35.87,37.3,35.58Z"/><polygon class="cls-1" points="39.25 36.88 39.1 36.53 39.11 36.85 39.25 36.88"/><path class="cls-1" d="M38.13,36.93l.24,0a.16.16,0,0,1,0-.14C38.26,36.85,38.09,36.82,38.13,36.93Z"/><path class="cls-1" d="M38.39,36.82a.16.16,0,0,0,.15-.11A.44.44,0,0,0,38.39,36.82Z"/><polygon class="cls-1" points="39 37.07 38.91 37.02 38.75 37.03 39 37.07"/><path class="cls-1" d="M35.83,37.45l-.21.16c0,.13.09.19.16.12S35.89,37.56,35.83,37.45Z"/><path class="cls-1" d="M36.78,38.28c-.08-.06-.1-.14-.17-.25l.11.45Z"/><path class="cls-1" d="M36.12,38.55c0,.13-.27.44,0,.34C36.15,38.76,36.36,38.61,36.12,38.55Z"/><polygon class="cls-1" points="32.39 38.66 32.45 38.64 32.34 37.89 32.39 38.66"/><path class="cls-1" d="M29.12,40.68c.32.2.08-.47.37-.23.08-.18-.23-.19-.15-.35C29.14,40.29,29,40.17,29.12,40.68Z"/><path class="cls-1" d="M29.34,40.1a.53.53,0,0,0,.09-.11A.35.35,0,0,0,29.34,40.1Z"/><polygon class="cls-1" points="7.91 40.59 7.67 40.56 7.91 40.7 7.91 40.59"/><path class="cls-1" d="M7.94,41.26l-.32-.38.16.43S7.85,41.19,7.94,41.26Z"/><path class="cls-1" d="M23.89,36.61l.32-.16a2.84,2.84,0,0,0,.41-.24Z"/><polygon class="cls-1" points="24.37 35.95 24.36 35.97 25.18 35.24 24.37 35.95"/><path class="cls-1" d="M23.24,36.88s.1-.12.09-.09S23.9,36,23.24,36.88Z"/><path class="cls-2" d="M9,42.2,37.19,14c.61-.62-.28-2.51-2-4.23S31.58,7.19,31,7.8L2.79,36"/><ellipse class="cls-2" cx="5.91" cy="39.08" rx="1.58" ry="4.4" transform="translate(-25.91 15.62) rotate(-45)"/></svg>