<svg id="Cookpots" xmlns="http://www.w3.org/2000/svg" viewBox="0 0 50 50"><defs><style>.cls-1,.cls-2{fill:#fff;}.cls-2,.cls-3{stroke:#231f20;stroke-linecap:round;stroke-miterlimit:10;stroke-width:0.75px;}.cls-3{fill:none;}.cls-4{fill:#231f20;}</style></defs><rect class="cls-1" x="21.28" y="33.36" width="7.44" height="10.57"/><ellipse class="cls-2" cx="25" cy="44.28" rx="3.72" ry="3.11"/><line class="cls-2" x1="21.28" y1="43.93" x2="21.28" y2="34.63"/><line class="cls-2" x1="28.72" y1="43.93" x2="28.72" y2="34.63"/><polyline class="cls-1" points="21.91 29.68 6.07 35.03 8.62 41.52 19.97 37.69"/><ellipse class="cls-2" cx="7.34" cy="38.28" rx="1.01" ry="3.49" transform="translate(-13.59 5.4) rotate(-21.62)"/><line class="cls-3" x1="21.91" y1="29.68" x2="6.07" y2="35.03"/><line class="cls-3" x1="8.62" y1="41.52" x2="19.97" y2="37.69"/><polyline class="cls-1" points="28.09 29.68 43.93 35.03 41.38 41.52 30.03 37.69"/><ellipse class="cls-2" cx="42.66" cy="38.28" rx="3.49" ry="1.01" transform="translate(-8.65 63.82) rotate(-68.38)"/><line class="cls-3" x1="28.09" y1="29.68" x2="43.93" y2="35.03"/><line class="cls-3" x1="41.38" y1="41.52" x2="30.03" y2="37.69"/><ellipse class="cls-2" cx="25" cy="21.59" rx="19.25" ry="16.56"/><path class="cls-4" d="M31.21,8.48s17.71,14.68-9,29.5l2.76.17,4.61-.48,3.8-1.18,4.12-2.33L40,32l1.91-2.46,1.46-2.94.9-3.86-.2-3.55L42.8,15.27,41.27,12.4Z"/><ellipse class="cls-2" cx="25" cy="10.75" rx="19.74" ry="8.14"/><ellipse class="cls-2" cx="25" cy="10.47" rx="13.22" ry="2.96"/></svg>