<svg id="Dice_Set" data-name="Dice Set" xmlns="http://www.w3.org/2000/svg" viewBox="0 0 50 50"><defs><style>.cls-1{fill:#fff;}.cls-1,.cls-2{stroke:#231f20;stroke-miterlimit:10;}.cls-2{fill:none;stroke-width:0.5px;}</style></defs><polygon class="cls-1" points="18.58 20.27 18.58 28.26 25.49 32.25 32.41 28.26 32.41 20.27 25.49 16.28 18.58 20.27"/><line class="cls-2" x1="32.41" y1="28.26" x2="25.49" y2="16.28"/><line class="cls-2" x1="18.58" y1="28.26" x2="25.49" y2="16.28"/><line class="cls-2" x1="32.41" y1="28.26" x2="18.58" y2="28.26"/><line class="cls-2" x1="25.49" y1="28.26" x2="25.49" y2="32.25"/><line class="cls-2" x1="32.41" y1="20.27" x2="28.95" y2="22.27"/><line class="cls-2" x1="18.58" y1="20.27" x2="22.03" y2="22.27"/><line class="cls-2" x1="25.49" y1="28.26" x2="28.95" y2="22.27"/><line class="cls-2" x1="22.03" y1="22.27" x2="28.95" y2="22.27"/><line class="cls-2" x1="25.49" y1="28.26" x2="22.03" y2="22.27"/><polygon class="cls-1" points="35.65 33.49 41.12 25.94 46.6 33.49 41.12 41.05 35.65 33.49"/><line class="cls-2" x1="35.65" y1="33.49" x2="46.6" y2="33.49"/><path class="cls-1" d="M25.31,1.74l-5,9.15a.21.21,0,0,0,.08.28l.1,0h10A.21.21,0,0,0,30.7,11a.3.3,0,0,0,0-.1l-5-9.15a.21.21,0,0,0-.29-.08A.3.3,0,0,0,25.31,1.74Z"/><g id="d6"><polygon class="cls-1" points="35.65 18.82 41.12 20.45 46.59 18.82 46.59 11.67 41.12 10.04 35.65 11.67 35.65 18.82"/><polyline class="cls-2" points="46.59 11.67 41.12 13.29 35.65 11.67"/><line class="cls-2" x1="41.12" y1="20.45" x2="41.12" y2="13.29"/></g><polyline class="cls-1" points="19.57 42.17 19.57 43.66 25.76 48.37 31.96 43.66 31.96 42.17"/><polyline class="cls-1" points="31.96 43.51 31.96 42.02 25.76 36.49 19.57 42.02 19.57 43.51"/><polyline class="cls-2" points="19.57 43.66 21.89 42.92 25.76 44.44"/><line class="cls-2" x1="25.76" y1="44.44" x2="25.76" y2="48.37"/><polyline class="cls-2" points="31.96 43.66 29.63 42.92 25.76 44.44"/><line class="cls-2" x1="25.76" y1="36.49" x2="21.89" y2="42.92"/><line class="cls-2" x1="25.76" y1="36.49" x2="29.63" y2="42.92"/><polygon class="cls-1" points="4.34 13.45 4.34 17.04 6.45 19.95 9.87 21.05 13.28 19.95 15.39 17.04 15.39 13.45 13.28 10.54 9.87 9.44 6.45 10.54 4.34 13.45"/><polygon class="cls-2" points="9.87 11.66 6.42 14.16 7.73 18.22 12 18.22 13.31 14.16 9.87 11.66"/><line class="cls-2" x1="9.87" y1="11.66" x2="9.87" y2="9.43"/><line class="cls-2" x1="13.31" y1="14.16" x2="15.39" y2="13.45"/><line class="cls-2" x1="12" y1="18.22" x2="13.28" y2="19.95"/><line class="cls-2" x1="7.73" y1="18.22" x2="6.45" y2="19.95"/><line class="cls-2" x1="6.42" y1="14.16" x2="4.34" y2="13.45"/><polyline class="cls-1" points="3.94 32.99 3.94 34.48 10.14 39.18 16.33 34.48 16.33 32.99"/><polyline class="cls-1" points="16.33 34.33 16.33 32.84 10.14 27.3 3.94 32.84 3.94 34.33"/><polyline class="cls-2" points="3.94 34.48 6.26 33.73 10.14 35.25"/><line class="cls-2" x1="10.14" y1="35.25" x2="10.14" y2="39.18"/><polyline class="cls-2" points="16.33 34.48 14.01 33.73 10.14 35.25"/><line class="cls-2" x1="10.14" y1="27.3" x2="6.26" y2="33.73"/><line class="cls-2" x1="10.14" y1="27.3" x2="14.01" y2="33.73"/></svg>