<svg id="Drill" xmlns="http://www.w3.org/2000/svg" viewBox="0 0 50 50"><defs><style>.cls-1{fill:#231f20;}.cls-2{fill:#fff;stroke:#231f20;stroke-linejoin:round;}</style></defs><path class="cls-1" d="M10,43.25l6.24-3.88,5.55-5.54a4,4,0,0,0,0-5.59l-7.38-7.38,6.39-6.39,7.38,7.38a4,4,0,0,0,5.59,0l2.79-2.79,1.32-1.32,2.79-2.8L35.06,9.36l-2.8,2.79-1.32,1.32L23.57,6.09a4,4,0,0,0-5.59,0l-12,12a4,4,0,0,0,0,5.58L13.38,31l-2.75,2.76L6.75,40Z"/><path class="cls-2" d="M42.47,11.52a4.64,4.64,0,0,0,5-.82c1.85-1.84,1.51-5.16-.75-7.41S41.14.69,39.3,2.54a4.64,4.64,0,0,0-.82,5c0,1-.45,2.49-3,2.24l4.76,4.76C40,12,41.51,11.54,42.47,11.52Z"/><polygon class="cls-2" points="1.35 48.65 12.31 41 9 37.69 1.35 48.65"/></svg>