<svg id="Face_Paint_Makeup" data-name="Face Paint / Makeup" xmlns="http://www.w3.org/2000/svg" viewBox="0 0 50 50"><defs><style>.cls-1,.cls-4{fill:#231f20;}.cls-1{stroke:#000;}.cls-1,.cls-3{stroke-miterlimit:10;}.cls-2,.cls-3{fill:#fff;stroke:#231f20;}.cls-2{stroke-linejoin:round;}</style></defs><path class="cls-1" d="M34.89,18.48l-7.68-6.2A10.91,10.91,0,0,1,43.27,5.22l-.63,9.85"/><rect class="cls-2" x="37.29" y="16.19" width="8.47" height="13.7" transform="translate(-5.76 18.67) rotate(-23.75)"/><rect class="cls-1" x="22.7" y="26.9" width="4.51" height="4.51"/><path class="cls-3" d="M26.76,46.19c2.22,0,4-3.39,4-7.58S29,31,26.76,31H23.14c-2.21,0-4,3.4-4,7.59s1.79,7.58,4,7.58Z"/><path class="cls-4" d="M30.76,39.13s-1.58-2-2.38-2.08-2.14,1.59-3.15,1.41-1.23-1.3-2.4-1.3-3.69,1.76-3.69,1.76l.09,2.13.73,3.2,1.48,1.32,1.7.62,4.07,0,1.55-.84,1.58-2.72Z"/><rect class="cls-1" x="5.39" y="26.4" width="4.51" height="4.51"/><path class="cls-3" d="M9.46,45.69c2.21,0,4-3.39,4-7.58s-1.8-7.59-4-7.59H5.84c-2.21,0-4,3.4-4,7.59s1.79,7.58,4,7.58Z"/><path class="cls-4" d="M13.46,38.63s-1.58-2-2.38-2.08S8.94,38.14,7.93,38s-1.23-1.29-2.4-1.29-3.69,1.76-3.69,1.76l.09,2.13.73,3.19,1.48,1.33,1.7.62,4.07,0,1.55-.84L13,42.09Z"/><rect class="cls-1" x="14.59" y="5.11" width="4.51" height="4.51"/><path class="cls-3" d="M18.66,24.4c2.21,0,4-3.39,4-7.58s-1.79-7.59-4-7.59H15c-2.21,0-4,3.4-4,7.59s1.79,7.58,4,7.58Z"/><path class="cls-4" d="M22.65,17.34s-1.57-2-2.37-2.08-2.15,1.58-3.16,1.4-1.23-1.29-2.4-1.29S11,17.13,11,17.13l.09,2.13.73,3.19,1.48,1.33,1.7.62,4.07,0,1.55-.84,1.58-2.72Z"/></svg>