<svg id="Fake_Jewels" data-name="Fake Jewels" xmlns="http://www.w3.org/2000/svg" viewBox="0 0 50 50"><defs><style>.cls-1,.cls-3{fill:#fff;}.cls-1,.cls-2,.cls-3,.cls-4{stroke:#231f20;stroke-linejoin:round;}.cls-2,.cls-4{fill:none;}.cls-2,.cls-3{stroke-width:0.5px;}</style></defs><polygon class="cls-1" points="36.59 3.17 26.48 2.12 18.58 8.53 17.53 18.64 23.94 26.54 34.05 27.59 41.94 21.18 42.99 11.07 36.59 3.17"/><polygon class="cls-1" points="33.56 8.77 28.29 8.22 24.17 11.56 23.62 16.83 26.96 20.95 32.24 21.49 36.35 18.15 36.9 12.88 33.56 8.77"/><line class="cls-2" x1="28.29" y1="8.22" x2="26.47" y2="2.12"/><line class="cls-2" x1="33.56" y1="8.76" x2="36.59" y2="3.17"/><line class="cls-2" x1="36.9" y1="12.88" x2="43" y2="11.07"/><line class="cls-2" x1="36.35" y1="18.15" x2="41.94" y2="21.18"/><line class="cls-2" x1="32.24" y1="21.49" x2="34.05" y2="27.59"/><line class="cls-2" x1="26.96" y1="20.95" x2="23.94" y2="26.54"/><line class="cls-2" x1="23.62" y1="16.83" x2="17.53" y2="18.64"/><line class="cls-2" x1="24.17" y1="11.56" x2="18.58" y2="8.53"/><path class="cls-1" d="M45.1,44,30.18,47.88l-3.66-2.15-2.61-10L26.05,32,41,28.16l3.66,2.14,2.61,10Z"/><path class="cls-1" d="M41.78,41.4l-10,2.6-2.44-1.43-1.44-5.5,1.43-2.44,10-2.6,2.44,1.43L43.22,39Z"/><line class="cls-3" x1="29.47" y1="34.61" x2="26.19" y2="32.01"/><line class="cls-3" x1="24.01" y1="36.1" x2="28.01" y2="37.34"/><line class="cls-3" x1="29.31" y1="42.3" x2="26.42" y2="45.33"/><line class="cls-3" x1="31.91" y1="43.98" x2="30.32" y2="47.84"/><line class="cls-3" x1="41.69" y1="41.43" x2="44.96" y2="44.03"/><line class="cls-3" x1="43.15" y1="38.7" x2="47.15" y2="39.93"/><line class="cls-3" x1="41.85" y1="33.73" x2="44.74" y2="30.7"/><line class="cls-3" x1="39.25" y1="32.06" x2="40.84" y2="28.19"/><polygon class="cls-1" points="8.47 13.53 7.06 23.86 14.02 20.63 8.47 13.53"/><polyline class="cls-1" points="8.47 13.53 2.99 18.11 2.75 18.31 7.06 23.86"/><line class="cls-4" x1="8.47" y1="13.53" x2="7.06" y2="23.86"/><polygon class="cls-1" points="13.1 31.55 11.69 41.89 18.65 38.66 13.1 31.55"/><polyline class="cls-1" points="13.1 31.55 7.63 36.13 7.38 36.33 11.69 41.89"/><line class="cls-4" x1="13.1" y1="31.55" x2="11.69" y2="41.89"/></svg>