<svg id="Layer_20" data-name="Layer 20" xmlns="http://www.w3.org/2000/svg" viewBox="0 0 50 50"><defs><style>.cls-1{fill:#fff;}.cls-1,.cls-2{stroke:#231f20;stroke-linejoin:round;}.cls-2{fill:none;stroke-width:0.5px;}.cls-3{fill:#231f20;}</style></defs><path class="cls-1" d="M45.22,3.82s-24.54,15-42.81,40.32l2,2S27.14,15.54,45.22,3.82Z"/><path class="cls-2" d="M45.22,3.82a24.41,24.41,0,0,1,2.37,9.59c0,4.89-7,3.77-9.15,4.45s-8.26,4.1-8.26,6.82,6.16,4.76,7.53,3.11c.92-1.1,5.59-3.79,6.36-1.66s-.39,7.14-5.18,8.8-7.64-1.86-11.06-.78a5.21,5.21,0,0,0-3.69,4.3"/><path class="cls-3" d="M20.14,41.09s-.16,2.35,1,2.35,2-4.2,2-5.13h2.25S24.48,45,21.16,45,20.14,41.09,20.14,41.09Z"/><circle class="cls-3" cx="24.02" cy="38.65" r="1.57"/></svg>