<svg id="Layer_21" data-name="Layer 21" xmlns="http://www.w3.org/2000/svg" viewBox="0 0 50 50"><defs><style>.cls-1,.cls-3{fill:#fff;stroke:#231f20;stroke-miterlimit:10;}.cls-2{fill:#231f20;}.cls-3{stroke-width:0.5px;}</style></defs><path class="cls-1" d="M32.81,27s14.5-.71,16.11-3.47.95-8.37-7.58-13.13c-1.43-5.15-4.83-4-9-6.91s-10.88,3.05-13.18,4-6.38,6.8-6.61,11.8c-.14,3.18,1.3,6,5.83,6.94C21,26.78,28.4,28.49,32.81,27Z"/><path class="cls-1" d="M13.82,19.5a8.73,8.73,0,0,0,4.33-3.82A4.7,4.7,0,0,1,23,13.07c5.15.59,5,4.86,6.78,6.66s5,2.28,5,5.41S27,29,25.47,28.2a28.73,28.73,0,0,0-7.81-1.56c-1.78,0-7.58-2-7.19-3.52A5.38,5.38,0,0,1,13.82,19.5Z"/><path class="cls-2" d="M32.42,27.47c-1.05-.06-1.91.81-3,.76-.93-.05-1.83,0-2.78-.14C18,27.06,8.91,25.92,11,21.64l1.37-1.5,3.16-1.74,2.36-2.5,1.72-2.12,2.08-.88,3,.44,2.49,1.89L29,18.53l1.82,1.91,2.93,2.09,1,2.85Z"/><path class="cls-2" d="M41.34,10.43,45,12.87,48.58,17l1,2.87-.34,2.86-2.11,2C49.23,14,38.3,13.82,38.3,13.82a7,7,0,0,0-4.53-6.05c-1.13-.85-2-.32-2.64-1s-1.5-2.9-5.75-2.9l2.06-1.34h2.75l1.56.93,2.38,1.1L37,5.76l2,1,1.86,2.21Z"/><circle class="cls-3" cx="12.1" cy="35.84" r="2.84"/><circle class="cls-3" cx="20.61" cy="27" r="2.84"/><circle class="cls-3" cx="6.01" cy="26.18" r="2.84"/><circle class="cls-3" cx="26.74" cy="35.51" r="2.84"/><circle class="cls-3" cx="20.07" cy="44.48" r="2.84"/><circle class="cls-3" cx="4.7" cy="43.63" r="2.84"/><circle class="cls-3" cx="33.39" cy="43.14" r="2.84"/></svg>