<svg id="Grappling_Hook" data-name="Grappling Hook" xmlns="http://www.w3.org/2000/svg" viewBox="0 0 50 50"><defs><style>.cls-1{fill:#231f20;}</style></defs><path class="cls-1" d="M19,7.06a13.38,13.38,0,0,1,5.86-3.71,9.86,9.86,0,0,1,3.89-.43,7.83,7.83,0,0,1,2.15.52A8.27,8.27,0,0,1,32,4c.27.18.55.35.82.56a11.76,11.76,0,0,1,2.9,3.05,11.63,11.63,0,0,1,1.66,4.11A14.42,14.42,0,0,1,37.48,16a16.47,16.47,0,0,1-.37,2.1c-.09.34-.18.69-.29,1l-.19.53a6.66,6.66,0,0,1-.26.64l-7-3.88c0,.08.06-.05.1-.1l.15-.22c.1-.15.2-.32.29-.49a9.4,9.4,0,0,0,.5-1.07,8.17,8.17,0,0,0,.52-2.2,5.81,5.81,0,0,0-1.42-4.22c-.13-.17-.29-.33-.44-.49a4.91,4.91,0,0,0-.33-.41,3.57,3.57,0,0,0-.9-.69,6.63,6.63,0,0,0-2.64-.73A12.14,12.14,0,0,0,19,7.06Z"/><polygon class="cls-1" points="35.69 20.12 10.58 41.15 8.05 38.43 30.85 14.91 35.69 20.12"/><path class="cls-1" d="M8.22,40.73S8.28,45.4,6,45.5H6A2.13,2.13,0,0,1,4,43.89c-.37-2.25,4.2-3.16,4.2-3.16m2.47-3-3,.59c-3.2.65-6.75,2.61-6.18,6A4.6,4.6,0,0,0,6,48h.17c3.46-.15,4.64-4,4.6-7.29l0-3Z"/><path class="cls-1" d="M33.85,36.22A12.27,12.27,0,0,0,38.54,32a6.61,6.61,0,0,0,1-2.55,3.61,3.61,0,0,0,0-1.14c0-.18-.08-.31-.13-.51s-.07-.43-.13-.64a5.79,5.79,0,0,0-2.53-3.66,7.87,7.87,0,0,0-2.07-.9,9.22,9.22,0,0,0-1.16-.25,5.51,5.51,0,0,0-.57-.06h-.27s-.21,0-.13,0l1.07-7.93a6.61,6.61,0,0,1,.68.17l.53.18c.35.12.68.25,1,.38a16.1,16.1,0,0,1,1.9,1,14.38,14.38,0,0,1,3.39,2.72,11.75,11.75,0,0,1,2.31,3.79,12,12,0,0,1,.7,4.15c0,.34,0,.67,0,1a8,8,0,0,1-.21,1.13,8.06,8.06,0,0,1-.86,2,9.94,9.94,0,0,1-2.67,2.86A13.53,13.53,0,0,1,33.85,36.22Z"/><path class="cls-1" d="M47.72,17.57a3.1,3.1,0,0,0-2.8-2.43,3.19,3.19,0,0,0-1.6.2,7.12,7.12,0,0,1-.71.31,5.29,5.29,0,0,0-.82.29,6.33,6.33,0,0,0-2.53,1.88,6.39,6.39,0,0,0-.8,1.26,5.21,5.21,0,0,0-.28.66c0,.11-.06.22-.09.32s-.07.25,0,.14L30.78,17a8,8,0,0,1,.53-.85c.17-.21.33-.43.5-.62a12.59,12.59,0,0,1,1.06-1.12,12.46,12.46,0,0,1,2.41-1.81,12.31,12.31,0,0,1,5.54-1.71,10.74,10.74,0,0,1,1.39,0,4.58,4.58,0,0,1,1.51.28,6.82,6.82,0,0,1,2.61,1.55,5.71,5.71,0,0,1,1.49,2.36A3.42,3.42,0,0,1,47.72,17.57Z"/></svg>