<svg id="Holy_Water" data-name="Holy Water" xmlns="http://www.w3.org/2000/svg" viewBox="0 0 50 50"><defs><style>.cls-1{fill:#231f20;}.cls-2{fill:#fff;stroke:#231f20;stroke-linecap:round;stroke-linejoin:round;}</style></defs><rect class="cls-1" x="21.95" y="1.95" width="6.11" height="28.96"/><rect class="cls-1" x="21.95" y="2.24" width="6.11" height="14.95" transform="translate(34.72 -15.28) rotate(90)"/><path class="cls-2" d="M25,19.21l-4.72-1.74v5l-9.54,6.73V44.1a3.83,3.83,0,0,0,3.69,3.95H25"/><path class="cls-2" d="M25,19.21l4.72-1.74v5l9.54,6.73V44.1a3.83,3.83,0,0,1-3.69,3.95H25"/><path class="cls-1" d="M10.74,30H39.26V44.08a3.85,3.85,0,0,1-3.71,4H14.45a3.85,3.85,0,0,1-3.71-4Z"/></svg>