<svg id="Horn" xmlns="http://www.w3.org/2000/svg" viewBox="0 0 50 50"><defs><style>.cls-1,.cls-2{fill:#fff;}.cls-1,.cls-3{stroke:#231f20;stroke-miterlimit:10;}.cls-3{fill:none;}.cls-4{fill:#231f20;}</style></defs><path class="cls-1" d="M18.78,24.56A47.7,47.7,0,0,0,11.12,30L2.4,38.74,5.59,39l1.65.86s5.07-6.27,11-8.89"/><path class="cls-2" d="M33.67,25.2c5.6.05,6.74,7.27,3,9.52-4.36,2.61-7-.14-7.55-2a5.34,5.34,0,0,1,2-5.64l6.11-4.54,8.89-6.84L34.31,3.93,23.7,16c-7.33,7.77-7.63,19.32-.67,25.79,5.58,5.18,14.92,4.4,20.72-1.89s3.9-17-4.36-19"/><line class="cls-3" x1="34.31" y1="3.93" x2="22.35" y2="17.49"/><path class="cls-3" d="M33.67,25.2c5.6.05,6.74,7.27,3,9.52-4.36,2.61-7-.14-7.55-2a5.34,5.34,0,0,1,2-5.64l6.11-4.54,8.89-6.84"/><path class="cls-3" d="M23.7,16c-7.33,7.77-7.63,19.32-.67,25.79,5.58,5.18,14.92,4.4,20.72-1.89s3.9-17-4.36-19"/><ellipse class="cls-1" cx="40.2" cy="9.83" rx="2.6" ry="8.34" transform="translate(4.82 31.31) rotate(-45)"/><path class="cls-4" d="M8.61,32.53a2.65,2.65,0,0,1,3.05,2.9l-.83.69L7.24,39.88,5.59,39,2.4,38.74Z"/></svg>