<svg id="Hourglass" xmlns="http://www.w3.org/2000/svg" viewBox="0 0 50 50"><defs><style>.cls-1,.cls-2{fill:#fff;stroke:#231f20;}.cls-1{stroke-miterlimit:10;}.cls-2{stroke-linejoin:round;}.cls-3{fill:#231f20;}</style></defs><path class="cls-1" d="M41.8,39.86v3c0,1.9-7.52,3.45-16.8,3.45S8.2,44.8,8.2,42.9v-3"/><ellipse class="cls-1" cx="25" cy="39.86" rx="16.8" ry="3.45"/><path class="cls-2" d="M38.23,11.7S36.81,25,24.49,25,11.77,39.86,11.77,39.86A59.66,59.66,0,0,0,25,41.44a59.66,59.66,0,0,0,13.23-1.58S37.83,25,25.51,25,11.77,11.7,11.77,11.7"/><path class="cls-1" d="M41.8,7.1v3c0,1.91-7.52,3.45-16.8,3.45S8.2,12.05,8.2,10.14v-3"/><ellipse class="cls-1" cx="25" cy="7.1" rx="16.8" ry="3.45"/><path class="cls-3" d="M34.69,29.38c0-.4-4.8-.73-9.69-.73s-9.82.33-9.82.73l-.87,2.28-1.79,4.07-.61,2.86L11.77,40l2.51.49s3.78.57,4,.57,5.88.4,5.88.4l3.15,0L31.72,41l4.42-.64L38.23,40,38,37.73l-1-3.56-1.31-2.59Z"/></svg>