<svg id="Incense_packet_" data-name="Incense (packet)" xmlns="http://www.w3.org/2000/svg" viewBox="0 0 50 50"><defs><style>.cls-1{fill:none;stroke-linecap:round;stroke-width:2px;}.cls-1,.cls-2{stroke:#231f20;stroke-linejoin:round;}.cls-2{fill:#fff;}</style></defs><line class="cls-1" x1="22.3" y1="15.32" x2="27.38" y2="1.64"/><line class="cls-1" x1="26.32" y1="16.81" x2="31.41" y2="3.14"/><line class="cls-1" x1="30.34" y1="18.31" x2="35.43" y2="4.63"/><line class="cls-1" x1="34.37" y1="19.8" x2="39.45" y2="6.13"/><path class="cls-2" d="M13.25,44.88l8.66,3.22a4.15,4.15,0,0,0,5.33-2.44l8.22-22.11A4.16,4.16,0,0,0,31.86,18l-8.08-.56-.28,0-.92-.13a4.14,4.14,0,0,0-4.47,2.66l-7.3,19.65A4.14,4.14,0,0,0,13.25,44.88Z"/><path class="cls-2" d="M21.71,12.89,36.4,18.35a2.5,2.5,0,0,1,1.48,3.21l-.46,1.24a2.5,2.5,0,0,1-2.5,1.62L16.78,23.33l-1.58-.1,3.29-8.87A2.49,2.49,0,0,1,21.71,12.89Z"/></svg>