<svg id="Layer_29" data-name="Layer 29" xmlns="http://www.w3.org/2000/svg" viewBox="0 0 50 50"><defs><style>.cls-1{fill:#fff;}.cls-1,.cls-2{stroke:#231f20;stroke-linejoin:round;}.cls-3{fill:#231f20;}</style></defs><path class="cls-1" d="M6.33,35.71,18,9.46l1.56-.19s.72-3.59,2.66-5.53,5.48-2,6.13-1.39a3.11,3.11,0,0,1-.16,3.48l-4.46,4.45s-1.37,1.22-2.09.5l0,2.36L10,39.38"/><path class="cls-1" d="M14.29,43.67,40.53,32l.2-1.56s3.59-.72,5.53-2.66,2-5.48,1.39-6.13a3.09,3.09,0,0,0-3.48.16l-4.46,4.46s-1.21,1.37-.49,2.09l-2.36,0L10.62,40"/><polygon class="cls-2" points="3.54 46.46 5.08 48.01 14.29 43.67 10.31 39.69 6.33 35.71 1.99 44.92 3.54 46.46"/><path class="cls-3" d="M18,9.46l1.56-.19s.72-3.59,2.66-5.53,5.48-2,6.13-1.39a3.11,3.11,0,0,1-.16,3.48l-4.46,4.45s-1.37,1.22-2.09.5l0,2.36"/><path class="cls-3" d="M40.53,32l.2-1.56s3.59-.72,5.53-2.66,2-5.48,1.39-6.13a3.09,3.09,0,0,0-3.48.16l-4.46,4.46s-1.21,1.37-.49,2.09l-2.36,0"/></svg>