<svg id="Lantern" xmlns="http://www.w3.org/2000/svg" viewBox="0 0 50 50"><defs><style>.cls-1{fill:none;}.cls-1,.cls-2,.cls-4{stroke:#000;stroke-linejoin:round;}.cls-2{fill:#fff;}.cls-3{stroke:#231f20;stroke-miterlimit:10;}</style></defs><path class="cls-1" d="M25,1.25a7.57,7.57,0,1,0,0,15.13"/><path class="cls-1" d="M25,1.25a7.57,7.57,0,1,1,0,15.13"/><path class="cls-2" d="M32.67,43.2l0,2.67,3.16,1.27c0,.89-3.49,1.61-10.81,1.61S14.19,48,14.19,47.14l3.16-1.27,0-2.67"/><ellipse class="cls-2" cx="25" cy="43.2" rx="7.67" ry="0.93"/><path class="cls-2" d="M25,40.43c-9.49,0-6.58-10.49-4.78-15.91S25,20.08,25,20.08"/><path class="cls-2" d="M25,40.43c9.49,0,6.58-10.49,4.78-15.91S25,20.08,25,20.08"/><polygon class="cls-3" points="27.68 18.23 25 18.23 22.32 18.23 20.41 23.99 25 23.99 29.59 23.99 27.68 18.23"/><polygon class="cls-4" points="25 38.29 19.64 38.29 21.91 42.75 25 42.75 28.09 42.75 30.36 38.29 25 38.29"/><path class="cls-2" d="M28.44,18.6V14.31L26.8,12.18l1.79-2.86H21.41l1.79,2.86-1.64,2.13V18.6c-2.51.13-4.23.39-4.23.7s3.43.78,7.67.78,7.67-.35,7.67-.78S31,18.73,28.44,18.6Z"/></svg>