<svg id="Layer_31" data-name="Layer 31" xmlns="http://www.w3.org/2000/svg" viewBox="0 0 50 50"><defs><style>.cls-1{fill:#fff;stroke:#231f20;stroke-miterlimit:10;}</style></defs><path class="cls-1" d="M3.53,22.46V32.55c0,1.5.77,3.3,2.76,5.42,8.1,8.68,15.72,3.4,19.07,1.75S31,33.57,33,32.56,45,31.05,46.1,28.48A4.08,4.08,0,0,0,46.47,27V16.71"/><path class="cls-1" d="M12.6,16A10.76,10.76,0,0,0,7,17.37c-2.9,1.7-5.81,5-.74,10.41,8.1,8.68,15.72,3.4,19.07,1.75S31,23.38,33,22.37,45,20.86,46.1,18.29c1.82-4.06-3.38-6.8-7.55-9.38C34.12,6.18,24.09,6.36,22.2,11.7,20.87,15.47,15.59,16,12.6,16Z"/></svg>