<svg id="Lockpicks" xmlns="http://www.w3.org/2000/svg" viewBox="0 0 50 50"><defs><style>.cls-1{fill:#fff;stroke:#231f20;stroke-linejoin:round;}.cls-2{fill:#231f20;}</style></defs><path class="cls-1" d="M10.1,38.49V10.79A18.25,18.25,0,0,0,11.36,6,11,11,0,0,0,10.1,1.89h1s2.82,2.56,2.82,5a12.72,12.72,0,0,1-1.12,4.77v14"/><polyline class="cls-1" points="22.1 38.49 22.1 10.79 22.1 6.29 23.33 4.36 22.1 1.89 25.93 4.83 24.11 8.37 26.29 10.19 24.78 11.65 24.78 25.68"/><rect class="cls-2" x="8.74" y="20.58" width="5.55" height="27.53" rx="2.37"/><rect class="cls-2" x="20.6" y="20.58" width="5.55" height="27.53" rx="2.37"/><path class="cls-1" d="M33.82,38.49V10.79a9.16,9.16,0,0,1,7.44-8.9V3.63s-4.75.88-4.75,8v14"/><rect class="cls-2" x="32.46" y="20.58" width="5.55" height="27.53" rx="2.37"/></svg>