<svg id="Manacles" xmlns="http://www.w3.org/2000/svg" viewBox="0 0 50 50"><defs><style>.cls-1,.cls-2,.cls-3,.cls-4{fill:none;stroke:#231f20;}.cls-1,.cls-2{stroke-miterlimit:10;}.cls-2,.cls-3,.cls-4{stroke-linecap:round;}.cls-3,.cls-4{stroke-linejoin:round;}.cls-3{stroke-width:2px;}.cls-4{stroke-width:0.5px;}</style></defs><path class="cls-1" d="M16.78,17.15A15.63,15.63,0,0,1,18,18.27a1.58,1.58,0,0,1-.13,2.39h0a1.75,1.75,0,0,1-2.26,0c-.3-.3-.65-.62-.93-.85"/><path class="cls-2" d="M17.35,20a9.48,9.48,0,0,1,1.71,2.53,3.84,3.84,0,0,1,.19,3"/><path class="cls-1" d="M19.31,28.41a7,7,0,0,0,1.17-1.54,1.77,1.77,0,0,0,.09-1.62,1.28,1.28,0,0,0-1.1-.71h0a3.27,3.27,0,0,0-1.24.22,2.24,2.24,0,0,0-.44.19,1.07,1.07,0,0,0-.28.28,3.51,3.51,0,0,1-.6.79"/><path class="cls-1" d="M19.31,28.41a10.13,10.13,0,0,1-1.41,1.15,1.55,1.55,0,0,1-2.34-.68h0A1.84,1.84,0,0,1,16,26.73a6.73,6.73,0,0,0,.87-.71"/><path class="cls-2" d="M16.33,28.52a7.13,7.13,0,0,1-2.42.81,2.57,2.57,0,0,1-2.36-.68,3.05,3.05,0,0,0-.78-.61"/><path class="cls-1" d="M8.75,29.23a3.15,3.15,0,0,1,.91.15,1.16,1.16,0,0,0,.8-.12,3.54,3.54,0,0,0,1.09-.61h0A1.28,1.28,0,0,0,12,27.4a1.81,1.81,0,0,0-1.16-1.21,6.34,6.34,0,0,0-2-.34"/><path class="cls-1" d="M8.75,29.23a3.51,3.51,0,0,0-1,.11c-.13,0-.27.05-.31,0s-.21-.13-.37-.21A8.33,8.33,0,0,1,6,28.5H6a1.11,1.11,0,0,1-.44-1.24A1.53,1.53,0,0,1,6,26.53a2.35,2.35,0,0,1,.85-.45,6.44,6.44,0,0,1,1.94-.23"/><path class="cls-2" d="M6.64,28a1.64,1.64,0,0,0-.61.46,3.09,3.09,0,0,0-.34.68,10.78,10.78,0,0,0-.4,1.48,9.47,9.47,0,0,0-.12,3.05"/><path class="cls-1" d="M7.23,34.48a1.75,1.75,0,0,1-.31-.67A1.92,1.92,0,0,0,5.1,32.65h0a1.52,1.52,0,0,0-1.46,2,5,5,0,0,0,.95,2"/><path class="cls-1" d="M7.23,34.48a.61.61,0,0,1,.07.1l.09.05c0,.07.14,0,.2.1s.19.06.26.17.2.24.35.38a2,2,0,0,1,.48,1.18h0a1.55,1.55,0,0,1-.44,1.21,1.13,1.13,0,0,1-.67.34,1.83,1.83,0,0,1-1,0,3.83,3.83,0,0,1-1.12-.53L5,37.06c-.14-.15-.27-.3-.4-.46"/><path class="cls-2" d="M7.84,36.47a10.06,10.06,0,0,0,3-.36,16.17,16.17,0,0,0,2.82-1.18"/><path class="cls-1" d="M15.32,32.53a7.29,7.29,0,0,0-1.8.6,1.65,1.65,0,0,0-.73,2.24h0a1.68,1.68,0,0,0,2.14.84,4.05,4.05,0,0,1,1-.35"/><path class="cls-1" d="M15.32,32.53a5,5,0,0,1,1.07-.08,8.33,8.33,0,0,1,.91.08,1.56,1.56,0,0,1,1.34,2h0a1.78,1.78,0,0,1-1.78,1.35c-.19,0-.39,0-.55,0a1.67,1.67,0,0,0-.4,0"/><path class="cls-2" d="M17.81,34.33a11.74,11.74,0,0,1,5.47,2.6"/><path class="cls-1" d="M26,38.05A5.8,5.8,0,0,0,25,36.27a1.52,1.52,0,0,0-2.46,0h0a1.93,1.93,0,0,0-.12,2.16,2.45,2.45,0,0,1,.45.73"/><path class="cls-1" d="M26,38.05l.1.27c0,.06.08.17.11.25s.2.36.29.54a1.75,1.75,0,0,1-.61,2.18h0a1.58,1.58,0,0,1-2.33-.5c-.13-.25-.27-.48-.4-.76s-.12-.25-.19-.43l-.1-.24,0-.13,0,0"/><path class="cls-2" d="M25.46,40.58A14.17,14.17,0,0,0,27.35,43,4.52,4.52,0,0,0,30,44.48"/><path class="cls-1" d="M30.59,42.42c-.32.3-.34.3-.46.34s-.18.22-.37.47a5.13,5.13,0,0,0-.76,1h0a1.17,1.17,0,0,0,.12,1.32,1.8,1.8,0,0,0,1.83.54,5.85,5.85,0,0,0,1.17-.53,5.72,5.72,0,0,0,.81-.68"/><path class="cls-1" d="M30.59,42.42a8.2,8.2,0,0,0,.79-.91,1.74,1.74,0,0,1,2.23-.3h0a1.58,1.58,0,0,1,.47,2.34,11.35,11.35,0,0,1-1.15,1.31"/><path class="cls-2" d="M33.16,41.93a16.72,16.72,0,0,0,2.42-5.6"/><path class="cls-1" d="M34,34.49A1.51,1.51,0,0,1,34,35a2.78,2.78,0,0,1,0,.56,1.79,1.79,0,0,0,1.34,1.77h0a1.55,1.55,0,0,0,2-1.33,5.31,5.31,0,0,0,.08-.91,5.65,5.65,0,0,0,0-1"/><path class="cls-1" d="M34,34.49l0-.22,0-.14c0-.13-.07-.12-.08-.19s0,0-.06-.11a1.64,1.64,0,0,1-.12-.22,2.27,2.27,0,0,1-.18-.44,1.82,1.82,0,0,1,0-.81,1.31,1.31,0,0,1,1-.87h0a3,3,0,0,1,1.25,0,2.11,2.11,0,0,1,.45.11l.16.05c.06.06,0,0,.17.2A3.75,3.75,0,0,1,37.14,33l.17.56c0,.17,0,.34.08.51"/><path class="cls-2" d="M34.81,32.29a5.3,5.3,0,0,1-.36-3,12.61,12.61,0,0,1,.79-2.95"/><path class="cls-1" d="M35,23.32a5,5,0,0,0-.44.57c-.1.16-.18.3-.25.43s-.26.52-.38.77a1.58,1.58,0,0,0,1,2.19h0A1.76,1.76,0,0,0,37,26.49c.09-.19.18-.39.27-.54s.09-.17.12-.21,0,0,0,0"/><path class="cls-3" d="M21.05,6.07l-3,2c-1.47-2.17-5.56-2-9.14.45s-5.29,6.14-3.83,8.31l-3,2"/><path class="cls-3" d="M3.88,21.43l3-2c1.47,2.17,5.56,2,9.14-.46s5.3-6.14,3.83-8.31l3-2"/><line class="cls-4" x1="2.05" y1="17.16" x2="5.36" y2="22.07"/><line class="cls-4" x1="19.4" y1="5.49" x2="22.7" y2="10.4"/><path class="cls-3" d="M48,23.41l-3-2c1.46-2.17-.26-5.89-3.84-8.31s-7.68-2.62-9.14-.44l-3-2"/><path class="cls-3" d="M27.29,13.23l3,2c-1.46,2.18.25,5.9,3.84,8.31s7.67,2.62,9.14.45l3,2"/><line class="cls-4" x1="30.61" y1="9.87" x2="27.2" y2="14.9"/><line class="cls-4" x1="47.91" y1="21.6" x2="44.5" y2="26.63"/></svg>