<svg id="Metal_File" data-name="Metal File" xmlns="http://www.w3.org/2000/svg" viewBox="0 0 50 50"><defs><style>.cls-1,.cls-3{fill:none;}.cls-1,.cls-2,.cls-3{stroke:#231f20;stroke-miterlimit:10;}.cls-1{stroke-linecap:round;stroke-width:2px;}.cls-2{fill:#fff;}.cls-3{stroke-width:0.5px;}</style></defs><line class="cls-1" x1="17.51" y1="32.49" x2="3.5" y2="46.5"/><polygon class="cls-2" points="23.34 32.35 17.5 32.49 17.65 26.66 40.8 3.5 46.5 9.2 23.34 32.35"/><line class="cls-3" x1="40.81" y1="3.5" x2="40.81" y2="15.05"/><line class="cls-3" x1="43.85" y1="6.15" x2="43.85" y2="12"/><line class="cls-3" x1="37.76" y1="6.55" x2="37.76" y2="18.1"/><line class="cls-3" x1="34.71" y1="9.6" x2="34.71" y2="21.15"/><line class="cls-3" x1="31.66" y1="12.65" x2="31.66" y2="24.2"/><line class="cls-3" x1="28.61" y1="15.7" x2="28.61" y2="27.25"/><line class="cls-3" x1="25.56" y1="18.75" x2="25.56" y2="30.3"/><line class="cls-3" x1="22.51" y1="21.8" x2="22.51" y2="32.49"/><line class="cls-3" x1="19.46" y1="24.85" x2="19.46" y2="32.45"/><line class="cls-3" x1="46.5" y1="9.19" x2="35.03" y2="9.19"/><line class="cls-3" x1="43.45" y1="6.15" x2="38.08" y2="6.15"/><line class="cls-3" x1="43.45" y1="12.24" x2="31.98" y2="12.24"/><line class="cls-3" x1="40.4" y1="15.29" x2="28.93" y2="15.29"/><line class="cls-3" x1="37.35" y1="18.34" x2="25.88" y2="18.34"/><line class="cls-3" x1="34.3" y1="21.39" x2="22.83" y2="21.39"/><line class="cls-3" x1="31.25" y1="24.44" x2="19.78" y2="24.44"/><line class="cls-3" x1="28.2" y1="27.49" x2="17.51" y2="27.49"/><line class="cls-3" x1="25.15" y1="30.54" x2="17.51" y2="30.54"/></svg>