<svg id="Mirror_small_silver_" data-name="Mirror (small, silver)" xmlns="http://www.w3.org/2000/svg" viewBox="0 0 50 50"><defs><style>.cls-1{fill:#fff;stroke:#231f20;stroke-miterlimit:10;}.cls-2{fill:#231f20;}</style></defs><path class="cls-1" d="M41.88,27.76c6.21-6.21,6.85-15.64,1.42-21.07S28.44,1.9,22.23,8.11c-4.88,4.88-6.3,11.75-4.06,17.1-1.73,2.24-1.74,5.67-2.26,6.19S12.78,34,11.41,34s-5.88,5.1-5.88,5.1c-2.47,2.48-3.26,5.69-1.76,7.19s4.71.7,7.18-1.77a.86.86,0,0,0,.13-.14c.79-.7,5-4.5,5-5.74s2-4,2.55-4.51,3.94-.53,6.18-2.26C30.14,34.06,37,32.64,41.88,27.76Z"/><ellipse class="cls-1" cx="32.06" cy="17.94" rx="12.01" ry="10.1" transform="translate(-3.29 27.92) rotate(-45)"/><path class="cls-2" d="M43.14,16.67s-10.45,16-22,5.11l.36,1.35L23,25.77l1.75,1.63,3.5,1.45L30.9,29l3.15-.66,2.34-1.08,3.32-2.73,1.72-2.34,1.1-2.43Z"/><path class="cls-2" d="M25.35,14a8.12,8.12,0,0,0-.56.75c2.95-2.91,12.22-3.89,15-1.56C37.39,8.93,29,9.66,25.35,14Z"/><path d="M22.13,27.93a3.61,3.61,0,0,1,.8,2.11s-2.93,2.08-4,1,1-4,1-4a3.51,3.51,0,0,1,2.12.8A.34.34,0,0,1,22.13,27.93Z"/></svg>