<svg id="Nails_12_" data-name="Nails (12)" xmlns="http://www.w3.org/2000/svg" viewBox="0 0 50 50"><defs><style>.cls-1{fill:none;stroke:#231f20;stroke-linecap:round;stroke-miterlimit:10;stroke-width:2px;}.cls-2{fill:#231f20;}</style></defs><line class="cls-1" x1="2.74" y1="21.29" x2="6.16" y2="16.43"/><path class="cls-2" d="M5,18,20,29.86,3.87,19.68a1,1,0,0,1-.31-1.39A1,1,0,0,1,4.94,18Z"/><line class="cls-1" x1="37.14" y1="8.69" x2="42.75" y2="10.64"/><path class="cls-2" d="M40.89,10,33.66,27.68,39,9.34a1,1,0,1,1,1.92.55Z"/><line class="cls-1" x1="46.26" y1="18.67" x2="47.26" y2="24.53"/><path class="cls-2" d="M46.93,22.58,28,24.8l18.63-4.19a1,1,0,1,1,.44,2Z"/><line class="cls-1" x1="40.7" y1="44.49" x2="35.63" y2="47.59"/><path class="cls-2" d="M37.32,46.56,28.24,29.75,39,45.52a1,1,0,1,1-1.65,1.13A.41.41,0,0,1,37.32,46.56Z"/><line class="cls-1" x1="12.85" y1="36.75" x2="7.13" y2="35.16"/><path class="cls-2" d="M9,35.69l6.08-18.11L11,36.22A1,1,0,1,1,9,35.79Z"/><line class="cls-1" x1="23.35" y1="9.95" x2="29.18" y2="11.1"/><path class="cls-2" d="M27.24,10.72,22.58,29.24l2.7-18.91a1,1,0,0,1,2,.28A.43.43,0,0,1,27.24,10.72Z"/><line class="cls-1" x1="8.15" y1="46.33" x2="7.18" y2="40.47"/><path class="cls-2" d="M7.5,42.41l19-2.13L7.83,44.38a1,1,0,1,1-.43-2Z"/><line class="cls-1" x1="7.79" y1="7.46" x2="12.77" y2="4.21"/><path class="cls-2" d="M11.12,5.29l9.57,16.53L9.45,6.38A1,1,0,1,1,11.06,5.2Z"/><line class="cls-1" x1="38.41" y1="27.51" x2="35.52" y2="32.7"/><path class="cls-2" d="M36.48,31,20.3,20.83l17.15,8.4a1,1,0,0,1-.88,1.8Z"/><line class="cls-1" x1="42.18" y1="33.84" x2="41.47" y2="39.74"/><path class="cls-2" d="M41.71,37.79,22.88,34.53,41.94,35.8a1,1,0,1,1-.13,2Z"/><line class="cls-1" x1="32.14" y1="20.03" x2="26.41" y2="21.6"/><path class="cls-2" d="M28.31,21.08,24.24,2.41l6,18.14a1,1,0,1,1-1.9.63Z"/><line class="cls-1" x1="18.37" y1="37.94" x2="14.82" y2="33.18"/><path class="cls-2" d="M16,34.76l15.89-10.6-14.7,12.2a1,1,0,0,1-1.41-.13,1,1,0,0,1,.13-1.41Z"/></svg>