<svg id="Net" xmlns="http://www.w3.org/2000/svg" viewBox="0 0 50 50"><defs><style>.cls-1,.cls-2{fill:none;stroke:#231f20;stroke-linecap:round;stroke-miterlimit:10;}.cls-2{stroke-width:0.5px;}.cls-3{fill:#231f20;}</style></defs><path class="cls-1" d="M3.59,41.74S1.15,25.29,9,23.52s10.08,1.62,11.55-.94,6-18.84,15.55-18S47.91,18,46.54,24.83s-5.87,8.29-4.4,11.77,5.18,3.18,4.3,5.53"/><path class="cls-2" d="M9.61,23.39s-1.88,7.09-1.88,10,1.88,9.41,1.88,9.41"/><path class="cls-2" d="M15.47,23.1s-2.36,6.25-1.67,9S16,36,16,38.15v5.74"/><path class="cls-2" d="M20.52,22.58s4.43.93,2.38,4.62-1.62,6.19.09,8,1.83,4.51,1,7.29"/><path class="cls-2" d="M23.94,14.75s7.37,2.42,6.19,5.08-1.42,7.79.13,9.42,3.69,6.75,3,8.6S31.61,43.33,32,43.7"/><path class="cls-2" d="M28.67,8.36s5.57.21,6.84,3.28,2.45,6.55,1.28,8.91-.4,7.28.48,8.2,2.6,6.79,2,7.46.39,3.79,2.15,4.71.6,3.56.6,3.56"/><path class="cls-2" d="M36.07,4.56S43,12.15,41.78,15.63s-.69,8.79,1.27,9.93a23.41,23.41,0,0,1,2.77,1.8"/><path class="cls-2" d="M46.35,15.59S46.13,18,45.3,18.91s-1.18,1.94-.59,2.56,2.2,1.92,2.2,1.92"/><path class="cls-2" d="M3.35,40.22s12-.63,15-1.25,11.15,0,12.32,0,6,2.15,7.14,2.15,5.33-3,5.33-3"/><path class="cls-2" d="M3.35,35.9s6.44-1.12,8.2-1.12,7.33.71,9.39,0,5.29-2.7,7.73-1.71,5.71,3.34,7.4,2.83A41.77,41.77,0,0,1,42,34.39"/><path class="cls-2" d="M3.81,30.47A7.93,7.93,0,0,1,7,29.35c1.3,0,3.62.71,8.51,1.12s9.42-2.25,10.68-2.25S30,30,31.8,29.37s1.7-1.15,4.27-1.15,5.51,3.7,7.56,3.23"/><path class="cls-2" d="M6.29,25.08s2.91,1.61,4.28,1.61,3.72-1.86,6.46-1.13,7.3-.57,9.11-2.46,5.82-.34,7.26.29,5.35,3,7.55,2.17,3.55-5.59,6-6.07"/><path class="cls-2" d="M23.22,16s6.93,0,8.32-1.27S36,11,38.3,11s5.33-1.95,5.33-1.95"/><path class="cls-2" d="M21.5,20.33s7.66,0,11.08-.84,5.76-2.83,7.34-2.83,5.37-2.5,5.9-3.06"/><path class="cls-2" d="M25.73,12S27.67,10,29.33,10s5.23.47,6.22-.6,3.14-4.22,3.14-4.22"/><path class="cls-2" d="M33.66,4.73s-.33,2.52-3.39,1.59"/><ellipse class="cls-3" cx="3.59" cy="41.74" rx="0.94" ry="0.99"/><ellipse class="cls-3" cx="9.61" cy="42.75" rx="0.94" ry="0.99"/><ellipse class="cls-3" cx="15.95" cy="43.89" rx="0.94" ry="0.99"/><ellipse class="cls-3" cx="23.94" cy="42.47" rx="0.94" ry="0.99"/><ellipse class="cls-3" cx="31.99" cy="43.7" rx="0.94" ry="0.99"/><ellipse class="cls-3" cx="41.98" cy="44.48" rx="0.94" ry="0.99"/><ellipse class="cls-3" cx="46.41" cy="42.13" rx="0.94" ry="0.99"/></svg>