<svg id="Oilskin_Bag" data-name="Oilskin Bag" xmlns="http://www.w3.org/2000/svg" viewBox="0 0 50 50"><defs><style>.cls-1,.cls-3{fill:#fff;stroke:#231f20;stroke-miterlimit:10;}.cls-2{fill:#231f20;}.cls-3{stroke-width:0.5px;}</style></defs><path class="cls-1" d="M8.72,14s-2.24,7-2.24,8.62.35,5.4.35,5.89-4.27,3.58-3.58,5.12.79,2.8,3,3.38,18.47,5.4,33.07,4.77c1.54-.14,8.2-1.8,7.43-4.9a21.05,21.05,0,0,1-.92-5.21c0-.56,0-3.45-.11-4.6a63,63,0,0,0-1.48-8.52"/><path class="cls-2" d="M9.39,38.17c-.3-7.1,4.75-8.84,5.39-9.47s0-5.23,0-7,1.84-5.78,1.84-5.78h2.16s-1.84,4-1.84,5.78.38,6.6,0,7.41-5.5,2.24-5.39,9.05"/><path class="cls-2" d="M28.52,41.2c-.75-1.57,1.28-3.93,1.28-5.36s.75-6.45,1.29-7-.55-4.81-.34-6.45.68-4.55.68-4.55H29.27s-.47,2.91-.68,4.55.88,5.91.34,6.45-1.29,5.56-1.29,7-2,3.79-1.28,5.36"/><polygon class="cls-2" points="18.36 23.04 13.09 22.32 12.25 20.89 13.44 19.73 18.71 20.45 19.64 21.89 18.36 23.04"/><polygon class="cls-2" points="13.54 35.74 8.27 35.03 7.43 33.59 8.63 32.44 13.9 33.16 14.83 34.6 13.54 35.74"/><polygon class="cls-2" points="32.57 24.52 27.27 24.17 26.33 22.8 27.44 21.56 32.75 21.91 33.78 23.29 32.57 24.52"/><polygon class="cls-2" points="31.22 37.79 25.95 37.07 25.11 35.64 26.3 34.48 31.57 35.2 32.51 36.65 31.22 37.79"/><path class="cls-1" d="M44.73,14.79c.13,1.81.17,3.66-2.25,4.62s-3,1.4-5.42.4c-5.34-2.21-25.19-4.55-27.41-5.19s-2.12-4.55-.63-6,6.24,1.06,7.3,1.06,5.82-.21,7.72-.21,7,1.69,8.36,1.69S38.11,11,39.28,11C40.24,11,44.48,11.34,44.73,14.79Z"/><path class="cls-3" d="M42.48,19.41s.89,5.69.89,6.39-.46,6.53,0,7,2.58,6.28,2,6.83"/></svg>