<svg id="Oilskin_Trousers" data-name="Oilskin Trousers" xmlns="http://www.w3.org/2000/svg" viewBox="0 0 50 50"><defs><style>.cls-1,.cls-3{fill:#fff;}.cls-1,.cls-2,.cls-3{stroke:#231f20;stroke-miterlimit:10;}.cls-1{stroke-linecap:round;}.cls-2{fill:none;stroke-width:0.5px;}</style></defs><path class="cls-1" d="M24.28,17.22l-2.22,2.62c-.51,0-.76,7.27-.9,8.69a50.06,50.06,0,0,0-.19,9.2c.21,1.53-.2,5.15-.2,6.67,0,.87-2.12,2.57-3,3-6.29,0-7.64-.11-8.16-.63S9,33.13,9,31.43s.67-8.59.67-10.59-.75-14.46,0-15.46H39.9s.65,10.37,0,12,0,7.89,0,9.89.93,5.39.29,7.59S41,41.52,41,43v1.5s0,1.8-4.19,3.3c-4.2,0-8-.46-8-1.55s-1.5-8.05-.8-10,1-7.6.2-8.39-2.1-5.6-2.1-6.6-3.35-6.74-3.35-6.74"/><path class="cls-2" d="M37.23,7.19s.48,8.86,0,10.66,0,8.39,0,9.39,1.42,5.69.72,6.39,1.22,11.86,1.95,12.58"/><ellipse class="cls-3" cx="24.76" cy="5.38" rx="15.13" ry="3.2"/><path class="cls-2" d="M23.52,15.74A6.62,6.62,0,0,0,20,18.84c-1.09,2.3-3.09,10.19-2.59,12.29s.4,9.49.4,9.49-.24,4.08.88,6.19"/></svg>