<svg id="Padlock_and_Key" data-name="Padlock and Key" xmlns="http://www.w3.org/2000/svg" viewBox="0 0 50 50"><defs><style>.cls-1,.cls-3{fill:#fff;stroke:#231f20;stroke-miterlimit:10;}.cls-1{stroke-linecap:round;}.cls-2{fill:#231f20;}</style></defs><path class="cls-1" d="M3.11,22.5V41.56c0,1,5.3,1.78,11.83,1.78s11.83-.8,11.83-1.78V22.5"/><ellipse class="cls-1" cx="14.94" cy="22.5" rx="11.83" ry="1.78"/><path class="cls-1" d="M14.94,6.66a8.94,8.94,0,0,1,8.94,8.94v6.15c0,.41-.58.75-1.31.75s-1.31-.34-1.31-.75V15.6a6.32,6.32,0,0,0-12.64,0v6.15c0,.41-.59.75-1.31.75S6,22.16,6,21.75V15.6a8.94,8.94,0,0,1,8.94-8.94"/><circle class="cls-2" cx="14.53" cy="30.15" r="3.19"/><polygon class="cls-2" points="14.53 29.02 10.86 40.06 18.2 40.06 14.53 29.02"/><path class="cls-3" d="M39.44,7.61c-4.11,0-7.45,3-7.45,6.75A7,7,0,0,0,38,21V32.29H34.16a1.58,1.58,0,0,0,0,3.16h3.7l.11,0v2.4H34.16a1.58,1.58,0,1,0,0,3.15h6.75V21a7,7,0,0,0,6-6.62C46.89,10.63,43.55,7.61,39.44,7.61Zm1.79,10.31a2.3,2.3,0,0,1-1.79-1,2.32,2.32,0,0,1-1.79,1c-1.45,0-2.63-1.6-2.63-3.56s1.18-3.56,2.63-3.56a2.32,2.32,0,0,1,1.79,1,2.3,2.3,0,0,1,1.79-1c1.45,0,2.63,1.59,2.63,3.56S42.68,17.92,41.23,17.92Z"/></svg>