<svg id="Perfume" xmlns="http://www.w3.org/2000/svg" viewBox="0 0 50 50"><defs><style>.cls-1{fill:#fff;stroke:#231f20;stroke-miterlimit:10;}.cls-2{fill:#231f20;}</style></defs><path class="cls-1" d="M28.71,24.77V7.2c2.26-.32,2.81-1.09,2.81-2h0a2.15,2.15,0,0,0-2.15-2.15H20.63a2.15,2.15,0,0,0-2.15,2.15h0c0,.89.55,1.66,2.65,2V24.77c-5.2,1.92-7.87,5.9-7.87,10.51a11.74,11.74,0,0,0,23.48,0C36.74,30.67,34.07,26.69,28.71,24.77Z"/><path class="cls-2" d="M28.71,24.77c.46-.16,10,17.16-10,20.41l4.73,1.73,4.31-.21,3.74-1.62,2.45-2.16,1.7-2.64,1-3.43V33.71l-1-3.42-1.71-2.64-3.12-2Z"/></svg>