<svg id="Quill_and_Ink" data-name="Quill and Ink" xmlns="http://www.w3.org/2000/svg" viewBox="0 0 50 50"><defs><style>.cls-1{fill:#231f20;}.cls-2{fill:#fff;stroke:#000;stroke-linecap:round;stroke-miterlimit:10;}</style></defs><rect x="11.59" y="22.6" width="10.52" height="5.27" rx="1.76"/><path class="cls-1" d="M24,34.32a5.81,5.81,0,0,0,.81-2.95c0-3.7-3.54-6.7-7.91-6.7s-7.91,3-7.91,6.7a5.82,5.82,0,0,0,.82,2.95,6.69,6.69,0,0,0-3.35,5.46c0,4.11,4.68,7.45,10.44,7.45s10.44-3.34,10.44-7.45A6.7,6.7,0,0,0,24,34.32Z"/><path class="cls-2" d="M40.6,37.27c1.52-2.06,4.81-7.86,1.69-16.34C38.34,10.21,28.16,2.77,28.16,2.77s-1.9,13.73.53,20.29c2.56,6.9,11.23,15,11.23,15A7.61,7.61,0,0,0,40.6,37.27Z"/><path d="M40,45.33l-1.42-11A96.33,96.33,0,0,0,36,23.56Q34.43,18.24,32.5,13A105.8,105.8,0,0,0,28.16,2.77a109.1,109.1,0,0,1,4.85,10q2.19,5.13,4,10.42A98,98,0,0,1,40.14,34c.39,1.86.65,3.71.94,5.54L41.93,45h0a1,1,0,0,1-.83,1.14A1,1,0,0,1,40,45.36Z"/></svg>