<svg id="Rope_50_ft_" data-name="Rope (50 ft)" xmlns="http://www.w3.org/2000/svg" viewBox="0 0 50 50"><defs><style>.cls-1{fill:#fff;stroke:#000;stroke-miterlimit:10;}</style></defs><ellipse class="cls-1" cx="23.68" cy="30.47" rx="21.86" ry="9.12"/><ellipse class="cls-1" cx="23.68" cy="27.47" rx="20.77" ry="8.66"/><ellipse class="cls-1" cx="23.68" cy="24.47" rx="19.73" ry="8.23"/><ellipse class="cls-1" cx="23.68" cy="21.47" rx="18.74" ry="7.82"/><ellipse class="cls-1" cx="23.68" cy="18.47" rx="17.81" ry="7.43"/><ellipse class="cls-1" cx="23.68" cy="15.47" rx="16.92" ry="7.06"/><path class="cls-1" d="M32.59,21.47c4.54-1.19,7.16-5.45,7.16-7.85,0-3.71-7.19-7.86-16.07-7.86s-16.07,3-16.07,6.71,7.2,6.7,16.07,6.7a33.68,33.68,0,0,0,8.42-1l1.34,3-2.89.72"/><path class="cls-1" d="M44.24,26.23s3.94-.34,3.94,5.55c0,2.93-9.19,12.46-16.63,12.46v-1.9c-.15-.25,13-6.38,13.72-10.43,0-3.65-.82-3.52-.82-3.52"/><ellipse class="cls-1" cx="23.68" cy="12.85" rx="11.07" ry="3.39"/></svg>