<svg id="Sack" xmlns="http://www.w3.org/2000/svg" viewBox="0 0 50 50"><defs><style>.cls-1,.cls-2{fill:#fff;stroke:#000;stroke-miterlimit:10;}.cls-1{stroke-linecap:round;}</style></defs><path class="cls-1" d="M12.87,25.72c.52-9.07,7.2-11.72,7.2-11.72L27,12.4S44.47,18.11,45.08,33s-23,13.81-23,13.81S3.56,45.42,5,37.24s6.75-12.69,13.29-12.69"/><path class="cls-2" d="M26.5,10.36c1.56-2.4.16-6.81-.94-7.2s-2.09,2.89-2.09,2.89-1.26-2-2.18-1.56-1.41,2.75-1.41,2.75-2.23-2-2.8-.4S19.59,12,19.59,12l1.19,1.36,2.88-.26,2.47-.78Z"/><path class="cls-2" d="M27,12.4c.13.53-1.32,1.32-3.23,1.76s-3.55.37-3.67-.16l-.48-2c.13.53,1.77.61,3.68.16s3.36-1.23,3.23-1.76Z"/></svg>