<svg id="Saw" xmlns="http://www.w3.org/2000/svg" viewBox="0 0 50 50"><defs><style>.cls-1{fill:#fff;stroke-linecap:round;}.cls-1,.cls-2{stroke:#000;stroke-miterlimit:10;}</style></defs><polygon class="cls-1" points="9.18 28.25 21.98 40.29 23.12 39.12 19.69 32.25 26.19 35.13 23.01 28.77 29.51 31.64 26.34 25.28 32.73 28.11 29.61 21.85 36.11 24.73 32.93 18.37 39.43 21.25 36.26 14.89 42.66 17.72 41.02 10.89 47.54 13.83 47.54 13.83 43.28 2.03 9.18 28.25"/><path class="cls-2" d="M9.18,28.25,3.83,32.36a3.5,3.5,0,0,0-.65,4.9l7.19,9.35a3.51,3.51,0,0,0,4.9.64l5.36-4.11a3.52,3.52,0,0,0,.64-4.91l-7.19-9.34A3.49,3.49,0,0,0,9.18,28.25Zm7.06,8.92a3.5,3.5,0,0,1-.64,4.91l-.06,0a3.49,3.49,0,0,1-4.9-.64L8.21,38.32a3.49,3.49,0,0,1,.64-4.9l.06-.05a3.52,3.52,0,0,1,4.91.64Z"/></svg>