<svg id="Set_of_Loaded_Dice" data-name="Set of Loaded Dice" xmlns="http://www.w3.org/2000/svg" viewBox="0 0 50 50"><defs><style>.cls-1,.cls-3{fill:#fff;}.cls-1,.cls-2{stroke:#000;}.cls-1,.cls-3,.cls-4{stroke-miterlimit:10;}.cls-2{stroke-linejoin:round;}.cls-3,.cls-4{stroke:#231f20;}.cls-4{fill:none;}</style></defs><polygon class="cls-1" points="3.8 7.82 19.17 3.24 34.55 7.82 34.55 27.92 19.17 32.5 3.8 27.92 3.8 7.82"/><polyline class="cls-2" points="19.17 12.39 19.17 32.5 3.8 7.82 19.17 12.39 34.55 7.82"/><polygon class="cls-3" points="46.59 42.55 31.22 47.13 15.84 42.55 15.84 22.45 31.22 17.87 46.59 22.45 46.59 42.55"/><polyline class="cls-3" points="15.84 22.45 31.22 27.02 46.59 22.45"/><line class="cls-4" x1="31.22" y1="47.13" x2="31.22" y2="27.02"/><polygon class="cls-1" points="46.59 42.55 31.22 47.13 15.84 42.55 15.84 22.45 31.22 17.87 46.59 22.45 46.59 42.55"/><polyline class="cls-2" points="15.84 22.45 31.22 27.02 46.59 22.45 31.22 47.13 31.22 27.02"/></svg>