<svg id="Shovel" xmlns="http://www.w3.org/2000/svg" viewBox="0 0 50 50"><defs><style>.cls-1{fill:#231f20;}.cls-2{fill:#fff;stroke:#231f20;stroke-miterlimit:10;}</style></defs><rect class="cls-1" x="24.74" y="4.4" width="3.51" height="38.22" transform="translate(24.38 -11.85) rotate(45)"/><path class="cls-2" d="M18.87,41S9.31,50.58,3,47C-.58,40.69,9,31.13,9,31.13Z"/><path class="cls-2" d="M48,7.56,42.44,2a1.16,1.16,0,0,0-1.59.2L37.44,5.64a1.16,1.16,0,0,0-.2,1.59l5.53,5.53a1.16,1.16,0,0,0,1.59-.2l3.41-3.41A1.16,1.16,0,0,0,48,7.56Zm-4.31,2.92a.17.17,0,0,1-.23,0L39.49,6.57a.17.17,0,0,1,0-.23l2-2a.17.17,0,0,1,.23,0l3.94,3.94a.17.17,0,0,1,0,.23Z"/></svg>