<svg id="Layer_52" data-name="Layer 52" xmlns="http://www.w3.org/2000/svg" viewBox="0 0 50 50"><defs><style>.cls-1{fill:#231f20;}.cls-2{fill:none;}.cls-2,.cls-3{stroke:#231f20;stroke-miterlimit:10;}.cls-3{fill:#fff;}</style></defs><circle class="cls-1" cx="25" cy="42.63" r="5.41"/><circle class="cls-2" cx="25" cy="5.12" r="3.17"/><path class="cls-3" d="M25,6.11c9.56,0,13,12.92,13,17.73,0,4.47,6.1,3.41,6.1,11.64,0,5-7.08,7.15-12.62,8.06a39.94,39.94,0,0,1-13,0C13,42.63,5.88,40.48,5.88,35.48c0-8.23,6.1-7.17,6.1-11.64C12,19,15.44,6.11,25,6.11Z"/><path class="cls-1" d="M22.43,6.45S35.85,14.38,33.1,27.09c0,0,13,7.69-2.73,16.62L36,42.55l5.17-2.25,2.11-2L44,33.74,42.69,30l-2.78-2.68-1.75-2.43-.39-3.78-1.09-4.27-1.5-3.52-2.12-3.2-3.75-3-2.88-.89Z"/></svg>