<svg id="Soap" xmlns="http://www.w3.org/2000/svg" viewBox="0 0 50 50"><defs><style>.cls-1{fill:#fff;stroke:#231f20;stroke-miterlimit:10;}.cls-2{fill:#231f20;}</style></defs><path class="cls-1" d="M2.2,29.63l1.63,8.58c.17,1.28,2,2.74,7.93,3.95a38.15,38.15,0,0,1,4,1.1c3.31,1.06,10.58,2.41,15.63-3.93,6.74-8.46,15.66-17.5,15.66-17.5a2,2,0,0,0,.7-1.74l-1.63-8.6"/><path class="cls-1" d="M36,7.19c14,2.28,9.42,6.07,9.42,6.07s-8.93,9-15.66,17.5c-5.05,6.34-12.32,5-15.64,3.94a36.88,36.88,0,0,0-4-1.1c-9.57-2-8.47-4.58-6.89-6a48.29,48.29,0,0,0,3.83-3.74c2.87-3.25,8.23-8.24,12.43-12.28a27.71,27.71,0,0,0,2.23-2.49c1.34-1.66,4.89-4.71,11.77-2.44Z"/><path class="cls-2" d="M22.14,29c-1.41,1.09,3.83-.58,5.53-2.74,4-5.07,9.24-10.46,9.24-10.46s2.69-2.23-5.15-4l-1.42-.41a6.62,6.62,0,0,0-3.87-.54S41.1,14.47,22.14,29Z"/><path class="cls-2" d="M17,19.8c.6-.42-1.58.18-2.31,1-1.73,2-4,4.16-4,4.16s-1.14.88,2.06,1.74l.58.19a2.64,2.64,0,0,0,1.58.28S9,25.5,17,19.8Z"/></svg>