<svg id="Spiked_Boots" data-name="Spiked Boots" xmlns="http://www.w3.org/2000/svg" viewBox="0 0 50 50"><defs><style>.cls-1,.cls-3{fill:#fff;stroke:#231f20;stroke-linecap:round;}.cls-1{stroke-linejoin:round;}.cls-2{fill:#231f20;}.cls-3{stroke-miterlimit:10;}</style></defs><path class="cls-1" d="M35.72,21V4.49H17.16v33.7H39.45a7.83,7.83,0,0,0,7.83-8.54,9.93,9.93,0,0,0-6.37-8.29,8.77,8.77,0,0,0-5.83-.19,17.18,17.18,0,0,0-5.57,2.46,9.17,9.17,0,0,0-1.3,1.05"/><polyline class="cls-2" points="41.82 37.87 44.29 41.42 44.48 36.46"/><ellipse class="cls-3" cx="26.44" cy="4.49" rx="9.28" ry="2.69"/><polyline class="cls-2" points="17.16 38.19 18.61 42.72 19.9 38.51"/><polyline class="cls-2" points="19.9 38.19 21.36 42.72 22.65 38.51"/><polyline class="cls-2" points="22.65 38.19 24.1 42.72 25.39 38.51"/><polyline class="cls-2" points="25.39 38.19 26.84 42.72 28.13 38.51"/><polyline class="cls-2" points="28.13 38.19 29.58 42.72 30.88 38.51"/><polyline class="cls-2" points="30.88 38.19 32.33 42.72 33.62 38.51"/><polyline class="cls-2" points="33.62 38.19 35.07 42.72 36.36 38.51"/><polyline class="cls-2" points="36.36 38.19 37.81 42.72 39.1 38.51"/><polyline class="cls-2" points="39.1 38.19 40.56 42.72 42.02 37.94"/><path class="cls-1" d="M21.24,26.49V10H2.68V43.67H25a7.83,7.83,0,0,0,7.83-8.54,9.94,9.94,0,0,0-6.37-8.3,8.83,8.83,0,0,0-5.83-.18A17.38,17.38,0,0,0,15,29.1a9.82,9.82,0,0,0-1.3,1.06"/><polyline class="cls-2" points="27.34 43.35 29.81 46.9 30 41.94"/><ellipse class="cls-3" cx="11.96" cy="9.96" rx="9.28" ry="2.69"/><polyline class="cls-2" points="2.68 43.67 4.13 48.2 5.42 43.98"/><polyline class="cls-2" points="5.42 43.67 6.88 48.2 8.17 43.98"/><polyline class="cls-2" points="8.17 43.67 9.62 48.2 10.91 43.98"/><polyline class="cls-2" points="10.91 43.67 12.36 48.2 13.65 43.98"/><polyline class="cls-2" points="13.65 43.67 15.11 48.2 16.4 43.98"/><polyline class="cls-2" points="16.4 43.67 17.85 48.2 19.14 43.98"/><polyline class="cls-2" points="19.14 43.67 20.59 48.2 21.88 43.98"/><polyline class="cls-2" points="21.88 43.67 23.34 48.2 24.63 43.98"/><polyline class="cls-2" points="24.63 43.67 26.08 48.2 27.54 43.41"/></svg>