<svg id="Spyglass" xmlns="http://www.w3.org/2000/svg" viewBox="0 0 50 50"><defs><style>.cls-1{fill:#fff;stroke:#231f20;}.cls-1,.cls-2{stroke-miterlimit:10;}.cls-2{fill:#231f20;stroke:#000;}</style></defs><polyline class="cls-1" points="13.93 38.72 5.23 46.84 4.2 45.8 3.16 44.77 11.28 36.07"/><path class="cls-1" d="M24.72,30,16,38.12a2.82,2.82,0,0,1-4-.17,2.82,2.82,0,0,1-.17-4L20,25.28"/><path class="cls-1" d="M36.65,20.5l-9.9,9.23c-1.05,1.05-3.35.45-5.14-1.34s-2.39-4.09-1.34-5.14l9.23-9.9"/><path class="cls-1" d="M47,11.76,37.11,21c-1,1.05-3.7.09-5.94-2.14S28,13.93,29,12.89L38.24,3"/><ellipse class="cls-2" cx="42.64" cy="7.36" rx="2.69" ry="6.21" transform="translate(7.28 32.31) rotate(-45)"/></svg>