<svg id="Tar_pot_" data-name="Tar (pot)" xmlns="http://www.w3.org/2000/svg" viewBox="0 0 50 50"><defs><style>.cls-1{fill:#fff;}.cls-1,.cls-2{stroke:#000;stroke-miterlimit:10;}.cls-2{fill:none;}</style></defs><path d="M27.21,19.4a1.6,1.6,0,0,1,0,2.59l3.35-.49,4-1.74c0-.23,1-3.56-3.2-2Z"/><circle class="cls-1" cx="40.41" cy="10.49" r="3.68"/><ellipse class="cls-1" cx="34.73" cy="15.15" rx="7.68" ry="12.96" transform="translate(-2.41 22.63) rotate(-34.96)"/><path class="cls-1" d="M33,19.52s8.86,7.39,2.48,17.85c-1,1.67-6.6,9-6.6,9H14.44s-5.58-7.31-6.6-9c-6.37-10.46,2.49-17.85,2.49-17.85"/><ellipse class="cls-1" cx="21.69" cy="17.63" rx="14.33" ry="4.93"/><ellipse class="cls-2" cx="21.69" cy="17.21" rx="10.07" ry="2.06"/><path d="M12.3,17.72a14,14,0,0,1,3-.88c.81,0,1.9.88,2.59.88s2-1.44,3.39-1.44,2.94,1.44,3.8,1.44S27.44,17,28.24,17a4.44,4.44,0,0,1,2.3,1c.23.27-3,.74-3,.74l-7.77.5Z"/><path d="M17.14,22.3S18,26,16.39,27.62s-3.87-1.51-4.77-.64c-.59.56-2.73,3.3-1.27,4.32,1.62,1.12.37,3.91-.68,3.91s-3.55-1-3.82-2.63a35,35,0,0,1-.12-5l1.63-4.84L9.43,20.4l3.11.37Z"/><path d="M16.22,22S13.5,20.9,16,18.91l-4.33-1.7a3.78,3.78,0,0,0-4,.42l.56,1.61L10,20.46,16.45,22"/><path d="M28.15,22s-2.44,3.41-1.4,5.21a3.78,3.78,0,0,0,1,1.12.84.84,0,0,1-.23,1.44,2.07,2.07,0,0,0-1.41,1.78c-.23,2.6.78,4,2.18,3.64s2.25,1.24,2.25,1.76c0,.78.81,4.17,2.89,3.32s3-4.71,3-4.71l1.21-4.07a1,1,0,0,0,0-.24V28.18a1,1,0,0,0,0-.24l-1-3.35a.88.88,0,0,0-.11-.24l-2.76-4.09"/><path d="M24.11,26.38s-2-.68-2.12.08.14,3.14,1.27,3S24.69,27.23,24.11,26.38Z"/></svg>