<svg id="Tent_personal_" data-name="Tent (personal)" xmlns="http://www.w3.org/2000/svg" viewBox="0 0 50 50"><defs><style>.cls-1,.cls-3{fill:#fff;}.cls-1,.cls-2,.cls-3{stroke:#000;}.cls-1,.cls-2{stroke-miterlimit:10;}.cls-2{fill:none;}.cls-3{stroke-linejoin:round;}</style></defs><path class="cls-1" d="M31.2,40.84,47,23.13s-.27-12-6.66-13.81a4.22,4.22,0,0,0-3,.25l.46-.19L15,18.36"/><path class="cls-2" d="M37.32,9.57l.46-.19"/><path class="cls-2" d="M47,23.13s-.27-12-6.66-13.81a4.22,4.22,0,0,0-3,.25"/><path class="cls-2" d="M43.17,27.67s-.31-14.06-7.78-16.15a5.73,5.73,0,0,0-3.74.28"/><path class="cls-2" d="M37.11,34.17s-.37-16.89-9.35-19.4a6.86,6.86,0,0,0-4.51.35"/><path class="cls-1" d="M3,37.26s6.48-22.35,17.1-19.38,11.06,23,11.06,23Z"/><polygon points="27.92 25.55 18.61 24.66 9.3 23.76 11.65 20.87 14.53 18.62 17.12 17.54 20.14 17.88 23.37 19.5 25.61 21.72 27.92 25.55"/><line class="cls-1" x1="18.61" y1="24.65" x2="25.16" y2="40.07"/><polyline class="cls-3" points="18.61 24.66 14.05 32.37 5.36 37.55 7.8 30.05 14.05 32.37"/></svg>