<svg id="Tent_3_man_" data-name="Tent (3 man)" xmlns="http://www.w3.org/2000/svg" viewBox="0 0 50 50"><defs><style>.cls-1{fill:#fff;stroke-linecap:round;}.cls-1,.cls-2{stroke:#000;stroke-linejoin:round;}.cls-2{fill:none;}</style></defs><path class="cls-1" d="M2.11,35.8,12.7,16.05s7.47-8.12,14.68-8.12,14,5.91,14,5.91l6.52,17.7L32.05,42.07Z"/><path class="cls-1" d="M12.7,16.05s8.85,2.6,15.61,1.7a49.91,49.91,0,0,0,13.06-3.91"/><line class="cls-1" x1="32.05" y1="42.07" x2="28.95" y2="17.94"/><polygon points="43.97 20.91 36.11 16.57 30.21 27.73 19.74 18.39 8.67 23.55 12.01 17.32 12.7 16.37 14 16.39 17.54 17.15 23.38 17.88 28.04 17.94 31.29 17.22 35.04 16.23 38.01 15.22 40.92 14.05 41.97 15.49 43.97 20.91"/><polyline class="cls-2" points="13.02 38.08 19.74 18.39 19.74 30.75 26.12 40.83 26.32 29.09 19.74 30.75"/></svg>