<svg id="Tinderbox" xmlns="http://www.w3.org/2000/svg" viewBox="0 0 50 50"><defs><style>.cls-1,.cls-2{fill:none;stroke-width:0.75px;}.cls-1,.cls-2,.cls-3,.cls-4{stroke:#231f20;}.cls-1,.cls-2,.cls-3{stroke-miterlimit:10;}.cls-2,.cls-3,.cls-4{stroke-linecap:round;}.cls-3,.cls-4{fill:#fff;}.cls-4{stroke-linejoin:round;}</style></defs><path class="cls-1" d="M25.57,7.87l1.13.45A1.25,1.25,0,0,1,27.35,10h0a1.3,1.3,0,0,1-1.64.67l-1-.41"/><path class="cls-2" d="M26.74,9.72A36.57,36.57,0,0,1,31,11.91"/><path class="cls-1" d="M33.1,11.76c-.33-.24-.67-.46-1-.68a1.24,1.24,0,0,0-1.75.43h0a1.3,1.3,0,0,0,.39,1.72c.31.19.62.39.91.6"/><path class="cls-1" d="M33.1,11.76c.34.23.67.48,1,.74a1.21,1.21,0,0,1,.14,1.81h0a1.32,1.32,0,0,1-1.73.17c-.27-.23-.56-.44-.86-.65"/><path class="cls-2" d="M33.74,13.86a9.07,9.07,0,0,1,1.61,1.78,4,4,0,0,1,.74,2.25"/><path class="cls-1" d="M37.39,19.47l0-1.13a1.2,1.2,0,0,0-.1-.47,1.9,1.9,0,0,0-.3-.49,1,1,0,0,0-1-.27h0a2,2,0,0,0-.83.46.73.73,0,0,0-.25.3,1.44,1.44,0,0,0-.1.5l0,1.18"/><path class="cls-1" d="M37.39,19.47l0,1.15a1.27,1.27,0,0,1-1.22,1.29h0a1.25,1.25,0,0,1-1.32-1.19l0-1.17"/><path class="cls-2" d="M36.18,21.25q.1,2.4.27,4.8"/><path class="cls-1" d="M37.84,27.57l-.09-1.15a1.27,1.27,0,0,0-2.53.18l.08,1.16"/><path class="cls-1" d="M37.84,27.57l.09,1.15a1.27,1.27,0,0,1-1.16,1.34h0a1.25,1.25,0,0,1-1.37-1.14l-.1-1.16"/><path class="cls-2" d="M36.71,29.4c.13,1.6.29,3.19.49,4.78"/><path class="cls-1" d="M38.69,35.57l-.17-1.1a1.27,1.27,0,0,0-1.42-1.06h0A1.26,1.26,0,0,0,36,34.82L36.18,36"/><path class="cls-1" d="M38.69,35.57l.09.53.08.33c0,.06-.1.23-.14.47a4.73,4.73,0,0,1-.26.87h0a1,1,0,0,1-.89.56,1.15,1.15,0,0,1-1.08-.92L36.37,37a3,3,0,0,1-.07-.34L36.18,36"/><path class="cls-2" d="M37.89,37.45a2.49,2.49,0,0,0,1.09.47l1.17.29a20.87,20.87,0,0,1,2.31.65"/><path class="cls-1" d="M44.59,38.43a10.44,10.44,0,0,0-1.22-.59,1.21,1.21,0,0,0-1.65.78h0a1.33,1.33,0,0,0,.7,1.58,6.37,6.37,0,0,1,.87.41"/><path class="cls-1" d="M44.59,38.43a5.76,5.76,0,0,1,1.17.92,1.31,1.31,0,0,1,.35.6,1.08,1.08,0,0,1,.06.66.83.83,0,0,1-.69.68h0a6.12,6.12,0,0,1-1,0,1.79,1.79,0,0,1-.34,0,.76.76,0,0,1-.26-.15,3,3,0,0,0-.63-.5"/><path class="cls-2" d="M45.2,40.69a2.24,2.24,0,0,1,.38,1.12.93.93,0,0,1-.45,1,5.29,5.29,0,0,1-2.33.48"/><path class="cls-1" d="M41.12,44.57c.4,0,.81,0,1.22,0a1.21,1.21,0,0,0,1.24-1.33h0a1.33,1.33,0,0,0-1.25-1.21l-1.08,0"/><path class="cls-1" d="M41.12,44.57c-.41,0-.81-.06-1.21-.09a1.24,1.24,0,0,1-1.12-1.4h0A1.27,1.27,0,0,1,40.14,42c.37,0,.74.07,1.11.08"/><path class="cls-2" d="M39.45,43.16c-1.6-.17-3.18-.42-4.76-.7"/><path class="cls-1" d="M32.86,43.41l1.14.21a1.25,1.25,0,0,0,1.46-1h0a1.26,1.26,0,0,0-1-1.46l-1.12-.22"/><path class="cls-1" d="M32.86,43.41l-1.15-.23a1.27,1.27,0,0,1,.51-2.49l1.12.22"/><path class="cls-2" d="M31.4,41.82c-1.57-.33-3.14-.69-4.7-1.07"/><path class="cls-1" d="M24.81,41.59l1.14.29a1.27,1.27,0,0,0,.61-2.47l-1.11-.28"/><path class="cls-3" d="M5.24,13.16V42c0,1.35,4.81,2.45,10.76,2.45S26.76,43.3,26.76,42V12.71"/><path class="cls-4" d="M27.61,8.24c0-1.46-5.2-2.64-11.61-2.64S4.39,6.78,4.39,8.24v6.94c0-1.45,5.2-2.63,11.61-2.63s11.61,1.18,11.61,2.63Z"/></svg>