<svg id="Torches_5" data-name="Torches, 5" xmlns="http://www.w3.org/2000/svg" viewBox="0 0 50 50"><defs><style>.cls-1{fill:#f2f2f3;stroke-linecap:round;}.cls-1,.cls-2,.cls-3{stroke:#000;stroke-linejoin:round;}.cls-2{fill:#fff;}.cls-3{fill:none;stroke-width:0.5px;}</style></defs><path class="cls-1" d="M28.17,12.93S17,29.86,33.82,29.86,40.4,8.18,40.4,8.18,37.47,11.6,37.47,13s-2-11.83-3.3-11.83-4.34,15.32-4.34,15.32S29.64,12.93,28.17,12.93Z"/><rect class="cls-2" x="19.74" y="11.65" width="5.25" height="42.61" rx="2.63" transform="translate(29.86 -6.16) rotate(45)"/><rect class="cls-2" x="30.25" y="14.95" width="8.89" height="11.37" rx="2.25" transform="translate(24.75 -18.49) rotate(45)"/><line class="cls-3" x1="39.87" y1="21.73" x2="28.46" y2="21.73"/><line class="cls-3" x1="40.94" y1="19.66" x2="29.31" y2="19.66"/><line class="cls-3" x1="39.58" y1="17.59" x2="31.38" y2="17.59"/><line class="cls-3" x1="37.82" y1="15.62" x2="33.46" y2="15.52"/><line class="cls-3" x1="37.8" y1="23.81" x2="29.83" y2="23.81"/><line class="cls-3" x1="35.73" y1="25.88" x2="31.9" y2="25.88"/></svg>