<svg id="Twine_300_ft_" data-name="Twine (300 ft)" xmlns="http://www.w3.org/2000/svg" viewBox="0 0 50 50"><defs><style>.cls-1{fill:#fff;}.cls-1,.cls-3{stroke:#000;}.cls-1,.cls-2,.cls-3{stroke-miterlimit:10;}.cls-2{stroke:#231f20;}.cls-3{fill:none;}</style></defs><path class="cls-1" d="M24.32,3.85S44,4.41,44.66,18s.07,16.35-1.33,18.66-3.44,8.92-17.4,9.47c-8.63,0-16.35-6-17-6.73s-3.65-6.18-3.65-9.89S3.9,14.65,8.39,10.16,15.83,4.42,24.32,3.85Z"/><ellipse class="cls-2" cx="25" cy="11" rx="10.35" ry="3.23"/><path class="cls-3" d="M14.65,11s3.94,10.48,24.6,31.15"/><line class="cls-3" x1="24.03" y1="14.22" x2="19.33" y2="19.01"/><line class="cls-3" x1="29.64" y1="13.89" x2="23.09" y2="24.11"/><line class="cls-3" x1="34.85" y1="11.99" x2="27.33" y2="29.32"/><path class="cls-3" d="M37.82,7.5s1.65,6.31.74,8.63S31.45,34,31.45,34"/><line class="cls-3" x1="43.98" y1="14.48" x2="35.14" y2="37.94"/><line class="cls-3" x1="44.94" y1="25.74" x2="37.72" y2="40.6"/><path class="cls-3" d="M36.17,44S11.69,19.56,11,15.35s-.26-7.18.41-7.85"/><path class="cls-3" d="M5.49,15.78S18.33,35,30.05,45.77"/><path class="cls-3" d="M21.68,45.67S6.2,29.07,5.05,24.51"/></svg>