<svg id="Waterskin" xmlns="http://www.w3.org/2000/svg" viewBox="0 0 50 50"><defs><style>.cls-1,.cls-3,.cls-4{fill:none;stroke-miterlimit:10;}.cls-1,.cls-2,.cls-3,.cls-4{stroke:#000;}.cls-1{stroke-width:2px;}.cls-2{fill:#fff;stroke-linecap:round;stroke-linejoin:round;}.cls-4{stroke-dasharray:5.47 5.47;}</style></defs><path class="cls-1" d="M9.67,33.56s-7.87-12.18-4-16,6.65-2.15,9.29-2.84,3.23-9.09,6.36-10.27,9.88,1.76,9.88,5S38,16.15,37.26,20.06"/><path class="cls-2" d="M24.71,24.8S30,17.64,37.69,15l5.36,3.81S45.25,46,26,45.85,5.36,35.49,7.61,32.1s5.79-13.59,24-4.5"/><polyline points="38.61 15.61 41.57 12.6 41.91 7.62 45.41 9.53 42.08 18.08"/><path class="cls-3" d="M41,17.66s-.07,1-.31,2.47"/><path class="cls-4" d="M39.55,25.48c-1.33,4.75-3.79,10.27-8.24,12.3A45.69,45.69,0,0,1,17,41.72"/><path class="cls-3" d="M14.3,41.89c-1,0-1.79,0-2.5,0"/></svg>