<svg id="Whistle" xmlns="http://www.w3.org/2000/svg" viewBox="0 0 50 50"><defs><style>.cls-1,.cls-2,.cls-5{fill:#fff;}.cls-2,.cls-3,.cls-5{stroke:#231f20;}.cls-2,.cls-3,.cls-4{stroke-miterlimit:10;}.cls-3{fill:none;}.cls-4{stroke:#000;}.cls-5{stroke-linejoin:round;}</style></defs><path class="cls-1" d="M35.7,34.46c-2.42-.45-4.05-3.4-4.42-7.35h0l-5.46,5.52Z"/><path class="cls-2" d="M40.12,10.56,26.33,8c-3-.56-6.35,3-7.95,8.34L37.91,20.6"/><line class="cls-3" x1="25.82" y1="32.63" x2="35.7" y2="34.46"/><polyline class="cls-2" points="16.51 42.05 7.41 39.72 5.37 35.2 20.19 12.17 33.89 16.45"/><polyline class="cls-4" points="20.19 12.17 33.92 14.74 32.74 17.23 31.87 19.96 16.8 17.43"/><path class="cls-5" d="M5.37,35.2l9.11,2.33,2,4.52L31.28,27.11c.37,3.95,2,6.9,4.42,7.35,3.5.64,7.33-4.18,8.55-10.78s-.63-12.48-4.13-13.12c-3.25-.6-6.79,3.52-8.25,9.4h0L14.48,37.53"/><polygon points="5.37 35.23 14.51 37.63 16.41 42.05 7.41 39.74 5.37 35.23"/></svg>